  0
SECTION
  2
HEADER
  9
$ACADVER
  1
AC1015
  9
$ACADMAINTVER
 70
     6
  9
$DWGCODEPAGE
  3
ANSI_1252
  9
$INSBASE
 10
0.0
 20
0.0
 30
0.0
  9
$EXTMIN
 10
-3.0
 20
-2.25
 30
0.0
  9
$EXTMAX
 10
3.0
 20
2.25
 30
0.0
  9
$LIMMIN
 10
0.0
 20
0.0
  9
$LIMMAX
 10
12.0
 20
9.0
  9
$ORTHOMODE
 70
     0
  9
$REGENMODE
 70
     1
  9
$FILLMODE
 70
     1
  9
$QTEXTMODE
 70
     0
  9
$MIRRTEXT
 70
     1
  9
$LTSCALE
 40
1.0
  9
$ATTMODE
 70
     1
  9
$TEXTSIZE
 40
0.1377952756
  9
$TRACEWID
 40
0.05
  9
$TEXTSTYLE
  7
Standard
  9
$CLAYER
  8
0
  9
$CELTYPE
  6
ByLayer
  9
$CECOLOR
 62
   256
  9
$CELTSCALE
 40
1.0
  9
$DISPSILH
 70
     0
  9
$DIMSCALE
 40
1.0
  9
$DIMASZ
 40
0.14
  9
$DIMEXO
 40
0.0
  9
$DIMDLI
 40
0.38
  9
$DIMRND
 40
0.0
  9
$DIMDLE
 40
0.0
  9
$DIMEXE
 40
0.0393700787
  9
$DIMTP
 40
0.0
  9
$DIMTM
 40
0.0
  9
$DIMTXT
 40
0.1377952756
  9
$DIMCEN
 40
0.09
  9
$DIMTSZ
 40
0.0
  9
$DIMTOL
 70
     0
  9
$DIMLIM
 70
     0
  9
$DIMTIH
 70
     1
  9
$DIMTOH
 70
     1
  9
$DIMSE1
 70
     0
  9
$DIMSE2
 70
     0
  9
$DIMTAD
 70
     1
  9
$DIMZIN
 70
     1
  9
$DIMBLK
  1

  9
$DIMASO
 70
     1
  9
$DIMSHO
 70
     1
  9
$DIMPOST
  1

  9
$DIMAPOST
  1

  9
$DIMALT
 70
     0
  9
$DIMALTD
 70
     2
  9
$DIMALTF
 40
25.4
  9
$DIMLFAC
 40
1.0
  9
$DIMTOFL
 70
     0
  9
$DIMTVP
 40
0.0
  9
$DIMTIX
 70
     0
  9
$DIMSOXD
 70
     0
  9
$DIMSAH
 70
     0
  9
$DIMBLK1
  1

  9
$DIMBLK2
  1

  9
$DIMSTYLE
  2
Standard
  9
$DIMCLRD
 70
     0
  9
$DIMCLRE
 70
     0
  9
$DIMCLRT
 70
     0
  9
$DIMTFAC
 40
1.0
  9
$DIMGAP
 40
0.06
  9
$DIMJUST
 70
     0
  9
$DIMSD1
 70
     0
  9
$DIMSD2
 70
     0
  9
$DIMTOLJ
 70
     1
  9
$DIMTZIN
 70
     1
  9
$DIMALTZ
 70
     0
  9
$DIMALTTZ
 70
     0
  9
$DIMUPT
 70
     0
  9
$DIMDEC
 70
     2
  9
$DIMTDEC
 70
     2
  9
$DIMALTU
 70
     2
  9
$DIMALTTD
 70
     2
  9
$DIMTXSTY
  7
Standard
  9
$DIMAUNIT
 70
     0
  9
$DIMADEC
 70
     2
  9
$DIMALTRND
 40
0.0
  9
$DIMAZIN
 70
     0
  9
$DIMDSEP
 70
    46
  9
$DIMATFIT
 70
     3
  9
$DIMFRAC
 70
     0
  9
$DIMLDRBLK
  1

  9
$DIMLUNIT
 70
     2
  9
$DIMLWD
 70
    -2
  9
$DIMLWE
 70
    -2
  9
$DIMTMOVE
 70
     0
  9
$LUNITS
 70
     2
  9
$LUPREC
 70
     2
  9
$SKETCHINC
 40
0.1
  9
$FILLETRAD
 40
0.0
  9
$AUNITS
 70
     0
  9
$AUPREC
 70
     2
  9
$MENU
  1
.
  9
$ELEVATION
 40
0.0
  9
$PELEVATION
 40
0.0
  9
$THICKNESS
 40
0.0
  9
$LIMCHECK
 70
     0
  9
$CHAMFERA
 40
0.0
  9
$CHAMFERB
 40
0.0
  9
$CHAMFERC
 40
0.0
  9
$CHAMFERD
 40
0.0
  9
$SKPOLY
 70
     0
  9
$TDCREATE
 40
2460195.55323809
  9
$TDUCREATE
 40
2460195.761571424
  9
$TDUPDATE
 40
2460195.553390463
  9
$TDUUPDATE
 40
2460195.761723796
  9
$TDINDWG
 40
0.0000000116
  9
$TDUSRTIMER
 40
0.0000000116
  9
$USRTIMER
 70
     1
  9
$ANGBASE
 50
0.0
  9
$ANGDIR
 70
     0
  9
$PDMODE
 70
     0
  9
$PDSIZE
 40
-1.0
  9
$PLINEWID
 40
0.0
  9
$SPLFRAME
 70
     0
  9
$SPLINETYPE
 70
     6
  9
$SPLINESEGS
 70
     8
  9
$HANDSEED
  5
A8
  9
$SURFTAB1
 70
     6
  9
$SURFTAB2
 70
     6
  9
$SURFTYPE
 70
     6
  9
$SURFU
 70
     6
  9
$SURFV
 70
     6
  9
$UCSBASE
  2

  9
$UCSNAME
  2

  9
$UCSORG
 10
0.0
 20
0.0
 30
0.0
  9
$UCSXDIR
 10
1.0
 20
0.0
 30
0.0
  9
$UCSYDIR
 10
0.0
 20
1.0
 30
0.0
  9
$UCSORTHOREF
  2

  9
$UCSORTHOVIEW
 70
     0
  9
$UCSORGTOP
 10
0.0
 20
0.0
 30
0.0
  9
$UCSORGBOTTOM
 10
0.0
 20
0.0
 30
0.0
  9
$UCSORGLEFT
 10
0.0
 20
0.0
 30
0.0
  9
$UCSORGRIGHT
 10
0.0
 20
0.0
 30
0.0
  9
$UCSORGFRONT
 10
0.0
 20
0.0
 30
0.0
  9
$UCSORGBACK
 10
0.0
 20
0.0
 30
0.0
  9
$PUCSBASE
  2

  9
$PUCSNAME
  2

  9
$PUCSORG
 10
0.0
 20
0.0
 30
0.0
  9
$PUCSXDIR
 10
1.0
 20
0.0
 30
0.0
  9
$PUCSYDIR
 10
0.0
 20
1.0
 30
0.0
  9
$PUCSORTHOREF
  2

  9
$PUCSORTHOVIEW
 70
     0
  9
$PUCSORGTOP
 10
0.0
 20
0.0
 30
0.0
  9
$PUCSORGBOTTOM
 10
0.0
 20
0.0
 30
0.0
  9
$PUCSORGLEFT
 10
0.0
 20
0.0
 30
0.0
  9
$PUCSORGRIGHT
 10
0.0
 20
0.0
 30
0.0
  9
$PUCSORGFRONT
 10
0.0
 20
0.0
 30
0.0
  9
$PUCSORGBACK
 10
0.0
 20
0.0
 30
0.0
  9
$USERI1
 70
     0
  9
$USERI2
 70
     0
  9
$USERI3
 70
     0
  9
$USERI4
 70
     0
  9
$USERI5
 70
     0
  9
$USERR1
 40
0.0
  9
$USERR2
 40
0.0
  9
$USERR3
 40
0.0
  9
$USERR4
 40
0.0
  9
$USERR5
 40
0.0
  9
$WORLDVIEW
 70
     1
  9
$SHADEDGE
 70
     3
  9
$SHADEDIF
 70
    70
  9
$TILEMODE
 70
     1
  9
$MAXACTVP
 70
    64
  9
$PINSBASE
 10
0.0
 20
0.0
 30
0.0
  9
$PLIMCHECK
 70
     0
  9
$PEXTMIN
 10
1.0000000000E+20
 20
1.0000000000E+20
 30
1.0000000000E+20
  9
$PEXTMAX
 10
-1.0000000000E+20
 20
-1.0000000000E+20
 30
-1.0000000000E+20
  9
$PLIMMIN
 10
0.0
 20
0.0
  9
$PLIMMAX
 10
12.0
 20
9.0
  9
$UNITMODE
 70
     0
  9
$VISRETAIN
 70
     1
  9
$PLINEGEN
 70
     0
  9
$PSLTSCALE
 70
     1
  9
$TREEDEPTH
 70
  3020
  9
$CMLSTYLE
  2
Standard
  9
$CMLJUST
 70
     0
  9
$CMLSCALE
 40
1.0
  9
$PROXYGRAPHICS
 70
     1
  9
$MEASUREMENT
 70
     0
  9
$CELWEIGHT
370
    -1
  9
$ENDCAPS
280
     0
  9
$JOINSTYLE
280
     0
  9
$LWDISPLAY
290
     1
  9
$INSUNITS
 70
     1
  9
$HYPERLINKBASE
  1

  9
$STYLESHEET
  1

  9
$XEDIT
290
     1
  9
$CEPSNTYPE
380
     0
  9
$PSTYLEMODE
290
     1
  9
$FINGERPRINTGUID
  2
{61a2169e-1a39-43f0-934f-8ea7fa783950}
  9
$VERSIONGUID
  2
{FAEB1C32-E019-11D5-929B-00C0DF256EC4}
  9
$EXTNAMES
290
     1
  9
$PSVPSCALE
 40
0.0
  9
$OLESTARTUP
290
     0
  0
ENDSEC
  0
SECTION
  2
CLASSES
  0
CLASS
  1
ACDBDICTIONARYWDFLT
  2
AcDbDictionaryWithDefault
  3
ObjectDBX Classes
 90
        0
280
     0
281
     0
  0
CLASS
  1
VISUALSTYLE
  2
AcDbVisualStyle
  3
ObjectDBX Classes
 90
     4095
280
     0
281
     0
  0
CLASS
  1
MATERIAL
  2
AcDbMaterial
  3
ObjectDBX Classes
 90
     1153
280
     0
281
     0
  0
CLASS
  1
SCALE
  2
AcDbScale
  3
ObjectDBX Classes
 90
     1153
280
     0
281
     0
  0
CLASS
  1
TABLESTYLE
  2
AcDbTableStyle
  3
ObjectDBX Classes
 90
     4095
280
     0
281
     0
  0
CLASS
  1
MLEADERSTYLE
  2
AcDbMLeaderStyle
  3
ACDB_MLEADERSTYLE_CLASS
 90
     4095
280
     0
281
     0
  0
CLASS
  1
SUN
  2
AcDbSun
  3
SCENEOE
 90
     1153
280
     0
281
     0
  0
CLASS
  1
ACDBPLACEHOLDER
  2
AcDbPlaceHolder
  3
ObjectDBX Classes
 90
        0
280
     0
281
     0
  0
CLASS
  1
LAYOUT
  2
AcDbLayout
  3
ObjectDBX Classes
 90
        0
280
     0
281
     0
  0
ENDSEC
  0
SECTION
  2
TABLES
  0
TABLE
  2
VPORT
  5
8
330
0
100
AcDbSymbolTable
 70
     1
  0
VPORT
  5
29
330
8
100
AcDbSymbolTableRecord
100
AcDbViewportTableRecord
  2
*Active
 70
     0
 10
0.0
 20
0.0
 11
1.0
 21
1.0
 12
0.0
 22
0.0
 13
0.0
 23
0.0
 14
0.5
 24
0.5
 15
0.5
 25
0.5
 16
0.0
 26
0.0
 36
1.0
 17
0.0
 27
0.0
 37
0.0
 40
4.59
 41
1.3333333333
 42
50.0
 43
0.0
 44
0.0
 50
0.0
 51
0.0
 71
     0
 72
   100
 73
     1
 74
     3
 75
     0
 76
     0
 77
     0
 78
     0
281
     0
 65
     1
110
0.0
120
0.0
130
0.0
111
1.0
121
0.0
131
0.0
112
0.0
122
1.0
132
0.0
 79
     0
146
0.0
  0
ENDTAB
  0
TABLE
  2
LTYPE
  5
5
330
0
100
AcDbSymbolTable
 70
     6
  0
LTYPE
  5
14
330
5
100
AcDbSymbolTableRecord
100
AcDbLinetypeTableRecord
  2
ByBlock
 70
     0
  3

 72
    65
 73
     0
 40
0.0
  0
LTYPE
  5
15
330
5
100
AcDbSymbolTableRecord
100
AcDbLinetypeTableRecord
  2
ByLayer
 70
     0
  3

 72
    65
 73
     0
 40
0.0
  0
LTYPE
  5
16
330
5
100
AcDbSymbolTableRecord
100
AcDbLinetypeTableRecord
  2
Continuous
 70
     0
  3
Solid line
 72
    65
 73
     0
 40
0.0
  0
LTYPE
  5
5E
330
5
100
AcDbSymbolTableRecord
100
AcDbLinetypeTableRecord
  2
HIDDEN
 70
     0
  3
Hidden __ __ __ __ __ __ __ __ __ __ __ __ __ __
 72
    65
 73
     2
 40
0.075
 49
0.05
 74
     0
 49
-0.025
 74
     0
  0
LTYPE
  5
5F
330
5
100
AcDbSymbolTableRecord
100
AcDbLinetypeTableRecord
  2
PHANTOM
 70
     0
  3
Phantom ______  __  __  ______  __  __  ______
 72
    65
 73
     6
 40
0.5
 49
0.25
 74
     0
 49
-0.05
 74
     0
 49
0.05
 74
     0
 49
-0.05
 74
     0
 49
0.05
 74
     0
 49
-0.05
 74
     0
  0
LTYPE
  5
60
330
5
100
AcDbSymbolTableRecord
100
AcDbLinetypeTableRecord
  2
CENTER
 70
     0
  3
Center ____ _ ____ _ ____ _ ____ _ ____ _ ____
 72
    65
 73
     4
 40
0.4
 49
0.25
 74
     0
 49
-0.05
 74
     0
 49
0.05
 74
     0
 49
-0.05
 74
     0
  0
LTYPE
  5
61
330
5
100
AcDbSymbolTableRecord
100
AcDbLinetypeTableRecord
  2
CENTERX2
 70
     0
  3
Center (2x) ________  __  ________  __  _____
 72
    65
 73
     4
 40
0.8
 49
0.5
 74
     0
 49
-0.1
 74
     0
 49
0.1
 74
     0
 49
-0.1
 74
     0
  0
LTYPE
  5
62
330
5
100
AcDbSymbolTableRecord
100
AcDbLinetypeTableRecord
  2
DOT2
 70
     0
  3
Dot (.5x) ........................................
 72
    65
 73
     2
 40
0.025
 49
0.0
 74
     0
 49
-0.025
 74
     0
  0
ENDTAB
  0
TABLE
  2
LAYER
  5
2
330
0
100
AcDbSymbolTable
 70
     1
  0
LAYER
  5
10
330
2
100
AcDbSymbolTableRecord
100
AcDbLayerTableRecord
  2
0
 70
     0
 62
     7
  6
Continuous
370
    -3
390
F
  0
ENDTAB
  0
TABLE
  2
STYLE
  5
3
330
0
100
AcDbSymbolTable
 70
     1
  0
STYLE
  5
11
330
3
100
AcDbSymbolTableRecord
100
AcDbTextStyleTableRecord
  2
Standard
 70
     0
 40
0.0
 41
1.0
 50
0.0
 71
     0
 42
0.1377952756
  3
txt
  4

  0
ENDTAB
  0
TABLE
  2
VIEW
  5
6
330
0
100
AcDbSymbolTable
 70
     0
  0
ENDTAB
  0
TABLE
  2
UCS
  5
7
330
0
100
AcDbSymbolTable
 70
     0
  0
ENDTAB
  0
TABLE
  2
APPID
  5
9
330
0
100
AcDbSymbolTable
 70
     1
  0
APPID
  5
12
330
9
100
AcDbSymbolTableRecord
100
AcDbRegAppTableRecord
  2
ACAD
 70
     0
  0
ENDTAB
  0
TABLE
  2
DIMSTYLE
  5
A
330
0
100
AcDbSymbolTable
 70
     1
100
AcDbDimStyleTable
  0
DIMSTYLE
105
27
330
A
100
AcDbSymbolTableRecord
100
AcDbDimStyleTableRecord
  2
Standard
 70
     0
178
     0
340
11
  0
ENDTAB
  0
TABLE
  2
BLOCK_RECORD
  5
1
330
0
100
AcDbSymbolTable
 70
     1
  0
BLOCK_RECORD
  5
1F
330
1
100
AcDbSymbolTableRecord
100
AcDbBlockTableRecord
  2
*Model_Space
340
22
  0
BLOCK_RECORD
  5
1B
330
1
100
AcDbSymbolTableRecord
100
AcDbBlockTableRecord
  2
*Paper_Space
340
1E
  0
BLOCK_RECORD
  5
23
330
1
100
AcDbSymbolTableRecord
100
AcDbBlockTableRecord
  2
*Paper_Space0
340
26
  0
ENDTAB
  0
ENDSEC
  0
SECTION
  2
BLOCKS
  0
BLOCK
  5
20
330
1F
100
AcDbEntity
  8
0
100
AcDbBlockBegin
  2
*Model_Space
 70
     0
 10
0.0
 20
0.0
 30
0.0
  3
*Model_Space
  1

  0
ENDBLK
  5
21
330
1F
100
AcDbEntity
  8
0
100
AcDbBlockEnd
  0
BLOCK
  5
1C
330
1B
100
AcDbEntity
 67
     1
  8
0
100
AcDbBlockBegin
  2
*Paper_Space
 70
     0
 10
0.0
 20
0.0
 30
0.0
  3
*Paper_Space
  1

  0
ENDBLK
  5
1D
330
1B
100
AcDbEntity
 67
     1
  8
0
100
AcDbBlockEnd
  0
BLOCK
  5
24
330
23
100
AcDbEntity
  8
0
100
AcDbBlockBegin
  2
*Paper_Space0
 70
     0
 10
0.0
 20
0.0
 30
0.0
  3
*Paper_Space0
  1

  0
ENDBLK
  5
25
330
23
100
AcDbEntity
  8
0
100
AcDbBlockEnd
  0
ENDSEC
  0
SECTION
  2
ENTITIES
  0
LINE
  5
63
330
1F
100
AcDbEntity
  8
0
  6
CENTERX2
 62
     7
100
AcDbLine
 10
-3.0
 20
-1.75
 30
0.0
 11
-3.0
 21
-0.75
 31
0.0
  0
LINE
  5
65
330
1F
100
AcDbEntity
  8
0
  6
CENTERX2
 62
     7
100
AcDbLine
 10
-3.0
 20
-0.75
 30
0.0
 11
-3.0
 21
-1.25
 31
0.0
  0
LWPOLYLINE
  5
67
330
1F
100
AcDbEntity
  8
0
  6
Continuous
 62
     7
100
AcDbPolyline
 90
       85
 70
   128
 43
0.0
 10
-2.1805268104
 20
1.6844111942
 10
-1.9423122965
 20
1.6844111942
 10
-1.9423122965
 20
1.6844111942
 10
-1.4269151216
 20
0.2227712744
 10
-1.4269151216
 20
0.2227712744
 10
-1.4070638752
 20
0.17130508
 10
-1.3872126288
 20
0.1293968932
 10
-1.3669937667
 20
0.0966790982
 10
-1.3471425204
 20
0.0738869264
 10
-1.3250855799
 20
0.0580794524
 10
-1.2997200984
 20
0.0466833665
 10
-1.2706784602
 20
0.0396986687
 10
-1.2383282809
 20
0.0374929747
 10
-1.2383282809
 20
0.0374929747
 10
-1.211124721
 20
0.0374929747
 10
-1.211124721
 20
0.0374929747
 10
-1.211124721
 20
-0.0566166379
 10
-1.211124721
 20
-0.0566166379
 10
-1.8213667398
 20
-0.0566166379
 10
-1.8213667398
 20
-0.0566166379
 10
-1.8213667398
 20
0.0374929747
 10
-1.8213667398
 20
0.0374929747
 10
-1.7919574859
 20
0.0393310531
 10
-1.7629158476
 20
0.0400662844
 10
-1.7629158476
 20
0.0400662844
 10
-1.7357122878
 20
0.0408015158
 10
-1.7136553473
 20
0.0433748255
 10
-1.6963774106
 20
0.0474185979
 10
-1.6846137091
 20
0.052932833
 10
-1.6846137091
 20
0.052932833
 10
-1.6691738508
 20
0.0657993816
 10
-1.6577777649
 20
0.0805040085
 10
-1.6511606827
 20
0.0966790982
 10
-1.6489549887
 20
0.1146922662
 10
-1.6489549887
 20
0.1146922662
 10
-1.6493226044
 20
0.1227798111
 10
-1.6511606827
 20
0.1330730499
 10
-1.6537339925
 20
0.1459395985
 10
-1.6574101492
 20
0.1613794568
 10
-1.6625567686
 20
0.1790250092
 10
-1.6684386194
 20
0.1992438712
 10
-1.6754233172
 20
0.222036043
 10
-1.6835108621
 20
0.2470339089
 10
-1.6835108621
 20
0.2470339089
 10
-1.8004126464
 20
0.5786232468
 10
-1.8004126464
 20
0.5786232468
 10
-2.4268297549
 20
0.5786232468
 10
-2.4268297549
 20
0.5786232468
 10
-2.5591713975
 20
0.2076990317
 10
-2.5591713975
 20
0.2076990317
 10
-2.5683617894
 20
0.1793926248
 10
-2.5749788715
 20
0.1562328374
 10
-2.5786550282
 20
0.1371168223
 10
-2.5801254909
 20
0.1231474267
 10
-2.5801254909
 20
0.1231474267
 10
-2.5768169499
 20
0.0988847922
 10
-2.5672589423
 20
0.0779306988
 10
-2.551819084
 20
0.0610203778
 10
-2.5319678376
 20
0.0485214449
 10
-2.519101289
 20
0.0444776725
 10
-2.5025585837
 20
0.0415367471
 10
-2.483074953
 20
0.0396986687
 10
-2.4599151655
 20
0.0389634374
 10
-2.4599151655
 20
0.0389634374
 10
-2.4294030646
 20
0.0385958217
 10
-2.4051404301
 20
0.0374929747
 10
-2.4051404301
 20
0.0374929747
 10
-2.4051404301
 20
-0.0566166379
 10
-2.4051404301
 20
-0.0566166379
 10
-2.918331911
 20
-0.0566166379
 10
-2.918331911
 20
-0.0566166379
 10
-2.918331911
 20
0.0374929747
 10
-2.918331911
 20
0.0374929747
 10
-2.8848788847
 20
0.0385958217
 10
-2.8562048621
 20
0.0411691314
 10
-2.8330450746
 20
0.0459481352
 10
-2.8146642909
 20
0.0521976016
 10
-2.7848874213
 20
0.0713136167
 10
-2.7595219398
 20
0.0992524079
 10
-2.7466553912
 20
0.1202065013
 10
-2.73231838
 20
0.1499833709
 10
-2.7157756746
 20
0.1885830167
 10
-2.6973948909
 20
0.2363730543
 10
-2.6973948909
 20
0.2363730543
 10
-2.1805272533
 20
1.6844111942
  0
LWPOLYLINE
  5
68
330
1F
100
AcDbEntity
  8
0
  6
Continuous
 62
     7
100
AcDbPolyline
 90
        6
 70
   128
 43
0.0
 10
-2.3764653469
 20
0.7197876656
 10
-1.8500407624
 20
0.7197876656
 10
-1.8500407624
 20
0.7197876656
 10
-2.1117831223
 20
1.4616360957
 10
-2.1117831223
 20
1.4616360957
 10
-2.3764664075
 20
0.7197876656
  0
LWPOLYLINE
  5
69
330
1F
100
AcDbEntity
  8
0
  6
Continuous
 62
     7
100
AcDbPolyline
 90
      157
 70
   128
 43
0.0
 10
-0.9419563718
 20
1.6844111942
 10
-0.2813511583
 20
1.6844111942
 10
-0.2813511583
 20
1.6844111942
 10
-0.2813511583
 20
1.5903015816
 10
-0.2813511583
 20
1.5903015816
 10
-0.333552584
 20
1.5903015816
 10
-0.333552584
 20
1.5903015816
 10
-0.367373226
 20
1.5895663503
 10
-0.3945767859
 20
1.5877282719
 10
-0.414795648
 20
1.5840521152
 10
-0.4280298122
 20
1.5792731114
 10
-0.4368525884
 20
1.573023645
 10
-0.4427344392
 20
1.5649361001
 10
-0.4467782116
 20
1.5550104769
 10
-0.4478810586
 20
1.543614391
 10
-0.4478810586
 20
1.543614391
 10
-0.4460429803
 20
1.5270716857
 10
-0.4405287452
 20
1.5105289804
 10
-0.4346468944
 20
1.4998681258
 10
-0.4254565025
 20
1.4844282675
 10
-0.4122223383
 20
1.4642094055
 10
-0.3956796329
 20
1.4392115396
 10
-0.3956796329
 20
1.4392115396
 10
-0.0699721458
 20
1.0087335854
 10
-0.0699721458
 20
1.0087335854
 10
0.2884531364
 20
1.441049618
 10
0.2884531364
 20
1.441049618
 10
0.3101424611
 20
1.4730321816
 10
0.3255823195
 20
1.5009709729
 10
0.335140327
 20
1.524498376
 10
0.3380812524
 20
1.5443496224
 10
0.3380812524
 20
1.5443496224
 10
0.3369784053
 20
1.5546428613
 10
0.3333022486
 20
1.5638332531
 10
0.3270527821
 20
1.5715531823
 10
0.3185976216
 20
1.5781702644
 10
0.3064663044
 20
1.5833168838
 10
0.2888207521
 20
1.5873606562
 10
0.2660285803
 20
1.5895663503
 10
0.2377221734
 20
1.5903015816
 10
0.2377221734
 20
1.5903015816
 10
0.1744922774
 20
1.5903015816
 10
0.1744922774
 20
1.5903015816
 10
0.1744922774
 20
1.6844111942
 10
0.1744922774
 20
1.6844111942
 10
0.7336357176
 20
1.6844111942
 10
0.7336357176
 20
1.6844111942
 10
0.7336357176
 20
1.5903015816
 10
0.7336357176
 20
1.5903015816
 10
0.686948527
 20
1.5888311189
 10
0.6472460342
 20
1.5847873465
 10
0.6145282392
 20
1.577435033
 10
0.588795142
 20
1.5675094098
 10
0.5773990561
 20
1.560524712
 10
0.5649001232
 20
1.5513343202
 10
0.5512983433
 20
1.5395706186
 10
0.5365937163
 20
1.525601223
 10
0.5207862423
 20
1.5090585177
 10
0.5038759213
 20
1.4899425026
 10
0.4858627533
 20
1.4682531779
 10
0.4667467383
 20
1.4443581591
 10
0.4667467383
 20
1.4443581591
 10
0.0142118436
 20
0.8980812675
 10
0.0142118436
 20
0.8980812675
 10
0.5490926492
 20
0.1911563264
 10
0.5490926492
 20
0.1911563264
 10
0.5733552837
 20
0.1580709158
 10
0.5957798398
 20
0.1301321245
 10
0.6159987019
 20
0.1073399527
 10
0.6343794856
 20
0.0896944004
 10
0.6685677433
 20
0.0646965346
 10
0.7016531539
 20
0.0485214449
 10
0.7204015533
 20
0.0437424411
 10
0.7446641878
 20
0.0404339001
 10
0.773705826
 20
0.038228206
 10
0.8082616994
 20
0.0374929747
 10
0.8082616994
 20
0.0374929747
 10
0.8082616994
 20
-0.0566166379
 10
0.8082616994
 20
-0.0566166379
 10
0.1454506392
 20
-0.0566166379
 10
0.1454506392
 20
-0.0566166379
 10
0.1454506392
 20
0.0374929747
 10
0.1454506392
 20
0.0374929747
 10
0.1976520649
 20
0.0374929747
 10
0.1976520649
 20
0.0374929747
 10
0.2325755539
 20
0.038228206
 10
0.2605143452
 20
0.0404339001
 10
0.2811008229
 20
0.0437424411
 10
0.2947026028
 20
0.0488890606
 10
0.3038929947
 20
0.0555061427
 10
0.3101424611
 20
0.0639613032
 10
0.3141862336
 20
0.0738869264
 10
0.3152890806
 20
0.085650628
 10
0.3152890806
 20
0.085650628
 10
0.3134510022
 20
0.1007228706
 10
0.3079367671
 20
0.1165303446
 10
0.3079367671
 20
0.1165303446
 10
0.3038929947
 20
0.1238826581
 10
0.2943349872
 20
0.1389549007
 10
0.2788951289
 20
0.1621146882
 10
0.2583086511
 20
0.1929944048
 10
0.2583086511
 20
0.1929944048
 10
-0.1372458141
 20
0.7150086619
 10
-0.1372458141
 20
0.7150086619
 10
-0.5798550856
 20
0.1804954719
 10
-0.5798550856
 20
0.1804954719
 10
-0.5975006379
 20
0.1562328374
 10
-0.6107348022
 20
0.1367492067
 10
-0.6199251941
 20
0.1227798111
 10
-0.6243365821
 20
0.1139570349
 10
-0.6243365821
 20
0.1139570349
 10
-0.6298508173
 20
0.0988847922
 10
-0.6316888956
 20
0.084547781
 10
-0.6316888956
 20
0.084547781
 10
-0.6298508173
 20
0.0724164637
 10
-0.6247041978
 20
0.0617556092
 10
-0.6158814216
 20
0.052932833
 10
-0.6033824887
 20
0.0459481352
 10
-0.6033824887
 20
0.0459481352
 10
-0.5908835558
 20
0.0422719784
 10
-0.5721351564
 20
0.0396986687
 10
-0.5467696749
 20
0.0378605904
 10
-0.5155223426
 20
0.0374929747
 10
-0.5155223426
 20
0.0374929747
 10
-0.4633209169
 20
0.0374929747
 10
-0.4633209169
 20
0.0374929747
 10
-0.4633209169
 20
-0.0566166379
 10
-0.4633209169
 20
-0.0566166379
 10
-1.0206262787
 20
-0.0566166379
 10
-1.0206262787
 20
-0.0566166379
 10
-1.0206262787
 20
0.0374929747
 10
-1.0206262787
 20
0.0374929747
 10
-0.9849675583
 20
0.038228206
 10
-0.9540878417
 20
0.0404339001
 10
-0.9287223602
 20
0.0437424411
 10
-0.9085034981
 20
0.0488890606
 10
-0.8728447778
 20
0.0646965346
 10
-0.8371860574
 20
0.0896944004
 10
-0.8180700423
 20
0.1073399527
 10
-0.7960131019
 20
0.1301321245
 10
-0.7721180831
 20
0.1588061471
 10
-0.7452821389
 20
0.1929944048
 10
-0.7452821389
 20
0.1929944048
 10
-0.2206945721
 20
0.8263962111
 10
-0.2206945721
 20
0.8263962111
 10
-0.6864636311
 20
1.441049618
 10
-0.6864636311
 20
1.441049618
 10
-0.7195490417
 20
1.4866339616
 10
-0.749693527
 20
1.5222926819
 10
-0.7765294712
 20
1.5487610105
 10
-0.8000568743
 20
1.5656713315
 10
-0.8254223558
 20
1.576332186
 10
-0.8574049195
 20
1.5840521152
 10
-0.8963721809
 20
1.5888311189
 10
-0.9419565245
 20
1.5903015816
 10
-0.9419565245
 20
1.5903015816
 10
-0.9419565245
 20
1.6844111942
  0
LWPOLYLINE
  5
6A
330
1F
100
AcDbEntity
  8
0
  6
Continuous
 62
     7
100
AcDbPolyline
 90
      190
 70
   128
 43
0.0
 10
2.0784468163
 20
-0.0566166379
 10
2.1152089436
 20
0.3198218123
 10
2.1152089436
 20
0.3198218123
 10
2.1648370596
 20
0.3440844468
 10
2.2115242502
 20
0.3705527753
 10
2.254535284
 20
0.3992267979
 10
2.2946053925
 20
0.4304741302
 10
2.3317345756
 20
0.4642947722
 10
2.3651876019
 20
0.5003211082
 10
2.3956997028
 20
0.5385531383
 10
2.4229032627
 20
0.5793584782
 10
2.4467982815
 20
0.622369512
 10
2.4677523749
 20
0.6675862399
 10
2.4853979273
 20
0.7153762775
 10
2.4997349386
 20
0.7653720092
 10
2.5111310245
 20
0.8179410506
 10
2.5192185693
 20
0.872715786
 10
2.5239975731
 20
0.9300638311
 10
2.5254680358
 20
0.9896175703
 10
2.5254680358
 20
0.9896175703
 10
2.5232623417
 20
1.0613026268
 10
2.5159100282
 20
1.1285762951
 10
2.5041463267
 20
1.1914385753
 10
2.4872360057
 20
1.2495218518
 10
2.4659142966
 20
1.3035613559
 10
2.439445968
 20
1.3528218562
 10
2.4085662514
 20
1.3973033528
 10
2.3725399154
 20
1.4377410769
 10
2.3332050383
 20
1.4733997973
 10
2.2909292358
 20
1.5046471296
 10
2.2464477392
 20
1.5307478424
 10
2.1997605486
 20
1.5520695515
 10
2.1501324326
 20
1.5689798725
 10
2.0982986226
 20
1.5807435741
 10
2.0438915028
 20
1.5880958876
 10
1.9869110734
 20
1.5903015816
 10
1.9869110734
 20
1.5903015816
 10
1.9222107147
 20
1.5873606562
 10
1.8611865129
 20
1.5785378801
 10
1.803470852
 20
1.5638332531
 10
1.7497989636
 20
1.5432467754
 10
1.6994356163
 20
1.5164108312
 10
1.6527484257
 20
1.4840606518
 10
1.6093697762
 20
1.4454610061
 10
1.5700348991
 20
1.4013471252
 10
1.5347437943
 20
1.3528218562
 10
1.5042316934
 20
1.3017232775
 10
1.4784985962
 20
1.2476837735
 10
1.4571768871
 20
1.190703344
 10
1.4410017975
 20
1.1311496048
 10
1.4292380959
 20
1.0690225559
 10
1.4218857824
 20
1.0039545816
 10
1.4196800884
 20
0.9359456819
 10
1.4196800884
 20
0.9359456819
 10
1.4211505511
 20
0.8830090249
 10
1.4262971705
 20
0.8322780619
 10
1.4340170997
 20
0.7833851772
 10
1.4454131856
 20
0.7363303709
 10
1.4597501969
 20
0.691113643
 10
1.4777633649
 20
0.6477349935
 10
1.4983498426
 20
0.606562038
 10
1.5226124771
 20
0.5672271609
 10
1.549816037
 20
0.5293627465
 10
1.5806957536
 20
0.4937040261
 10
1.6141487799
 20
0.4602509998
 10
1.651277963
 20
0.4282684361
 10
1.6913480715
 20
0.3981239509
 10
1.7350943367
 20
0.3701851596
 10
1.7814139116
 20
0.3440844468
 10
1.8314096433
 20
0.3198218123
 10
1.8314096433
 20
0.3198218123
 10
1.866700748
 20
-0.0566166379
 10
1.866700748
 20
-0.0566166379
 10
1.1608786539
 20
-0.0566166379
 10
1.1608786539
 20
-0.0566166379
 10
1.0197142351
 20
0.4187104286
 10
1.0197142351
 20
0.4187104286
 10
1.1373512508
 20
0.4609862311
 10
1.1373512508
 20
0.4609862311
 10
1.1564672658
 20
0.4128285778
 10
1.1766861279
 20
0.3679794656
 10
1.1976402213
 20
0.3268065101
 10
1.2196971617
 20
0.2889420957
 10
1.2421217179
 20
0.254753838
 10
1.265649121
 20
0.2238741214
 10
1.2899117555
 20
0.1966705615
 10
1.315277237
 20
0.1727755427
 10
1.3439512595
 20
0.152189065
 10
1.3792423642
 20
0.1341758969
 10
1.4211505511
 20
0.1191036543
 10
1.4693082044
 20
0.1066047214
 10
1.5237153241
 20
0.0970467139
 10
1.5843719103
 20
0.0900620161
 10
1.6516455787
 20
0.0860182437
 10
1.7255363292
 20
0.084547781
 10
1.7255363292
 20
0.084547781
 10
1.7108317022
 20
0.2021847966
 10
1.7108317022
 20
0.2021847966
 10
1.6317943323
 20
0.2404168267
 10
1.5593740445
 20
0.2797517038
 10
1.4932032232
 20
0.3194541966
 10
1.433649484
 20
0.3598919208
 10
1.3803452113
 20
0.4010648763
 10
1.3336580207
 20
0.4433406788
 10
1.2932202965
 20
0.485984097
 10
1.2593996545
 20
0.5293627465
 10
1.230725632
 20
0.5742118587
 10
1.2060953818
 20
0.6208990493
 10
1.1851412884
 20
0.6690567026
 10
1.1678633517
 20
0.7190524343
 10
1.1546291874
 20
0.7708862443
 10
1.1450711799
 20
0.8245581327
 10
1.1391893291
 20
0.8797004838
 10
1.1373512508
 20
0.9366809133
 10
1.1373512508
 20
0.9366809133
 10
1.1410274075
 20
1.0219677496
 10
1.1527911091
 20
1.1028431979
 10
1.1719071241
 20
1.1793072581
 10
1.199110684
 20
1.2517275459
 10
1.2336665573
 20
1.3193688299
 10
1.2759423599
 20
1.3829663415
 10
1.3263057072
 20
1.442152465
 10
1.384021368
 20
1.4969272004
 10
1.4476188796
 20
1.5465553164
 10
1.514892548
 20
1.5891987346
 10
1.585842373
 20
1.6255926863
 10
1.6608359705
 20
1.6553695559
 10
1.7391381091
 20
1.6781617277
 10
1.8214840201
 20
1.694704433
 10
1.9075060878
 20
1.7046300562
 10
1.9972043122
 20
1.7079385973
 10
1.9972043122
 20
1.7079385973
 10
2.0832263799
 20
1.7049976719
 10
2.1655722909
 20
1.6958072801
 10
2.2438744295
 20
1.6803674218
 10
2.3185004113
 20
1.6590457127
 10
2.3890826207
 20
1.6311069214
 10
2.4559886734
 20
1.5976538951
 10
2.5192185693
 20
1.5575837866
 10
2.5784046928
 20
1.5116318274
 10
2.6320765812
 20
1.4605332487
 10
2.6787637718
 20
1.4050232819
 10
2.7180986489
 20
1.3454695428
 10
2.7504488282
 20
1.2815044155
 10
2.7754466941
 20
1.2134955158
 10
2.7934598621
 20
1.141075228
 10
2.8041207166
 20
1.0646111678
 10
2.8077968734
 20
0.9837357195
 10
2.8077968734
 20
0.9837357195
 10
2.8055911793
 20
0.9153592042
 10
2.7989740972
 20
0.8499236142
 10
2.7875780113
 20
0.7866937183
 10
2.772138153
 20
0.7264047477
 10
2.7519192909
 20
0.6683214713
 10
2.7272890408
 20
0.6131791202
 10
2.6978797869
 20
0.5602424631
 10
2.6644267605
 20
0.5102467314
 10
2.6261947304
 20
0.4628243095
 10
2.5839189279
 20
0.4176075816
 10
2.5368641217
 20
0.3753317791
 10
2.4853979273
 20
0.3356292863
 10
2.4291527292
 20
0.2985001032
 10
2.3688637586
 20
0.2635766142
 10
2.3037957843
 20
0.2315940506
 10
2.234316422
 20
0.2021847966
 10
2.234316422
 20
0.2021847966
 10
2.219611795
 20
0.084547781
 10
2.219611795
 20
0.084547781
 10
2.2857826163
 20
0.085650628
 10
2.3464392025
 20
0.0893267847
 10
2.402316785
 20
0.0952086355
 10
2.4534153637
 20
0.1032961803
 10
2.4989997072
 20
0.1135894192
 10
2.5394374314
 20
0.1264559678
 10
2.5750961517
 20
0.1415282104
 10
2.6056082527
 20
0.1591737628
 10
2.6331794282
 20
0.1801278562
 10
2.6603829881
 20
0.206228569
 10
2.686483701
 20
0.23674067
 10
2.7122167981
 20
0.2720317747
 10
2.737214664
 20
0.3121018832
 10
2.7614772985
 20
0.3569509954
 10
2.7850047016
 20
0.4065791114
 10
2.8077968734
 20
0.4609862311
 10
2.8077968734
 20
0.4609862311
 10
2.9254338891
 20
0.4187104286
 10
2.9254338891
 20
0.4187104286
 10
2.7842694703
 20
-0.0566166379
 10
2.7842694703
 20
-0.0566166379
 10
2.0784473762
 20
-0.0566166379
  0
LWPOLYLINE
  5
6B
330
1F
100
AcDbEntity
  8
0
  6
Continuous
 62
     7
100
AcDbPolyline
 90
       29
 70
   128
 43
0.0
 10
-2.628008681
 20
-0.5241369299
 10
-2.6201439548
 20
-0.4376002002
 10
-2.6201439548
 20
-0.4376002002
 10
-2.6188940615
 20
-0.4276010539
 10
-2.61698246
 20
-0.4191458934
 10
-2.6143356272
 20
-0.4121611956
 10
-2.6111006092
 20
-0.4066469605
 10
-2.6073509294
 20
-0.4024561418
 10
-2.6033071569
 20
-0.3994416933
 10
-2.5990428151
 20
-0.397677138
 10
-2.5944108576
 20
-0.397088953
 10
-2.5944108576
 20
-0.397088953
 10
-2.5913964091
 20
-0.3973095224
 10
-2.5886760531
 20
-0.3980447537
 10
-2.5863968359
 20
-0.3992211239
 10
-2.5844852344
 20
-0.4008386328
 10
-2.5829412486
 20
-0.4028972806
 10
-2.5818384016
 20
-0.4054705903
 10
-2.5811766934
 20
-0.4084850389
 10
-2.580956124
 20
-0.4119406262
 10
-2.580956124
 20
-0.4119406262
 10
-2.5813237396
 20
-0.4166461068
 10
-2.5824265867
 20
-0.4223809113
 10
-2.584264665
 20
-0.4290715166
 10
-2.5868379748
 20
-0.4368649689
 10
-2.5868379748
 20
-0.4368649689
 10
-2.618599969
 20
-0.5241369299
 10
-2.618599969
 20
-0.5241369299
 10
-2.6280109302
 20
-0.5241369299
  0
LWPOLYLINE
  5
6C
330
1F
100
AcDbEntity
  8
0
  6
Continuous
 62
     7
100
AcDbPolyline
 90
       29
 70
   128
 43
0.0
 10
-2.7080032769
 20
-0.5241369299
 10
-2.7001371255
 20
-0.4376002002
 10
-2.7001371255
 20
-0.4376002002
 10
-2.6988872322
 20
-0.4276010539
 10
-2.6969756307
 20
-0.4191458934
 10
-2.6943287978
 20
-0.4121611956
 10
-2.6910937799
 20
-0.4066469605
 10
-2.6873441
 20
-0.4024561418
 10
-2.6833003276
 20
-0.3994416933
 10
-2.6790359858
 20
-0.397677138
 10
-2.6744040283
 20
-0.397088953
 10
-2.6744040283
 20
-0.397088953
 10
-2.6713895798
 20
-0.3973095224
 10
-2.6686692238
 20
-0.3980447537
 10
-2.6663900066
 20
-0.3992211239
 10
-2.6644784051
 20
-0.4008386328
 10
-2.6629344193
 20
-0.4028972806
 10
-2.6618315722
 20
-0.4054705903
 10
-2.661169864
 20
-0.4084850389
 10
-2.6609492946
 20
-0.4119406262
 10
-2.6609492946
 20
-0.4119406262
 10
-2.6613169103
 20
-0.4166461068
 10
-2.6624197573
 20
-0.4223809113
 10
-2.6643313588
 20
-0.4290715166
 10
-2.6669781917
 20
-0.4368649689
 10
-2.6669781917
 20
-0.4368649689
 10
-2.6985931396
 20
-0.5241369299
 10
-2.6985931396
 20
-0.5241369299
 10
-2.7080041009
 20
-0.5241369299
  0
LWPOLYLINE
  5
6D
330
1F
100
AcDbEntity
  8
0
  6
Continuous
 62
     7
100
AcDbPolyline
 90
      112
 70
   128
 43
0.0
 10
-2.2523809136
 20
-0.3923834723
 10
-2.2421615188
 20
-0.5003889574
 10
-2.2421615188
 20
-0.5003889574
 10
-2.2609834413
 20
-0.5053150074
 10
-2.2609834413
 20
-0.5053150074
 10
-2.264071413
 20
-0.4906839036
 10
-2.2679681391
 20
-0.477817355
 10
-2.2725265735
 20
-0.4666418385
 10
-2.2778202392
 20
-0.4573044004
 10
-2.28370209
 20
-0.4494374249
 10
-2.290245649
 20
-0.4426732965
 10
-2.2973038699
 20
-0.4371590614
 10
-2.3049502759
 20
-0.4328211965
 10
-2.3092146178
 20
-0.4310566412
 10
-2.3139200984
 20
-0.4295126554
 10
-2.3192137641
 20
-0.4282627621
 10
-2.3250220917
 20
-0.4271599151
 10
-2.3314186045
 20
-0.4263511606
 10
-2.338256256
 20
-0.4257629755
 10
-2.3456820926
 20
-0.425468883
 10
-2.3536225912
 20
-0.4253218367
 10
-2.3536225912
 20
-0.4253218367
 10
-2.3572987479
 20
-0.425468883
 10
-2.3602396733
 20
-0.4259835449
 10
-2.3626659368
 20
-0.4267922994
 10
-2.3643569689
 20
-0.4278951464
 10
-2.3656803853
 20
-0.4295861785
 10
-2.3669302786
 20
-0.4321594883
 10
-2.3680331256
 20
-0.4356150756
 10
-2.3690624495
 20
-0.4399529406
 10
-2.3690624495
 20
-0.4399529406
 10
-2.4281750499
 20
-0.6972103892
 10
-2.4281750499
 20
-0.6972103892
 10
-2.4296455126
 20
-0.7057390729
 10
-2.4301601745
 20
-0.7126502475
 10
-2.4301601745
 20
-0.7126502475
 10
-2.4292778969
 20
-0.7185320983
 10
-2.4265575409
 20
-0.7236051946
 10
-2.4222931991
 20
-0.7275019208
 10
-2.4166319177
 20
-0.7297811379
 10
-2.4125881453
 20
-0.730369323
 10
-2.4067062945
 20
-0.7308104618
 10
-2.3991334116
 20
-0.7311045544
 10
-2.3897224504
 20
-0.7311780775
 10
-2.3897224504
 20
-0.7311780775
 10
-2.3942073616
 20
-0.75
 10
-2.3942073616
 20
-0.75
 10
-2.5292693602
 20
-0.75
 10
-2.5292693602
 20
-0.75
 10
-2.5243433102
 20
-0.7311780775
 10
-2.5243433102
 20
-0.7311780775
 10
-2.5161087191
 20
-0.7309575081
 10
-2.508976975
 20
-0.7305898924
 10
-2.5030951242
 20
-0.7301487536
 10
-2.4983161205
 20
-0.7295605685
 10
-2.4943458712
 20
-0.728751814
 10
-2.4908167607
 20
-0.727648967
 10
-2.4878023122
 20
-0.7263255506
 10
-2.4853025256
 20
-0.7247080416
 10
-2.4810381838
 20
-0.7203701767
 10
-2.4776561196
 20
-0.714561849
 10
-2.4776561196
 20
-0.714561849
 10
-2.4754504255
 20
-0.7093417065
 10
-2.4736123472
 20
-0.704709749
 10
-2.4723624539
 20
-0.7007394997
 10
-2.4714801763
 20
-0.6973574355
 10
-2.4714801763
 20
-0.6973574355
 10
-2.4131763304
 20
-0.4437761436
 10
-2.4131763304
 20
-0.4437761436
 10
-2.4123675759
 20
-0.4400264637
 10
-2.4118529139
 20
-0.4367179226
 10
-2.4114852983
 20
-0.4339975666
 10
-2.4114117751
 20
-0.4317918726
 10
-2.4114117751
 20
-0.4317918726
 10
-2.4121470065
 20
-0.4288509472
 10
-2.4142791774
 20
-0.4268658226
 10
-2.4161907789
 20
-0.4262041143
 10
-2.418984658
 20
-0.4256894524
 10
-2.4226608147
 20
-0.4253953599
 10
-2.4272927722
 20
-0.4253218367
 10
-2.4272927722
 20
-0.4253218367
 10
-2.4389094275
 20
-0.4258364987
 10
-2.4496438052
 20
-0.4273069614
 10
-2.4594959053
 20
-0.4298802711
 10
-2.4684657277
 20
-0.4334093816
 10
-2.4769944114
 20
-0.4381883853
 10
-2.4857436644
 20
-0.4445113749
 10
-2.4945664406
 20
-0.4523783503
 10
-2.503536263
 20
-0.4617157885
 10
-2.503536263
 20
-0.4617157885
 10
-2.5065507116
 20
-0.4652448989
 10
-2.5097857295
 20
-0.4692886713
 10
-2.5132413168
 20
-0.4738471057
 10
-2.5169174736
 20
-0.4790672483
 10
-2.5208141997
 20
-0.4848020528
 10
-2.5249314953
 20
-0.4910515192
 10
-2.5293428833
 20
-0.4978891708
 10
-2.5339013177
 20
-0.5053150074
 10
-2.5339013177
 20
-0.5053150074
 10
-2.5527232402
 20
-0.4934042596
 10
-2.5527232402
 20
-0.4934042596
 10
-2.4961104264
 20
-0.3923834723
 10
-2.4961104264
 20
-0.3923834723
 10
-2.4819939845
 20
-0.3923834723
 10
-2.4819939845
 20
-0.3923834723
 10
-2.4819939845
 20
-0.4017944336
 10
-2.4819939845
 20
-0.4017944336
 10
-2.2819375347
 20
-0.4017944336
 10
-2.2819375347
 20
-0.4017944336
 10
-2.2664976764
 20
-0.3923834723
 10
-2.2664976764
 20
-0.3923834723
 10
-2.2523812346
 20
-0.3923834723
  0
LWPOLYLINE
  5
6E
330
1F
100
AcDbEntity
  8
0
  6
Continuous
 62
     7
100
AcDbPolyline
 90
       80
 70
   128
 43
0.0
 10
-2.1177600688
 20
-0.5053150074
 10
-2.1074671359
 20
-0.5057561462
 10
-2.0976150358
 20
-0.5070060395
 10
-2.0882775977
 20
-0.5091382104
 10
-2.0793077752
 20
-0.5120791358
 10
-2.0709261379
 20
-0.5159758619
 10
-2.0629121162
 20
-0.5206078194
 10
-2.0554127564
 20
-0.5261220545
 10
-2.0483545355
 20
-0.5325185673
 10
-2.0419580228
 20
-0.5395767882
 10
-2.0363702645
 20
-0.5470026248
 10
-2.0316647839
 20
-0.5549431234
 10
-2.0278415809
 20
-0.5633247607
 10
-2.0248271324
 20
-0.5721475369
 10
-2.0226949614
 20
-0.5814114519
 10
-2.0214450682
 20
-0.5911900288
 10
-2.0210039293
 20
-0.6013362214
 10
-2.0210039293
 20
-0.6013362214
 10
-2.0212980219
 20
-0.6117029834
 10
-2.0222538226
 20
-0.6219226992
 10
-2.0237242853
 20
-0.6319953686
 10
-2.0258564562
 20
-0.6419209918
 10
-2.0286503354
 20
-0.6516995688
 10
-2.0319588764
 20
-0.6612575763
 10
-2.0359291257
 20
-0.6707420607
 10
-2.0404875601
 20
-0.6800059757
 10
-2.0455606564
 20
-0.688902275
 10
-2.0510013683
 20
-0.6972839123
 10
-2.056809696
 20
-0.7050773646
 10
-2.0629121162
 20
-0.7122826318
 10
-2.0695291983
 20
-0.7189732371
 10
-2.076440373
 20
-0.7251491804
 10
-2.0837191633
 20
-0.7307369387
 10
-2.0913655693
 20
-0.7357365118
 10
-2.0993060679
 20
-0.7401478999
 10
-2.1074671359
 20
-0.7440446261
 10
-2.1158487732
 20
-0.747279644
 10
-2.1243774569
 20
-0.7499264769
 10
-2.133200233
 20
-0.7520586478
 10
-2.1421700555
 20
-0.7535291105
 10
-2.1512869242
 20
-0.7544113881
 10
-2.1606978855
 20
-0.7547054806
 10
-2.1606978855
 20
-0.7547054806
 10
-2.1759171744
 20
-0.7539702493
 10
-2.1897395237
 20
-0.7518380784
 10
-2.2023119798
 20
-0.7482354448
 10
-2.2134874962
 20
-0.7431623485
 10
-2.2234866426
 20
-0.7366187895
 10
-2.2325299882
 20
-0.7285312446
 10
-2.240617533
 20
-0.7189732371
 10
-2.2477492771
 20
-0.7079447669
 10
-2.2535576047
 20
-0.6958134497
 10
-2.2576749003
 20
-0.6832409936
 10
-2.2601746868
 20
-0.6700803525
 10
-2.2609834413
 20
-0.6564785725
 10
-2.2609834413
 20
-0.6564785725
 10
-2.2606893488
 20
-0.6466264725
 10
-2.259733548
 20
-0.6368478955
 10
-2.2581160391
 20
-0.6272163649
 10
-2.255910345
 20
-0.6175848342
 10
-2.2531164659
 20
-0.608173873
 10
-2.2495873554
 20
-0.5987629117
 10
-2.2454700599
 20
-0.5894989967
 10
-2.2407645793
 20
-0.5803086049
 10
-2.2355444367
 20
-0.5714123056
 10
-2.2298831553
 20
-0.5631041913
 10
-2.2239277814
 20
-0.5553107391
 10
-2.2175312687
 20
-0.5480319487
 10
-2.2107671403
 20
-0.5413413434
 10
-2.2036353962
 20
-0.5351654001
 10
-2.1961360364
 20
-0.5295776419
 10
-2.188269061
 20
-0.5245045456
 10
-2.180107993
 20
-0.5200196343
 10
-2.1717263557
 20
-0.5161229082
 10
-2.163197672
 20
-0.5128143671
 10
-2.1545219421
 20
-0.5100940112
 10
-2.1456256428
 20
-0.5080353634
 10
-2.1365087741
 20
-0.5064913775
 10
-2.1272448591
 20
-0.5056090999
 10
-2.1177603747
 20
-0.5053150074
  0
LWPOLYLINE
  5
6F
330
1F
100
AcDbEntity
  8
0
  6
Continuous
 62
     7
100
AcDbPolyline
 90
       64
 70
   128
 43
0.0
 10
-2.1192302385
 20
-0.5288424105
 10
-2.1314356778
 20
-0.5297982113
 10
-2.1432729025
 20
-0.5325920904
 10
-2.1547425115
 20
-0.5372240479
 10
-2.1658445049
 20
-0.5437676069
 10
-2.1712116937
 20
-0.5477378562
 10
-2.1763583132
 20
-0.5522962905
 10
-2.1812843632
 20
-0.55744291
 10
-2.186063367
 20
-0.5631041913
 10
-2.1906218013
 20
-0.5694271809
 10
-2.1949596663
 20
-0.5761913093
 10
-2.199150485
 20
-0.583617146
 10
-2.2031207342
 20
-0.5915576445
 10
-2.2098848626
 20
-0.6082473961
 10
-2.2147373895
 20
-0.6253782865
 10
-2.2176783149
 20
-0.6430238389
 10
-2.2186341157
 20
-0.66111053
 10
-2.2186341157
 20
-0.66111053
 10
-2.2184135463
 20
-0.6683893204
 10
-2.2176783149
 20
-0.6753740182
 10
-2.2165754679
 20
-0.6820646234
 10
-2.2148844358
 20
-0.6884611362
 10
-2.212825788
 20
-0.6945635564
 10
-2.2102524783
 20
-0.700371884
 10
-2.2072380298
 20
-0.705812596
 10
-2.2037824425
 20
-0.7110327386
 10
-2.1998121932
 20
-0.7157382192
 10
-2.1954743282
 20
-0.7198555147
 10
-2.1906953245
 20
-0.7233111021
 10
-2.185548705
 20
-0.7261049812
 10
-2.1799609468
 20
-0.7283106752
 10
-2.1739320497
 20
-0.7299281842
 10
-2.167535537
 20
-0.730883985
 10
-2.1606978855
 20
-0.7311780775
 10
-2.1606978855
 20
-0.7311780775
 10
-2.1490812302
 20
-0.7302222767
 10
-2.1376851443
 20
-0.7274283976
 10
-2.1267301972
 20
-0.7227964401
 10
-2.1159958195
 20
-0.7163264043
 10
-2.1107756769
 20
-0.7122826318
 10
-2.1057761038
 20
-0.7076506744
 10
-2.1009235769
 20
-0.7024305318
 10
-2.0962180962
 20
-0.6966222041
 10
-2.091733185
 20
-0.6902256914
 10
-2.0873953201
 20
-0.6832409936
 10
-2.0832045014
 20
-0.6756681107
 10
-2.079160729
 20
-0.6675070428
 10
-2.0722495543
 20
-0.6504496755
 10
-2.0673235043
 20
-0.6333923082
 10
-2.0643090557
 20
-0.6161878947
 10
-2.063353255
 20
-0.598909958
 10
-2.063353255
 20
-0.598909958
 10
-2.0637943938
 20
-0.5886167191
 10
-2.0652648565
 20
-0.5789116653
 10
-2.0676175968
 20
-0.5697212735
 10
-2.070999661
 20
-0.5611925898
 10
-2.0751169566
 20
-0.5533991375
 10
-2.0798959603
 20
-0.5467820554
 10
-2.0853366723
 20
-0.5411942972
 10
-2.0913655693
 20
-0.5367093859
 10
-2.0978356052
 20
-0.5332537986
 10
-2.1046732567
 20
-0.5308275352
 10
-2.1118050008
 20
-0.5293570725
 10
-2.1192308374
 20
-0.5288424105
  0
LWPOLYLINE
  5
70
330
1F
100
AcDbEntity
  8
0
  6
Continuous
 62
     7
100
AcDbPolyline
 90
      155
 70
   128
 43
0.0
 10
-1.7291166651
 20
-0.5053150074
 10
-1.7825684032
 20
-0.7397067611
 10
-1.7825684032
 20
-0.7397067611
 10
-1.7850681898
 20
-0.7508822776
 10
-1.7877885458
 20
-0.761469609
 10
-1.7908765174
 20
-0.7713952322
 10
-1.7941850585
 20
-0.7807326703
 10
-1.7977876921
 20
-0.7894084003
 10
-1.8016844182
 20
-0.7974959451
 10
-1.8058017138
 20
-0.8049953048
 10
-1.810286625
 20
-0.8118329564
 10
-1.8201387251
 20
-0.824184843
 10
-1.8313142416
 20
-0.8351397901
 10
-1.8437396513
 20
-0.8446242745
 10
-1.8575620007
 20
-0.8527853424
 10
-1.8724871971
 20
-0.8592553783
 10
-1.888294671
 20
-0.8638873358
 10
-1.9050579458
 20
-0.8666812149
 10
-1.9227034981
 20
-0.8676370157
 10
-1.9227034981
 20
-0.8676370157
 10
-1.9321144594
 20
-0.8673429231
 10
-1.9410107587
 20
-0.8665341687
 10
-1.9494659192
 20
-0.8652107522
 10
-1.9573328946
 20
-0.8633726739
 10
-1.9647587312
 20
-0.8609464104
 10
-1.971743429
 20
-0.858005485
 10
-1.9781399418
 20
-0.8545498977
 10
-1.9840953157
 20
-0.8505796484
 10
-1.9894625045
 20
-0.8463153066
 10
-1.994094462
 20
-0.8419774416
 10
-1.9979911882
 20
-0.8376395767
 10
-2.0011526829
 20
-0.8332281886
 10
-2.0036524695
 20
-0.8288903236
 10
-2.0054905479
 20
-0.8244054124
 10
-2.0065198718
 20
-0.8199205012
 10
-2.0068874875
 20
-0.81543559
 10
-2.0068874875
 20
-0.81543559
 10
-2.0065198718
 20
-0.8108771556
 10
-2.0054170248
 20
-0.8066863369
 10
-2.0036524695
 20
-0.8027896108
 10
-2.0010791598
 20
-0.7991869772
 10
-1.9980647113
 20
-0.7961725287
 10
-1.9948296934
 20
-0.7940403577
 10
-1.9914476292
 20
-0.7927904645
 10
-1.9878449956
 20
-0.7923493256
 10
-1.9878449956
 20
-0.7923493256
 10
-1.9830659918
 20
-0.7928639876
 10
-1.9785810806
 20
-0.7945550197
 10
-1.9739491231
 20
-0.7974224219
 10
-1.969023073
 20
-0.8017602869
 10
-1.969023073
 20
-0.8017602869
 10
-1.9668909021
 20
-0.8041865503
 10
-1.9642440693
 20
-0.8077156608
 10
-1.9610090513
 20
-0.8122740952
 10
-1.9571858483
 20
-0.8179353766
 10
-1.9571858483
 20
-0.8179353766
 10
-1.9535096916
 20
-0.8235231348
 10
-1.9502746737
 20
-0.828008046
 10
-1.947701364
 20
-0.831243064
 10
-1.945569193
 20
-0.8333017117
 10
-1.945569193
 20
-0.8333017117
 10
-1.939025634
 20
-0.8378601461
 10
-1.931379228
 20
-0.8413157334
 10
-1.9228505444
 20
-0.8433743812
 10
-1.9137336757
 20
-0.8441096125
 10
-1.9137336757
 20
-0.8441096125
 10
-1.9035874831
 20
-0.8433743812
 10
-1.8935883367
 20
-0.8411686872
 10
-1.8838832829
 20
-0.8375660535
 10
-1.8743252754
 20
-0.8324929572
 10
-1.8652084067
 20
-0.8260229214
 10
-1.8567532462
 20
-0.818155946
 10
-1.8490333171
 20
-0.8089655541
 10
-1.8419750961
 20
-0.7984517458
 10
-1.838666555
 20
-0.7924963719
 10
-1.8355050602
 20
-0.7859528129
 10
-1.8324906117
 20
-0.7788210688
 10
-1.8296232095
 20
-0.7710276166
 10
-1.8269028535
 20
-0.7625724561
 10
-1.8243295438
 20
-0.7535291105
 10
-1.8219032803
 20
-0.7438975798
 10
-1.8196240631
 20
-0.7336043409
 10
-1.8196240631
 20
-0.7336043409
 10
-1.8083750235
 20
-0.6811823458
 10
-1.8083750235
 20
-0.6811823458
 10
-1.8138157355
 20
-0.6902256914
 10
-1.8192564475
 20
-0.6983132362
 10
-1.8246236363
 20
-0.7055185034
 10
-1.8299908251
 20
-0.7117679699
 10
-1.8299908251
 20
-0.7117679699
 10
-1.8402105409
 20
-0.7217671162
 10
-1.8507243492
 20
-0.7304428461
 10
-1.86153225
 20
-0.7378686828
 10
-1.8725607202
 20
-0.7438975798
 10
-1.8836627135
 20
-0.7486030604
 10
-1.8944706144
 20
-0.7519851246
 10
-1.9051314689
 20
-0.7540437724
 10
-1.915571754
 20
-0.7547054806
 10
-1.915571754
 20
-0.7547054806
 10
-1.9232916832
 20
-0.754337865
 10
-1.9305704735
 20
-0.7533085411
 10
-1.9374816482
 20
-0.751617509
 10
-1.9440252072
 20
-0.7491912455
 10
-1.9501276274
 20
-0.746176797
 10
-1.9558624319
 20
-0.742353594
 10
-1.9612296208
 20
-0.7379422059
 10
-1.9661556708
 20
-0.7327955865
 10
-1.9661556708
 20
-0.7327955865
 10
-1.9713022902
 20
-0.7263255506
 10
-1.9757136783
 20
-0.7193408528
 10
-1.9795368813
 20
-0.7119885393
 10
-1.9825513298
 20
-0.7041215639
 10
-1.9849775933
 20
-0.6958869728
 10
-1.9866686254
 20
-0.6872112429
 10
-1.9876979493
 20
-0.6780943742
 10
-1.988065565
 20
-0.6685363666
 10
-1.988065565
 20
-0.6685363666
 10
-1.9877714724
 20
-0.6580225584
 10
-1.9868156717
 20
-0.6475087501
 10
-1.9851981627
 20
-0.6371419881
 10
-1.9829189455
 20
-0.6269222723
 10
-1.9800515433
 20
-0.6167025566
 10
-1.9765224328
 20
-0.6066298871
 10
-1.9723316141
 20
-0.5966307408
 10
-1.9675526103
 20
-0.5867051176
 10
-1.9622589446
 20
-0.577073587
 10
-1.9565241401
 20
-0.5681037645
 10
-1.9504217199
 20
-0.559648604
 10
-1.9439516841
 20
-0.5517816286
 10
-1.9371140325
 20
-0.5445763614
 10
-1.9299087653
 20
-0.5378857561
 10
-1.9223358824
 20
-0.5317833359
 10
-1.9143218608
 20
-0.5262691008
 10
-1.9060872697
 20
-0.5213430508
 10
-1.8977791554
 20
-0.517078709
 10
-1.8893975181
 20
-0.5134760754
 10
-1.8809423576
 20
-0.51053515
 10
-1.8724136739
 20
-0.5082559328
 10
-1.863737944
 20
-0.5066384238
 10
-1.8550622141
 20
-0.5056090999
 10
-1.8462394379
 20
-0.5053150074
 10
-1.8462394379
 20
-0.5053150074
 10
-1.8311671953
 20
-0.5062708081
 10
-1.8163155221
 20
-0.5092117335
 10
-1.8022726033
 20
-0.5139172142
 10
-1.7897736704
 20
-0.5201666806
 10
-1.7897736704
 20
-0.5201666806
 10
-1.7852887592
 20
-0.523107606
 10
-1.780803848
 20
-0.5267102396
 10
-1.7763924599
 20
-0.5310481046
 10
-1.7719810718
 20
-0.5359741546
 10
-1.7719810718
 20
-0.5359741546
 10
-1.7601438471
 20
-0.5053150074
 10
-1.7601438471
 20
-0.5053150074
 10
-1.7291170842
 20
-0.5053150074
  0
LWPOLYLINE
  5
71
330
1F
100
AcDbEntity
  8
0
  6
Continuous
 62
     7
100
AcDbPolyline
 90
       57
 70
   128
 43
0.0
 10
-1.7788912368
 20
-0.5551636928
 10
-1.7860975137
 20
-0.5489142263
 10
-1.793376304
 20
-0.5435470375
 10
-1.8007286175
 20
-0.5390621263
 10
-1.8081544541
 20
-0.5353859695
 10
-1.8155802907
 20
-0.5325185673
 10
-1.8231531736
 20
-0.5304599195
 10
-1.8307260565
 20
-0.5292835493
 10
-1.8383724625
 20
-0.5288424105
 10
-1.8383724625
 20
-0.5288424105
 10
-1.8505773029
 20
-0.5299452575
 10
-1.8627086201
 20
-0.5331802755
 10
-1.8749134605
 20
-0.5386209875
 10
-1.8871183009
 20
-0.5461938703
 10
-1.8930736748
 20
-0.5508258278
 10
-1.8988820024
 20
-0.5560459704
 10
-1.9043962376
 20
-0.5618542981
 10
-1.9096899033
 20
-0.5682508108
 10
-1.9147629996
 20
-0.5752355086
 10
-1.9196155265
 20
-0.5828083915
 10
-1.9242474839
 20
-0.5909694594
 10
-1.928658872
 20
-0.5997187125
 10
-1.9360847087
 20
-0.6178789268
 10
-1.9414518975
 20
-0.6363332336
 10
-1.9446133923
 20
-0.6549345867
 10
-1.9457162393
 20
-0.6738300323
 10
-1.9457162393
 20
-0.6738300323
 10
-1.944981008
 20
-0.6854466876
 10
-1.9428488371
 20
-0.6957399265
 10
-1.9392462034
 20
-0.7047832721
 10
-1.9342466303
 20
-0.7124296781
 10
-1.9282177332
 20
-0.7186056214
 10
-1.9216006511
 20
-0.7229434864
 10
-1.9143953839
 20
-0.7255903192
 10
-1.9066754547
 20
-0.7264725969
 10
-1.9066754547
 20
-0.7264725969
 10
-1.8963822159
 20
-0.7255903192
 10
-1.886088977
 20
-0.7229434864
 10
-1.8759427844
 20
-0.7186056214
 10
-1.8658701149
 20
-0.7124296781
 10
-1.8658701149
 20
-0.7124296781
 10
-1.8584442783
 20
-0.7067683967
 10
-1.8513125342
 20
-0.7006659766
 10
-1.8444748827
 20
-0.6940488944
 10
-1.8379313237
 20
-0.6869171503
 10
-1.8316083341
 20
-0.6793442675
 10
-1.825579437
 20
-0.6712567226
 10
-1.8198446325
 20
-0.662728039
 10
-1.8144039206
 20
-0.6536846934
 10
-1.809183778
 20
-0.6439796396
 10
-1.8041842048
 20
-0.6335393545
 10
-1.7994052011
 20
-0.622363838
 10
-1.7948467667
 20
-0.6104530902
 10
-1.7905089018
 20
-0.5977335878
 10
-1.7863916062
 20
-0.5842788542
 10
-1.7825684032
 20
-0.5700888891
 10
-1.7788922465
 20
-0.5551636928
  0
LWPOLYLINE
  5
72
330
1F
100
AcDbEntity
  8
0
  6
Continuous
 62
     7
100
AcDbPolyline
 90
      122
 70
   128
 43
0.0
 10
-1.4892842357
 20
-0.6794177906
 10
-1.4751681766
 20
-0.6935342325
 10
-1.4751681766
 20
-0.6935342325
 10
-1.49119622
 20
-0.7077977206
 10
-1.5074448328
 20
-0.7202231304
 10
-1.5241345844
 20
-0.7307369387
 10
-1.5410449054
 20
-0.7393391455
 10
-1.5580287495
 20
-0.7460297507
 10
-1.5748655474
 20
-0.7508822776
 10
-1.5914817759
 20
-0.7537496799
 10
-1.607950958
 20
-0.7547054806
 10
-1.607950958
 20
-0.7547054806
 10
-1.6186853357
 20
-0.7542643418
 10
-1.6288315283
 20
-0.7530144485
 10
-1.6385365821
 20
-0.7509558008
 10
-1.6476534508
 20
-0.7480883985
 10
-1.6562556576
 20
-0.7443387186
 10
-1.6642696793
 20
-0.7397802843
 10
-1.6718425622
 20
-0.7344130954
 10
-1.67882726
 20
-0.7282371521
 10
-1.6851502496
 20
-0.7213259774
 10
-1.6905909616
 20
-0.7139001408
 10
-1.6952229191
 20
-0.7059596423
 10
-1.6989725989
 20
-0.6974309586
 10
-1.7019870475
 20
-0.688387613
 10
-1.7040456952
 20
-0.6787560824
 10
-1.7052955885
 20
-0.6686098898
 10
-1.7057367273
 20
-0.6579490352
 10
-1.7057367273
 20
-0.6579490352
 10
-1.7053691117
 20
-0.6482439814
 10
-1.7043397878
 20
-0.6386124508
 10
-1.7026487557
 20
-0.6291279664
 10
-1.7002224922
 20
-0.6197905283
 10
-1.6971345206
 20
-0.6105266133
 10
-1.6933113175
 20
-0.6014097446
 10
-1.6888264063
 20
-0.5924399221
 10
-1.6836797869
 20
-0.5835436228
 10
-1.6778714592
 20
-0.574941416
 10
-1.6715484696
 20
-0.5667068249
 10
-1.6647108181
 20
-0.5589868958
 10
-1.6572114584
 20
-0.5516345823
 10
-1.6492709598
 20
-0.5447969308
 10
-1.6407422762
 20
-0.5383268949
 10
-1.6316989306
 20
-0.532371521
 10
-1.6220673999
 20
-0.5267837628
 10
-1.6120682536
 20
-0.5217841896
 10
-1.601922061
 20
-0.5173728015
 10
-1.5916288221
 20
-0.5136966448
 10
-1.5811150138
 20
-0.5106821962
 10
-1.5704541593
 20
-0.5083294559
 10
-1.5595727353
 20
-0.5066384238
 10
-1.5485442651
 20
-0.5056826231
 10
-1.5373687486
 20
-0.5053150074
 10
-1.5373687486
 20
-0.5053150074
 10
-1.5286194956
 20
-0.5055355768
 10
-1.5203849045
 20
-0.5063443313
 10
-1.5126649753
 20
-0.5075942246
 10
-1.505386185
 20
-0.5094323029
 10
-1.4986220566
 20
-0.5117115201
 10
-1.4923725901
 20
-0.5145053992
 10
-1.4865642625
 20
-0.5178874634
 10
-1.4812705968
 20
-0.5217106665
 10
-1.4765651162
 20
-0.5259014851
 10
-1.4724478206
 20
-0.5302393501
 10
-1.4689187101
 20
-0.5347977844
 10
-1.466124831
 20
-0.5395032651
 10
-1.463919137
 20
-0.5444293151
 10
-1.462301628
 20
-0.5495759345
 10
-1.4613458273
 20
-0.5548696002
 10
-1.4610517347
 20
-0.5603103122
 10
-1.4610517347
 20
-0.5603103122
 10
-1.4616399198
 20
-0.5669273944
 10
-1.4633309519
 20
-0.5737650459
 10
-1.466124831
 20
-0.5807497437
 10
-1.4700950803
 20
-0.5878814878
 10
-1.475388746
 20
-0.5950132318
 10
-1.4822263975
 20
-0.6018508834
 10
-1.4906080349
 20
-0.6084679655
 10
-1.5005336581
 20
-0.6147909551
 10
-1.5061949395
 20
-0.6178054036
 10
-1.5124444059
 20
-0.6206728059
 10
-1.5192820575
 20
-0.623466685
 10
-1.5267078941
 20
-0.6261135179
 10
-1.5347219158
 20
-0.6286133044
 10
-1.5433976457
 20
-0.6309660448
 10
-1.5525880375
 20
-0.6332452619
 10
-1.5624401376
 20
-0.6353774328
 10
-1.5728804227
 20
-0.6373625575
 10
-1.5838353698
 20
-0.6391271127
 10
-1.5954520251
 20
-0.6407446217
 10
-1.6075833424
 20
-0.6422150844
 10
-1.6203763678
 20
-0.6435385008
 10
-1.6336840552
 20
-0.644714871
 10
-1.6475799277
 20
-0.6456706717
 10
-1.6620639853
 20
-0.6464794262
 10
-1.6620639853
 20
-0.6464794262
 10
-1.6626521703
 20
-0.6508908143
 10
-1.663019786
 20
-0.6546404942
 10
-1.6633138785
 20
-0.6579490352
 10
-1.6633874017
 20
-0.6605958681
 10
-1.6633874017
 20
-0.6605958681
 10
-1.6628727397
 20
-0.6697862599
 10
-1.6612552308
 20
-0.6783884667
 10
-1.6585348748
 20
-0.6866230578
 10
-1.6547851949
 20
-0.6942694638
 10
-1.6500061912
 20
-0.7012541616
 10
-1.6442713866
 20
-0.7075036281
 10
-1.6377278276
 20
-0.7130178632
 10
-1.6302284679
 20
-0.717796867
 10
-1.6221409231
 20
-0.72162007
 10
-1.613906332
 20
-0.7242669028
 10
-1.6055246946
 20
-0.7259579349
 10
-1.596996011
 20
-0.7264725969
 10
-1.596996011
 20
-0.7264725969
 10
-1.5855264019
 20
-0.7257373655
 10
-1.5731745153
 20
-0.7234581483
 10
-1.559940351
 20
-0.7197084685
 10
-1.545750386
 20
-0.7144883259
 10
-1.5311928053
 20
-0.7077977206
 10
-1.5169293172
 20
-0.6997101758
 10
-1.5029599216
 20
-0.6902256914
 10
-1.4892846185
 20
-0.6794177906
  0
LWPOLYLINE
  5
73
330
1F
100
AcDbEntity
  8
0
  6
Continuous
 62
     7
100
AcDbPolyline
 90
       44
 70
   128
 43
0.0
 10
-1.6589756087
 20
-0.6229520231
 10
-1.6446390023
 20
-0.6214815604
 10
-1.6313313149
 20
-0.6200110977
 10
-1.6190529514
 20
-0.618540635
 10
-1.6078039118
 20
-0.6170701723
 10
-1.597584196
 20
-0.6155997096
 10
-1.5883202811
 20
-0.61420277
 10
-1.5801592131
 20
-0.6127323073
 10
-1.5729539459
 20
-0.6113353678
 10
-1.5729539459
 20
-0.6113353678
 10
-1.562660707
 20
-0.6089826275
 10
-1.5532497458
 20
-0.6064828409
 10
-1.544647539
 20
-0.603836008
 10
-1.5368540867
 20
-0.601115652
 10
-1.5300164352
 20
-0.5982482498
 10
-1.5239875381
 20
-0.5952338012
 10
-1.5187673955
 20
-0.5921458296
 10
-1.5144295306
 20
-0.5889108117
 10
-1.5075183559
 20
-0.5821466833
 10
-1.5025923059
 20
-0.5751619854
 10
-1.4996513805
 20
-0.567809672
 10
-1.4986955797
 20
-0.5601632659
 10
-1.4986955797
 20
-0.5601632659
 10
-1.4994308111
 20
-0.5537667532
 10
-1.5016365051
 20
-0.5479584256
 10
-1.5052391387
 20
-0.5426647599
 10
-1.5103857582
 20
-0.5378857561
 10
-1.5167822709
 20
-0.5339155068
 10
-1.5244286769
 20
-0.5311216277
 10
-1.5333249762
 20
-0.5294305956
 10
-1.5433976457
 20
-0.5288424105
 10
-1.5433976457
 20
-0.5288424105
 10
-1.5547937316
 20
-0.5295776419
 10
-1.5665574332
 20
-0.5318568591
 10
-1.5786152273
 20
-0.5356800621
 10
-1.591040637
 20
-0.5409737278
 10
-1.6030984311
 20
-0.5475172868
 10
-1.6142004245
 20
-0.5552372159
 10
-1.6244201402
 20
-0.563986469
 10
-1.6336105321
 20
-0.5739120922
 10
-1.6417716001
 20
-0.5847935161
 10
-1.6486827747
 20
-0.5965572177
 10
-1.6544175792
 20
-0.60927672
 10
-1.6589760136
 20
-0.6229520231
  0
LWPOLYLINE
  5
74
330
1F
100
AcDbEntity
  8
0
  6
Continuous
 62
     7
100
AcDbPolyline
 90
       89
 70
   128
 43
0.0
 10
-1.3165786041
 20
-0.4206163561
 10
-1.3352536511
 20
-0.5053150074
 10
-1.3352536511
 20
-0.5053150074
 10
-1.2775379903
 20
-0.5053150074
 10
-1.2775379903
 20
-0.5053150074
 10
-1.2826846097
 20
-0.5288424105
 10
-1.2826846097
 20
-0.5288424105
 10
-1.3419442563
 20
-0.5288424105
 10
-1.3419442563
 20
-0.5288424105
 10
-1.3740738663
 20
-0.6813293921
 10
-1.3740738663
 20
-0.6813293921
 10
-1.3758384215
 20
-0.6897845526
 10
-1.3770883148
 20
-0.6968427735
 10
-1.3778970693
 20
-0.7026511012
 10
-1.3781176387
 20
-0.7070624893
 10
-1.3781176387
 20
-0.7070624893
 10
-1.377750023
 20
-0.7113268311
 10
-1.3767206991
 20
-0.715076511
 10
-1.3749561439
 20
-0.718385052
 10
-1.3725298804
 20
-0.7212524543
 10
-1.3695154319
 20
-0.7235316715
 10
-1.3660598446
 20
-0.7251491804
 10
-1.3622366415
 20
-0.7261785043
 10
-1.3580458229
 20
-0.7264725969
 10
-1.3580458229
 20
-0.7264725969
 10
-1.3516493101
 20
-0.7258844118
 10
-1.3451792743
 20
-0.7241933797
 10
-1.3451792743
 20
-0.7241933797
 10
-1.3365770675
 20
-0.7201496073
 10
-1.3279748607
 20
-0.714561849
 10
-1.3279748607
 20
-0.714561849
 10
-1.3266514443
 20
-0.713459002
 10
-1.3248868891
 20
-0.7119885393
 10
-1.322681195
 20
-0.7100034147
 10
-1.3201078853
 20
-0.7075771512
 10
-1.3171669599
 20
-0.7047832721
 10
-1.3137848957
 20
-0.701474731
 10
-1.3099616927
 20
-0.6977250512
 10
-1.305770874
 20
-0.6935342325
 10
-1.305770874
 20
-0.6935342325
 10
-1.2916544321
 20
-0.7071360124
 10
-1.2916544321
 20
-0.7071360124
 10
-1.2972421904
 20
-0.7137530945
 10
-1.3026829024
 20
-0.7198555147
 10
-1.3079765681
 20
-0.7253697498
 10
-1.3131231875
 20
-0.730369323
 10
-1.3180492375
 20
-0.7347807111
 10
-1.3228282413
 20
-0.7386774372
 10
-1.3274601988
 20
-0.7419859783
 10
-1.33194511
 20
-0.7447798574
 10
-1.3407678862
 20
-0.7491177224
 10
-1.3496641855
 20
-0.752205694
 10
-1.3587810542
 20
-0.7541172955
 10
-1.3679714461
 20
-0.7547054806
 10
-1.3679714461
 20
-0.7547054806
 10
-1.3780441155
 20
-0.7538967261
 10
-1.3872345074
 20
-0.7514704627
 10
-1.3954690985
 20
-0.7474266903
 10
-1.402821412
 20
-0.7417654089
 10
-1.408850309
 20
-0.7349277574
 10
-1.4131146508
 20
-0.7275754439
 10
-1.4156879605
 20
-0.7195614222
 10
-1.4165702382
 20
-0.7110327386
 10
-1.4165702382
 20
-0.7110327386
 10
-1.4163496688
 20
-0.7051508878
 10
-1.4157614837
 20
-0.6988278982
 10
-1.4147321598
 20
-0.692210816
 10
-1.4132616971
 20
-0.6851525951
 10
-1.4132616971
 20
-0.6851525951
 10
-1.3789263931
 20
-0.5288424105
 10
-1.3789263931
 20
-0.5288424105
 10
-1.4375243316
 20
-0.5288424105
 10
-1.4375243316
 20
-0.5288424105
 10
-1.4324512353
 20
-0.510020488
 10
-1.4324512353
 20
-0.510020488
 10
-1.4205404874
 20
-0.5069325164
 10
-1.4098061098
 20
-0.5034034059
 10
-1.4002481022
 20
-0.4994331566
 10
-1.3918664649
 20
-0.4950217685
 10
-1.3841465357
 20
-0.4898016259
 10
-1.376647176
 20
-0.4835521595
 10
-1.3692948625
 20
-0.4763468923
 10
-1.3621631184
 20
-0.468038778
 10
-1.3551048975
 20
-0.4584807705
 10
-1.3481937228
 20
-0.4473787772
 10
-1.3414295944
 20
-0.434732798
 10
-1.3347389891
 20
-0.4206163561
 10
-1.3347389891
 20
-0.4206163561
 10
-1.3165787748
 20
-0.4206163561
  0
LWPOLYLINE
  5
75
330
1F
100
AcDbEntity
  8
0
  6
Continuous
 62
     7
100
AcDbPolyline
 90
      129
 70
   128
 43
0.0
 10
-1.1351968594
 20
-0.3876779917
 10
-1.1800463135
 20
-0.5817790676
 10
-1.1800463135
 20
-0.5817790676
 10
-1.1707088754
 20
-0.5688389959
 10
-1.1611508679
 20
-0.5572223406
 10
-1.1514458141
 20
-0.5468555786
 10
-1.1414466677
 20
-0.537812233
 10
-1.1313739983
 20
-0.5299452575
 10
-1.1213013288
 20
-0.5232546523
 10
-1.1112286593
 20
-0.517666894
 10
-1.1011559899
 20
-0.5131819828
 10
-1.0910833204
 20
-0.5097263955
 10
-1.0810106509
 20
-0.507300132
 10
-1.0710850277
 20
-0.5058296693
 10
-1.0611594045
 20
-0.5053150074
 10
-1.0611594045
 20
-0.5053150074
 10
-1.0490280873
 20
-0.506197285
 10
-1.0379996171
 20
-0.508917641
 10
-1.0280004708
 20
-0.5134025522
 10
-1.0190306483
 20
-0.5197255418
 10
-1.0116048117
 20
-0.5271513784
 10
-1.006311146
 20
-0.535091877
 10
-1.0031496512
 20
-0.5435470375
 10
-1.0021203273
 20
-0.5524433368
 10
-1.0021203273
 20
-0.5524433368
 10
-1.0023408967
 20
-0.5583251876
 10
-1.0030026049
 20
-0.5647217003
 10
-1.0040319288
 20
-0.5715593518
 10
-1.0055759146
 20
-0.5789116653
 10
-1.0055759146
 20
-0.5789116653
 10
-1.0316766275
 20
-0.692210816
 10
-1.0316766275
 20
-0.692210816
 10
-1.0329265208
 20
-0.6985338056
 10
-1.0338823215
 20
-0.7041215639
 10
-1.0343969835
 20
-0.7090476139
 10
-1.0346175529
 20
-0.7132384326
 10
-1.0346175529
 20
-0.7132384326
 10
-1.0343234603
 20
-0.7170616356
 10
-1.0334411827
 20
-0.7205172229
 10
-1.03197072
 20
-0.7236051946
 10
-1.0299120723
 20
-0.7262520275
 10
-1.0274122857
 20
-0.7283841984
 10
-1.0246184066
 20
-0.7299281842
 10
-1.0215304349
 20
-0.730883985
 10
-1.0181483707
 20
-0.7311780775
 10
-1.0181483707
 20
-0.7311780775
 10
-1.0135899363
 20
-0.7308104618
 10
-1.0089579788
 20
-0.7296340917
 10
-1.0043260213
 20
-0.7277224902
 10
-0.9996205407
 20
-0.7250756573
 10
-0.9996205407
 20
-0.7250756573
 10
-0.9922682272
 20
-0.7197084685
 10
-0.9852100063
 20
-0.713459002
 10
-0.9782988316
 20
-0.7062537348
 10
-0.9716817495
 20
-0.6982397131
 10
-0.9716817495
 20
-0.6982397131
 10
-0.9575653076
 20
-0.711841493
 10
-0.9575653076
 20
-0.711841493
 10
-0.9658734218
 20
-0.7219141625
 10
-0.9744021055
 20
-0.7305898924
 10
-0.9831513585
 20
-0.7379422059
 10
-0.992121181
 20
-0.7439711029
 10
-1.0013115728
 20
-0.7486765836
 10
-1.0106490109
 20
-0.7520586478
 10
-1.0202805416
 20
-0.7540437724
 10
-1.0300591185
 20
-0.7547054806
 10
-1.0300591185
 20
-0.7547054806
 10
-1.0389554178
 20
-0.7539702493
 10
-1.0470429627
 20
-0.7517645552
 10
-1.054321753
 20
-0.7481619216
 10
-1.060865312
 20
-0.7430888253
 10
-1.0662325008
 20
-0.7369864051
 10
-1.0699821807
 20
-0.7304428461
 10
-1.072334921
 20
-0.7233846252
 10
-1.0730701524
 20
-0.7158117423
 10
-1.0730701524
 20
-0.7158117423
 10
-1.072849583
 20
-0.7102975072
 10
-1.0722613979
 20
-0.7042686102
 10
-1.071232074
 20
-0.6977250512
 10
-1.0697616113
 20
-0.6906668302
 10
-1.0697616113
 20
-0.6906668302
 10
-1.0427050977
 20
-0.5735444765
 10
-1.0427050977
 20
-0.5735444765
 10
-1.0410140656
 20
-0.5636188533
 10
-1.0404258805
 20
-0.5553107391
 10
-1.0404258805
 20
-0.5553107391
 10
-1.0409405425
 20
-0.550899351
 10
-1.0424110052
 20
-0.5468555786
 10
-1.0449843149
 20
-0.5431794218
 10
-1.0485134254
 20
-0.5398708807
 10
-1.0527777672
 20
-0.5370770016
 10
-1.0575567709
 20
-0.535091877
 10
-1.0627769135
 20
-0.5339155068
 10
-1.068511718
 20
-0.5335478912
 10
-1.068511718
 20
-0.5335478912
 10
-1.0774080173
 20
-0.5341360762
 10
-1.0864513629
 20
-0.5359741546
 10
-1.0954947085
 20
-0.5390621263
 10
-1.1046115772
 20
-0.5433999912
 10
-1.1046115772
 20
-0.5433999912
 10
-1.1176251721
 20
-0.5515610592
 10
-1.130124105
 20
-0.5613396361
 10
-1.1422554222
 20
-0.5728827683
 10
-1.1538720775
 20
-0.5861169325
 10
-1.1646799783
 20
-0.600527467
 10
-1.1741644627
 20
-0.6154526633
 10
-1.1825461001
 20
-0.631113091
 10
-1.189604321
 20
-0.6472881807
 10
-1.1956332181
 20
-0.6633897472
 10
-1.2009268838
 20
-0.6787560824
 10
-1.2053382719
 20
-0.6933136631
 10
-1.2090144286
 20
-0.7071360124
 10
-1.2090144286
 20
-0.7071360124
 10
-1.2189400518
 20
-0.75
 10
-1.2189400518
 20
-0.75
 10
-1.2574661745
 20
-0.75
 10
-1.2574661745
 20
-0.75
 10
-1.1835019009
 20
-0.4300273174
 10
-1.1835019009
 20
-0.4300273174
 10
-1.2292332907
 20
-0.4300273174
 10
-1.2292332907
 20
-0.4300273174
 10
-1.2246013332
 20
-0.4064999142
 10
-1.2246013332
 20
-0.4064999142
 10
-1.2060735032
 20
-0.4040001276
 10
-1.1880603352
 20
-0.3999563552
 10
-1.1705618291
 20
-0.3945891664
 10
-1.153577985
 20
-0.3876779917
 10
-1.153577985
 20
-0.3876779917
 10
-1.1351972013
 20
-0.3876779917
  0
LWPOLYLINE
  5
76
330
1F
100
AcDbEntity
  8
0
  6
Continuous
 62
     7
100
AcDbPolyline
 90
      122
 70
   128
 43
0.0
 10
-0.736407173
 20
-0.6794177906
 10
-0.7222912763
 20
-0.6935342325
 10
-0.7222912763
 20
-0.6935342325
 10
-0.7383193196
 20
-0.7077977206
 10
-0.7545679324
 20
-0.7202231304
 10
-0.771257684
 20
-0.7307369387
 10
-0.788168005
 20
-0.7393391455
 10
-0.8051518492
 20
-0.7460297507
 10
-0.821988647
 20
-0.7508822776
 10
-0.8386048755
 20
-0.7537496799
 10
-0.8550740577
 20
-0.7547054806
 10
-0.8550740577
 20
-0.7547054806
 10
-0.8658084354
 20
-0.7542643418
 10
-0.875954628
 20
-0.7530144485
 10
-0.8856596818
 20
-0.7509558008
 10
-0.8947765505
 20
-0.7480883985
 10
-0.9033787573
 20
-0.7443387186
 10
-0.911392779
 20
-0.7397802843
 10
-0.9189656618
 20
-0.7344130954
 10
-0.9259503597
 20
-0.7282371521
 10
-0.9322733492
 20
-0.7213259774
 10
-0.9377140612
 20
-0.7139001408
 10
-0.9423460187
 20
-0.7059596423
 10
-0.9460956986
 20
-0.6974309586
 10
-0.9491101471
 20
-0.688387613
 10
-0.9511687949
 20
-0.6787560824
 10
-0.9524186882
 20
-0.6686098898
 10
-0.952859827
 20
-0.6579490352
 10
-0.952859827
 20
-0.6579490352
 10
-0.9524922113
 20
-0.6482439814
 10
-0.9514628874
 20
-0.6386124508
 10
-0.9497718553
 20
-0.6291279664
 10
-0.9473455919
 20
-0.6197905283
 10
-0.9442576202
 20
-0.6105266133
 10
-0.9404344172
 20
-0.6014097446
 10
-0.935949506
 20
-0.5924399221
 10
-0.9308028866
 20
-0.5835436228
 10
-0.9249945589
 20
-0.574941416
 10
-0.9186715693
 20
-0.5667068249
 10
-0.9118339178
 20
-0.5589868958
 10
-0.904334558
 20
-0.5516345823
 10
-0.8963940595
 20
-0.5447969308
 10
-0.8878653758
 20
-0.5383268949
 10
-0.8788220302
 20
-0.532371521
 10
-0.8691904996
 20
-0.5267837628
 10
-0.8591913533
 20
-0.5217841896
 10
-0.8490451607
 20
-0.5173728015
 10
-0.8387519218
 20
-0.5136966448
 10
-0.8282381135
 20
-0.5106821962
 10
-0.817577259
 20
-0.5083294559
 10
-0.806695835
 20
-0.5066384238
 10
-0.7956673648
 20
-0.5056826231
 10
-0.7844918483
 20
-0.5053150074
 10
-0.7844918483
 20
-0.5053150074
 10
-0.7757425953
 20
-0.5055355768
 10
-0.7675080042
 20
-0.5063443313
 10
-0.759788075
 20
-0.5075942246
 10
-0.7525092847
 20
-0.5094323029
 10
-0.7457451563
 20
-0.5117115201
 10
-0.7394956898
 20
-0.5145053992
 10
-0.7336873622
 20
-0.5178874634
 10
-0.7283936964
 20
-0.5217106665
 10
-0.7236882158
 20
-0.5259014851
 10
-0.7195709203
 20
-0.5302393501
 10
-0.7160418098
 20
-0.5347977844
 10
-0.7132479307
 20
-0.5395032651
 10
-0.7110422366
 20
-0.5444293151
 10
-0.7094247277
 20
-0.5495759345
 10
-0.7084689269
 20
-0.5548696002
 10
-0.7081748344
 20
-0.5603103122
 10
-0.7081748344
 20
-0.5603103122
 10
-0.7087630195
 20
-0.5669273944
 10
-0.7104540516
 20
-0.5737650459
 10
-0.7132479307
 20
-0.5807497437
 10
-0.71721818
 20
-0.5878814878
 10
-0.7225118457
 20
-0.5950132318
 10
-0.7293494972
 20
-0.6018508834
 10
-0.7377311346
 20
-0.6084679655
 10
-0.7476567578
 20
-0.6147909551
 10
-0.7533180391
 20
-0.6178054036
 10
-0.7595675056
 20
-0.6206728059
 10
-0.7664051571
 20
-0.623466685
 10
-0.7738309938
 20
-0.6261135179
 10
-0.7818450154
 20
-0.6286133044
 10
-0.7905207454
 20
-0.6309660448
 10
-0.7997111372
 20
-0.6332452619
 10
-0.8095632373
 20
-0.6353774328
 10
-0.8200035224
 20
-0.6373625575
 10
-0.8309584695
 20
-0.6391271127
 10
-0.8425751248
 20
-0.6407446217
 10
-0.854706442
 20
-0.6422150844
 10
-0.8674994675
 20
-0.6435385008
 10
-0.8808071549
 20
-0.644714871
 10
-0.8947030274
 20
-0.6456706717
 10
-0.9091870849
 20
-0.6464794262
 10
-0.9091870849
 20
-0.6464794262
 10
-0.90977527
 20
-0.6508908143
 10
-0.9101428857
 20
-0.6546404942
 10
-0.9104369782
 20
-0.6579490352
 10
-0.9105105013
 20
-0.6605958681
 10
-0.9105105013
 20
-0.6605958681
 10
-0.9099958394
 20
-0.6697862599
 10
-0.9083783304
 20
-0.6783884667
 10
-0.9056579744
 20
-0.6866230578
 10
-0.9019082946
 20
-0.6942694638
 10
-0.8971292908
 20
-0.7012541616
 10
-0.8913944863
 20
-0.7075036281
 10
-0.8848509273
 20
-0.7130178632
 10
-0.8773515676
 20
-0.717796867
 10
-0.8692640227
 20
-0.72162007
 10
-0.8610294316
 20
-0.7242669028
 10
-0.8526477943
 20
-0.7259579349
 10
-0.8441191106
 20
-0.7264725969
 10
-0.8441191106
 20
-0.7264725969
 10
-0.8326495016
 20
-0.7257373655
 10
-0.8202976149
 20
-0.7234581483
 10
-0.8070634507
 20
-0.7197084685
 10
-0.7928734857
 20
-0.7144883259
 10
-0.778315905
 20
-0.7077977206
 10
-0.7640524168
 20
-0.6997101758
 10
-0.7500830212
 20
-0.6902256914
 10
-0.7364077181
 20
-0.6794177906
  0
LWPOLYLINE
  5
77
330
1F
100
AcDbEntity
  8
0
  6
Continuous
 62
     7
100
AcDbPolyline
 90
       44
 70
   128
 43
0.0
 10
-0.906098546
 20
-0.6229520231
 10
-0.891762102
 20
-0.6214815604
 10
-0.8784544146
 20
-0.6200110977
 10
-0.8661760511
 20
-0.618540635
 10
-0.8549270114
 20
-0.6170701723
 10
-0.8447072957
 20
-0.6155997096
 10
-0.8354433807
 20
-0.61420277
 10
-0.8272823128
 20
-0.6127323073
 10
-0.8200770455
 20
-0.6113353678
 10
-0.8200770455
 20
-0.6113353678
 10
-0.8097838067
 20
-0.6089826275
 10
-0.8003728454
 20
-0.6064828409
 10
-0.7917706386
 20
-0.603836008
 10
-0.7839771864
 20
-0.601115652
 10
-0.7771395348
 20
-0.5982482498
 10
-0.7711106378
 20
-0.5952338012
 10
-0.7658904952
 20
-0.5921458296
 10
-0.7615526302
 20
-0.5889108117
 10
-0.7546414556
 20
-0.5821466833
 10
-0.7497154055
 20
-0.5751619854
 10
-0.7467744801
 20
-0.567809672
 10
-0.7458186794
 20
-0.5601632659
 10
-0.7458186794
 20
-0.5601632659
 10
-0.7465539107
 20
-0.5537667532
 10
-0.7487596048
 20
-0.5479584256
 10
-0.7523622384
 20
-0.5426647599
 10
-0.7575088578
 20
-0.5378857561
 10
-0.7639053706
 20
-0.5339155068
 10
-0.7715517766
 20
-0.5311216277
 10
-0.7804480759
 20
-0.5294305956
 10
-0.7905207454
 20
-0.5288424105
 10
-0.7905207454
 20
-0.5288424105
 10
-0.8019168312
 20
-0.5295776419
 10
-0.8136805328
 20
-0.5318568591
 10
-0.8257383269
 20
-0.5356800621
 10
-0.8381637367
 20
-0.5409737278
 10
-0.8502215308
 20
-0.5475172868
 10
-0.8613235242
 20
-0.5552372159
 10
-0.8715432399
 20
-0.563986469
 10
-0.8807336318
 20
-0.5739120922
 10
-0.8888946997
 20
-0.5847935161
 10
-0.8958058744
 20
-0.5965572177
 10
-0.9015406789
 20
-0.60927672
 10
-0.9060991133
 20
-0.6229520231
  0
LWPOLYLINE
  5
78
330
1F
100
AcDbEntity
  8
0
  6
Continuous
 62
     7
100
AcDbPolyline
 90
       81
 70
   128
 43
0.0
 10
-0.5788476331
 20
-0.5053150074
 10
-0.5967872852
 20
-0.5828083915
 10
-0.5967872852
 20
-0.5828083915
 10
-0.5892879254
 20
-0.570015366
 10
-0.5814944731
 20
-0.5583987107
 10
-0.5734069283
 20
-0.5479584256
 10
-0.5649517678
 20
-0.5386209875
 10
-0.5562760379
 20
-0.5303863964
 10
-0.5474532617
 20
-0.5231811291
 10
-0.5385569624
 20
-0.517078709
 10
-0.52958714
 20
-0.5120056127
 10
-0.52958714
 20
-0.5120056127
 10
-0.5229700578
 20
-0.5090646873
 10
-0.5163529757
 20
-0.5070060395
 10
-0.5097358936
 20
-0.5057561462
 10
-0.5031188114
 20
-0.5053150074
 10
-0.5031188114
 20
-0.5053150074
 10
-0.4967222987
 20
-0.5058296693
 10
-0.4909874942
 20
-0.507300132
 10
-0.4858408747
 20
-0.5097263955
 10
-0.4813559635
 20
-0.5131819828
 10
-0.4776798068
 20
-0.5172992784
 10
-0.4750329739
 20
-0.5218577127
 10
-0.473415465
 20
-0.5267837628
 10
-0.472900803
 20
-0.5322244747
 10
-0.472900803
 20
-0.5322244747
 10
-0.4733419418
 20
-0.5369299554
 10
-0.4746653583
 20
-0.5414148666
 10
-0.4769445754
 20
-0.5456056853
 10
-0.4800325471
 20
-0.5495024114
 10
-0.4836351807
 20
-0.5528109525
 10
-0.4873113374
 20
-0.5551636928
 10
-0.4911345405
 20
-0.5566341555
 10
-0.4950312666
 20
-0.5570752943
 10
-0.4950312666
 20
-0.5570752943
 10
-0.4980457151
 20
-0.5567812017
 10
-0.5015748256
 20
-0.5558989241
 10
-0.505618598
 20
-0.5545019846
 10
-0.5102505555
 20
-0.5525168599
 10
-0.5102505555
 20
-0.5525168599
 10
-0.5150295593
 20
-0.550384689
 10
-0.5192203779
 20
-0.5488407032
 10
-0.5229700578
 20
-0.5479584256
 10
-0.5262050758
 20
-0.547664333
 10
-0.5262050758
 20
-0.547664333
 10
-0.5316457877
 20
-0.5481054718
 10
-0.5371600228
 20
-0.5495759345
 10
-0.5427477811
 20
-0.5519286749
 10
-0.5484090625
 20
-0.5553107391
 10
-0.554143867
 20
-0.5595750809
 10
-0.5598786715
 20
-0.5648687466
 10
-0.5657605223
 20
-0.5710446899
 10
-0.5717158962
 20
-0.5782499571
 10
-0.5717158962
 20
-0.5782499571
 10
-0.5797299179
 20
-0.5892784273
 10
-0.5873028008
 20
-0.601630314
 10
-0.5945815911
 20
-0.6153791402
 10
-0.6014192427
 20
-0.630524906
 10
-0.6078892785
 20
-0.6469940881
 10
-0.6139916987
 20
-0.6647866868
 10
-0.6196529801
 20
-0.683976225
 10
-0.6250201689
 20
-0.7044891796
 10
-0.6250201689
 20
-0.7044891796
 10
-0.6355339772
 20
-0.75
 10
-0.6355339772
 20
-0.75
 10
-0.6740600998
 20
-0.75
 10
-0.6740600998
 20
-0.75
 10
-0.6271523398
 20
-0.547664333
 10
-0.6271523398
 20
-0.547664333
 10
-0.6740600998
 20
-0.547664333
 10
-0.6740600998
 20
-0.547664333
 10
-0.6689870035
 20
-0.5241369299
 10
-0.6689870035
 20
-0.5241369299
 10
-0.6577379639
 20
-0.5226664672
 10
-0.647444725
 20
-0.5210489582
 10
-0.6381072869
 20
-0.519284403
 10
-0.6297256496
 20
-0.5172992784
 10
-0.613624083
 20
-0.5122261821
 10
-0.597228424
 20
-0.5053150074
 10
-0.597228424
 20
-0.5053150074
 10
-0.5788476403
 20
-0.5053150074
  0
LWPOLYLINE
  5
79
330
1F
100
AcDbEntity
  8
0
  6
Continuous
 62
     7
100
AcDbPolyline
 90
       96
 70
   128
 43
0.0
 10
-0.2734324946
 20
-0.4017944336
 10
-0.1388116785
 20
-0.4017944336
 10
-0.1388116785
 20
-0.4017944336
 10
-0.1432965897
 20
-0.4206163561
 10
-0.1432965897
 20
-0.4206163561
 10
-0.1539574443
 20
-0.4206163561
 10
-0.1539574443
 20
-0.4206163561
 10
-0.1620449891
 20
-0.4208369255
 10
-0.1688091175
 20
-0.4214986337
 10
-0.1742498295
 20
-0.4226014807
 10
-0.178367125
 20
-0.4241454666
 10
-0.1816756661
 20
-0.4262041143
 10
-0.1846165915
 20
-0.4289244703
 10
-0.1874104706
 20
-0.4323800577
 10
-0.1898367341
 20
-0.4364238301
 10
-0.1921159512
 20
-0.4417910189
 10
-0.1943951684
 20
-0.4491433324
 10
-0.1967479087
 20
-0.4585542937
 10
-0.199100649
 20
-0.4699503796
 10
-0.199100649
 20
-0.4699503796
 10
-0.2532871994
 20
-0.7058861191
 10
-0.2532871994
 20
-0.7058861191
 10
-0.2542430001
 20
-0.7091211371
 10
-0.2549047083
 20
-0.7116944468
 10
-0.2553458472
 20
-0.713459002
 10
-0.2554928934
 20
-0.7144883259
 10
-0.2554928934
 20
-0.7144883259
 10
-0.2546106158
 20
-0.7177233438
 10
-0.251963783
 20
-0.720002561
 10
-0.2496845658
 20
-0.7207377924
 10
-0.2464495478
 20
-0.7213259774
 10
-0.242185206
 20
-0.72162007
 10
-0.2368915403
 20
-0.7217671162
 10
-0.2368915403
 20
-0.7217671162
 10
-0.2151286924
 20
-0.7217671162
 10
-0.2151286924
 20
-0.7217671162
 10
-0.1979242789
 20
-0.7212524543
 10
-0.1820432818
 20
-0.7196349453
 10
-0.1673386548
 20
-0.7169145893
 10
-0.1538839211
 20
-0.7131649095
 10
-0.1414585114
 20
-0.7083859057
 10
-0.1298418561
 20
-0.7027246243
 10
-0.1191074784
 20
-0.6961075422
 10
-0.1091818552
 20
-0.6886081824
 10
-0.1044028514
 20
-0.6842703175
 10
-0.0994768014
 20
-0.6793442675
 10
-0.0945507514
 20
-0.6738300323
 10
-0.089477655
 20
-0.6677276122
 10
-0.0842575125
 20
-0.6609634838
 10
-0.0790373699
 20
-0.6536111703
 10
-0.0736701811
 20
-0.6456706717
 10
-0.0682294691
 20
-0.6370684649
 10
-0.0682294691
 20
-0.6370684649
 10
-0.0494075466
 20
-0.6461118105
 10
-0.0494075466
 20
-0.6461118105
 10
-0.1011678335
 20
-0.75
 10
-0.1011678335
 20
-0.75
 10
-0.3526169545
 20
-0.75
 10
-0.3526169545
 20
-0.75
 10
-0.3481320433
 20
-0.7311780775
 10
-0.3481320433
 20
-0.7311780775
 10
-0.3374711887
 20
-0.7311780775
 10
-0.3374711887
 20
-0.7311780775
 10
-0.3297512596
 20
-0.7310310312
 10
-0.3233547468
 20
-0.7304428461
 10
-0.3183551737
 20
-0.7295605685
 10
-0.3146790169
 20
-0.7283106752
 10
-0.3146790169
 20
-0.7283106752
 10
-0.3110028602
 20
-0.7261049812
 10
-0.3076943191
 20
-0.7235316715
 10
-0.3046798706
 20
-0.7204436998
 10
-0.3021065609
 20
-0.7169881125
 10
-0.2997538206
 20
-0.7125032013
 10
-0.2974010803
 20
-0.7066213505
 10
-0.2951953862
 20
-0.6993425601
 10
-0.2930632153
 20
-0.6906668302
 10
-0.2930632153
 20
-0.6906668302
 10
-0.2409353127
 20
-0.4639214825
 10
-0.2409353127
 20
-0.4639214825
 10
-0.2397589426
 20
-0.4575249698
 10
-0.238876665
 20
-0.4515695959
 10
-0.238362003
 20
-0.4461288839
 10
-0.2382149567
 20
-0.4410557876
 10
-0.2382149567
 20
-0.4410557876
 10
-0.2389501881
 20
-0.4345122286
 10
-0.241082359
 20
-0.429292086
 10
-0.2444644232
 20
-0.4253218367
 10
-0.2490963807
 20
-0.4226750039
 10
-0.2522578755
 20
-0.4217927263
 10
-0.2564486942
 20
-0.421131018
 10
-0.261815883
 20
-0.4207634024
 10
-0.2682123957
 20
-0.4206163561
 10
-0.2682123957
 20
-0.4206163561
 10
-0.2781380189
 20
-0.4206163561
 10
-0.2781380189
 20
-0.4206163561
 10
-0.2734325383
 20
-0.4017944336
  0
LWPOLYLINE
  5
7A
330
1F
100
AcDbEntity
  8
0
  6
Continuous
 62
     7
100
AcDbPolyline
 90
      122
 70
   128
 43
0.0
 10
0.1858664662
 20
-0.6794177906
 10
0.1999829267
 20
-0.6935342325
 10
0.1999829267
 20
-0.6935342325
 10
0.1839548833
 20
-0.7077977206
 10
0.1677062705
 20
-0.7202231304
 10
0.1510165189
 20
-0.7307369387
 10
0.1341061979
 20
-0.7393391455
 10
0.1171223537
 20
-0.7460297507
 10
0.1002855559
 20
-0.7508822776
 10
0.0836693274
 20
-0.7537496799
 10
0.0672001452
 20
-0.7547054806
 10
0.0672001452
 20
-0.7547054806
 10
0.0564657675
 20
-0.7542643418
 10
0.0463195749
 20
-0.7530144485
 10
0.0366145211
 20
-0.7509558008
 10
0.0274976524
 20
-0.7480883985
 10
0.0188954456
 20
-0.7443387186
 10
0.010881424
 20
-0.7397802843
 10
0.0033085411
 20
-0.7344130954
 10
-0.0036761567
 20
-0.7282371521
 10
-0.0099991463
 20
-0.7213259774
 10
-0.0154398583
 20
-0.7139001408
 10
-0.0200718158
 20
-0.7059596423
 10
-0.0238214957
 20
-0.6974309586
 10
-0.0268359442
 20
-0.688387613
 10
-0.028894592
 20
-0.6787560824
 10
-0.0301444853
 20
-0.6686098898
 10
-0.0305856241
 20
-0.6579490352
 10
-0.0305856241
 20
-0.6579490352
 10
-0.0302180084
 20
-0.6482439814
 10
-0.0291886845
 20
-0.6386124508
 10
-0.0274976524
 20
-0.6291279664
 10
-0.025071389
 20
-0.6197905283
 10
-0.0219834173
 20
-0.6105266133
 10
-0.0181602143
 20
-0.6014097446
 10
-0.0136753031
 20
-0.5924399221
 10
-0.0085286836
 20
-0.5835436228
 10
-0.002720356
 20
-0.574941416
 10
0.0036026336
 20
-0.5667068249
 10
0.0104402851
 20
-0.5589868958
 10
0.0179396449
 20
-0.5516345823
 10
0.0258801434
 20
-0.5447969308
 10
0.0344088271
 20
-0.5383268949
 10
0.0434521727
 20
-0.532371521
 10
0.0530837033
 20
-0.5267837628
 10
0.0630828497
 20
-0.5217841896
 10
0.0732290423
 20
-0.5173728015
 10
0.0835222811
 20
-0.5136966448
 10
0.0940360894
 20
-0.5106821962
 10
0.104696944
 20
-0.5083294559
 10
0.1155783679
 20
-0.5066384238
 10
0.1266068381
 20
-0.5056826231
 10
0.1377823546
 20
-0.5053150074
 10
0.1377823546
 20
-0.5053150074
 10
0.1465316077
 20
-0.5055355768
 10
0.1547661988
 20
-0.5063443313
 10
0.1624861279
 20
-0.5075942246
 10
0.1697649183
 20
-0.5094323029
 10
0.1765290467
 20
-0.5117115201
 10
0.1827785131
 20
-0.5145053992
 10
0.1885868408
 20
-0.5178874634
 10
0.1938805065
 20
-0.5217106665
 10
0.1985859871
 20
-0.5259014851
 10
0.2027032826
 20
-0.5302393501
 10
0.2062323931
 20
-0.5347977844
 10
0.2090262722
 20
-0.5395032651
 10
0.2112319663
 20
-0.5444293151
 10
0.2128494752
 20
-0.5495759345
 10
0.213805276
 20
-0.5548696002
 10
0.2140993685
 20
-0.5603103122
 10
0.2140993685
 20
-0.5603103122
 10
0.2135111835
 20
-0.5669273944
 10
0.2118201514
 20
-0.5737650459
 10
0.2090262722
 20
-0.5807497437
 10
0.205056023
 20
-0.5878814878
 10
0.1997623572
 20
-0.5950132318
 10
0.1929247057
 20
-0.6018508834
 10
0.1845430683
 20
-0.6084679655
 10
0.1746174451
 20
-0.6147909551
 10
0.1689561638
 20
-0.6178054036
 10
0.1627066973
 20
-0.6206728059
 10
0.1558690458
 20
-0.623466685
 10
0.1484432092
 20
-0.6261135179
 10
0.1404291875
 20
-0.6286133044
 10
0.1317534576
 20
-0.6309660448
 10
0.1225630657
 20
-0.6332452619
 10
0.1127109656
 20
-0.6353774328
 10
0.1022706805
 20
-0.6373625575
 10
0.0913157334
 20
-0.6391271127
 10
0.0796990781
 20
-0.6407446217
 10
0.0675677609
 20
-0.6422150844
 10
0.0547747354
 20
-0.6435385008
 10
0.041467048
 20
-0.644714871
 10
0.0275711755
 20
-0.6456706717
 10
0.013087118
 20
-0.6464794262
 10
0.013087118
 20
-0.6464794262
 10
0.0124989329
 20
-0.6508908143
 10
0.0121313172
 20
-0.6546404942
 10
0.0118372247
 20
-0.6579490352
 10
0.0117637016
 20
-0.6605958681
 10
0.0117637016
 20
-0.6605958681
 10
0.0122783635
 20
-0.6697862599
 10
0.0138958725
 20
-0.6783884667
 10
0.0166162285
 20
-0.6866230578
 10
0.0203659083
 20
-0.6942694638
 10
0.0251449121
 20
-0.7012541616
 10
0.0308797166
 20
-0.7075036281
 10
0.0374232756
 20
-0.7130178632
 10
0.0449226354
 20
-0.717796867
 10
0.0530101802
 20
-0.72162007
 10
0.0612447713
 20
-0.7242669028
 10
0.0696264087
 20
-0.7259579349
 10
0.0781550923
 20
-0.7264725969
 10
0.0781550923
 20
-0.7264725969
 10
0.0896247013
 20
-0.7257373655
 10
0.101976588
 20
-0.7234581483
 10
0.1152107522
 20
-0.7197084685
 10
0.1294007172
 20
-0.7144883259
 10
0.1439582979
 20
-0.7077977206
 10
0.1582217861
 20
-0.6997101758
 10
0.1721911817
 20
-0.6902256914
 10
0.1858664848
 20
-0.6794177906
  0
LWPOLYLINE
  5
7B
330
1F
100
AcDbEntity
  8
0
  6
Continuous
 62
     7
100
AcDbPolyline
 90
       44
 70
   128
 43
0.0
 10
0.016175084
 20
-0.6229520231
 10
0.0305121009
 20
-0.6214815604
 10
0.0438197883
 20
-0.6200110977
 10
0.0560981519
 20
-0.618540635
 10
0.0673471915
 20
-0.6170701723
 10
0.0775669072
 20
-0.6155997096
 10
0.0868308222
 20
-0.61420277
 10
0.0949918902
 20
-0.6127323073
 10
0.1021971574
 20
-0.6113353678
 10
0.1021971574
 20
-0.6113353678
 10
0.1124903962
 20
-0.6089826275
 10
0.1219013575
 20
-0.6064828409
 10
0.1305035643
 20
-0.603836008
 10
0.1382970166
 20
-0.601115652
 10
0.1451346681
 20
-0.5982482498
 10
0.1511635651
 20
-0.5952338012
 10
0.1563837077
 20
-0.5921458296
 10
0.1607215727
 20
-0.5889108117
 10
0.1676327473
 20
-0.5821466833
 10
0.1725587974
 20
-0.5751619854
 10
0.1754997228
 20
-0.567809672
 10
0.1764555235
 20
-0.5601632659
 10
0.1764555235
 20
-0.5601632659
 10
0.1757202922
 20
-0.5537667532
 10
0.1735145981
 20
-0.5479584256
 10
0.1699119645
 20
-0.5426647599
 10
0.1647653451
 20
-0.5378857561
 10
0.1583688324
 20
-0.5339155068
 10
0.1507224263
 20
-0.5311216277
 10
0.141826127
 20
-0.5294305956
 10
0.1317534576
 20
-0.5288424105
 10
0.1317534576
 20
-0.5288424105
 10
0.1203573717
 20
-0.5295776419
 10
0.1085936701
 20
-0.5318568591
 10
0.096535876
 20
-0.5356800621
 10
0.0841104662
 20
-0.5409737278
 10
0.0720526721
 20
-0.5475172868
 10
0.0609506787
 20
-0.5552372159
 10
0.050730963
 20
-0.563986469
 10
0.0415405712
 20
-0.5739120922
 10
0.0333795032
 20
-0.5847935161
 10
0.0264683285
 20
-0.5965572177
 10
0.020733524
 20
-0.60927672
 10
0.0161750897
 20
-0.6229520231
  0
LWPOLYLINE
  5
7C
330
1F
100
AcDbEntity
  8
0
  6
Continuous
 62
     7
100
AcDbPolyline
 90
       89
 70
   128
 43
0.0
 10
0.3585720977
 20
-0.4206163561
 10
0.3398974522
 20
-0.5053150074
 10
0.3398974522
 20
-0.5053150074
 10
0.397613113
 20
-0.5053150074
 10
0.397613113
 20
-0.5053150074
 10
0.3924664936
 20
-0.5288424105
 10
0.3924664936
 20
-0.5288424105
 10
0.3332068469
 20
-0.5288424105
 10
0.3332068469
 20
-0.5288424105
 10
0.301077237
 20
-0.6813293921
 10
0.301077237
 20
-0.6813293921
 10
0.2993126818
 20
-0.6897845526
 10
0.2980627885
 20
-0.6968427735
 10
0.297254034
 20
-0.7026511012
 10
0.2970334646
 20
-0.7070624893
 10
0.2970334646
 20
-0.7070624893
 10
0.2974010803
 20
-0.7113268311
 10
0.2984304041
 20
-0.715076511
 10
0.3001949594
 20
-0.718385052
 10
0.3026212228
 20
-0.7212524543
 10
0.3056356714
 20
-0.7235316715
 10
0.3090912587
 20
-0.7251491804
 10
0.3129144617
 20
-0.7261785043
 10
0.3171052804
 20
-0.7264725969
 10
0.3171052804
 20
-0.7264725969
 10
0.3235017931
 20
-0.7258844118
 10
0.329971829
 20
-0.7241933797
 10
0.329971829
 20
-0.7241933797
 10
0.3385740357
 20
-0.7201496073
 10
0.3471762425
 20
-0.714561849
 10
0.3471762425
 20
-0.714561849
 10
0.3484996589
 20
-0.713459002
 10
0.3502642142
 20
-0.7119885393
 10
0.3524699082
 20
-0.7100034147
 10
0.3550432179
 20
-0.7075771512
 10
0.3579841433
 20
-0.7047832721
 10
0.3613662075
 20
-0.701474731
 10
0.3651894105
 20
-0.6977250512
 10
0.3693802292
 20
-0.6935342325
 10
0.3693802292
 20
-0.6935342325
 10
0.3834966711
 20
-0.7071360124
 10
0.3834966711
 20
-0.7071360124
 10
0.3779089129
 20
-0.7137530945
 10
0.3724682009
 20
-0.7198555147
 10
0.3671745352
 20
-0.7253697498
 10
0.3620279157
 20
-0.730369323
 10
0.3571018657
 20
-0.7347807111
 10
0.352322862
 20
-0.7386774372
 10
0.3476909045
 20
-0.7419859783
 10
0.3432059932
 20
-0.7447798574
 10
0.3343832171
 20
-0.7491177224
 10
0.3254869178
 20
-0.752205694
 10
0.316370049
 20
-0.7541172955
 10
0.3071796572
 20
-0.7547054806
 10
0.3071796572
 20
-0.7547054806
 10
0.2971069877
 20
-0.7538967261
 10
0.2879165959
 20
-0.7514704627
 10
0.2796820048
 20
-0.7474266903
 10
0.2723296913
 20
-0.7417654089
 10
0.2663007942
 20
-0.7349277574
 10
0.2620364524
 20
-0.7275754439
 10
0.2594631427
 20
-0.7195614222
 10
0.2585808651
 20
-0.7110327386
 10
0.2585808651
 20
-0.7110327386
 10
0.2588014345
 20
-0.7051508878
 10
0.2593896196
 20
-0.6988278982
 10
0.2604189435
 20
-0.692210816
 10
0.2618894062
 20
-0.6851525951
 10
0.2618894062
 20
-0.6851525951
 10
0.2962247101
 20
-0.5288424105
 10
0.2962247101
 20
-0.5288424105
 10
0.2376267717
 20
-0.5288424105
 10
0.2376267717
 20
-0.5288424105
 10
0.242699868
 20
-0.510020488
 10
0.242699868
 20
-0.510020488
 10
0.2546106158
 20
-0.5069325164
 10
0.2653449935
 20
-0.5034034059
 10
0.274903001
 20
-0.4994331566
 10
0.2832846384
 20
-0.4950217685
 10
0.2910045675
 20
-0.4898016259
 10
0.2985039273
 20
-0.4835521595
 10
0.3058562408
 20
-0.4763468923
 10
0.3129879848
 20
-0.468038778
 10
0.3200462058
 20
-0.4584807705
 10
0.3269573804
 20
-0.4473787772
 10
0.3337215089
 20
-0.434732798
 10
0.3404121141
 20
-0.4206163561
 10
0.3404121141
 20
-0.4206163561
 10
0.3585723284
 20
-0.4206163561
  0
LWPOLYLINE
  5
7D
330
1F
100
AcDbEntity
  8
0
  6
Continuous
 62
     7
100
AcDbPolyline
 90
      152
 70
   128
 43
0.0
 10
0.5964195634
 20
-0.4017944336
 10
0.730305298
 20
-0.4017944336
 10
0.730305298
 20
-0.4017944336
 10
0.7261144793
 20
-0.4206163561
 10
0.7261144793
 20
-0.4206163561
 10
0.7144243008
 20
-0.4206163561
 10
0.7144243008
 20
-0.4206163561
 10
0.7070719874
 20
-0.4208369255
 10
0.700896044
 20
-0.4214986337
 10
0.6958229477
 20
-0.4226750039
 10
0.6919262216
 20
-0.4242925128
 10
0.6887647268
 20
-0.4264246838
 10
0.6858238014
 20
-0.429292086
 10
0.6830299223
 20
-0.4328211965
 10
0.6805301357
 20
-0.4370855383
 10
0.6781773954
 20
-0.4423056809
 10
0.6760452245
 20
-0.448922763
 10
0.6739130536
 20
-0.4568632616
 10
0.6720014521
 20
-0.4661271765
 10
0.6720014521
 20
-0.4661271765
 10
0.6334018063
 20
-0.6342010627
 10
0.6334018063
 20
-0.6342010627
 10
0.6316372511
 20
-0.6425091769
 10
0.6304608809
 20
-0.6503026292
 10
0.6296521264
 20
-0.6577284658
 10
0.629431557
 20
-0.6646396405
 10
0.629431557
 20
-0.6646396405
 10
0.6300197421
 20
-0.6736094629
 10
0.6318578205
 20
-0.6821381466
 10
0.634872269
 20
-0.6902992145
 10
0.6390630877
 20
-0.6980926668
 10
0.6445037996
 20
-0.7052244109
 10
0.6511944049
 20
-0.7116209236
 10
0.6590613803
 20
-0.717282205
 10
0.668178249
 20
-0.722208255
 10
0.6782509185
 20
-0.7261049812
 10
0.6889117731
 20
-0.7288988603
 10
0.7002343358
 20
-0.7305898924
 10
0.7121450837
 20
-0.7311780775
 10
0.7121450837
 20
-0.7311780775
 10
0.7273643726
 20
-0.7302222767
 10
0.7419219533
 20
-0.7274283976
 10
0.7558178257
 20
-0.722722917
 10
0.76905199
 20
-0.716179358
 10
0.7811833072
 20
-0.70801829
 10
0.7918441618
 20
-0.6985338056
 10
0.8008875074
 20
-0.687799428
 10
0.8083868671
 20
-0.6757416339
 10
0.8147833798
 20
-0.6625074696
 10
0.8203711381
 20
-0.6483910277
 10
0.825223665
 20
-0.6332452619
 10
0.8292674374
 20
-0.6172172186
 10
0.8292674374
 20
-0.6172172186
 10
0.8652202503
 20
-0.4606864646
 10
0.8652202503
 20
-0.4606864646
 10
0.8665436667
 20
-0.4539958593
 10
0.8674994675
 20
-0.4482610548
 10
0.8680141294
 20
-0.4437026204
 10
0.8682346988
 20
-0.4400999868
 10
0.8682346988
 20
-0.4400999868
 10
0.8674259444
 20
-0.4340710898
 10
0.8649996809
 20
-0.4288509472
 10
0.861250001
 20
-0.4246601285
 10
0.8565445204
 20
-0.4220132957
 10
0.8565445204
 20
-0.4220132957
 10
0.8538241644
 20
-0.4214251106
 10
0.8496333457
 20
-0.4209839718
 10
0.8440455875
 20
-0.4206898792
 10
0.8369138434
 20
-0.4206163561
 10
0.8369138434
 20
-0.4206163561
 10
0.8275028822
 20
-0.4206163561
 10
0.8275028822
 20
-0.4206163561
 10
0.8319877934
 20
-0.4017944336
 10
0.8319877934
 20
-0.4017944336
 10
0.9514628874
 20
-0.4017944336
 10
0.9514628874
 20
-0.4017944336
 10
0.9469779762
 20
-0.4206163561
 10
0.9469779762
 20
-0.4206163561
 10
0.9350672284
 20
-0.4206163561
 10
0.9350672284
 20
-0.4206163561
 10
0.9279354843
 20
-0.4208369255
 10
0.921759541
 20
-0.42164568
 10
0.9166864447
 20
-0.4228955733
 10
0.9126426723
 20
-0.4246601285
 10
0.9092606081
 20
-0.4270128688
 10
0.9061726364
 20
-0.4298802711
 10
0.9033052341
 20
-0.4334829047
 10
0.9008054476
 20
-0.4376002002
 10
0.8985262304
 20
-0.4427468197
 10
0.8963940595
 20
-0.4494374249
 10
0.894482458
 20
-0.4575249698
 10
0.8926443796
 20
-0.4671565004
 10
0.8926443796
 20
-0.4671565004
 10
0.8540447338
 20
-0.6351568634
 10
0.8540447338
 20
-0.6351568634
 10
0.8511773316
 20
-0.6461853337
 10
0.8482364062
 20
-0.6559639106
 10
0.8452954808
 20
-0.6644190711
 10
0.8422075091
 20
-0.6715508152
 10
0.8422075091
 20
-0.6715508152
 10
0.8358109964
 20
-0.6839027018
 10
0.8282381135
 20
-0.695445834
 10
0.8194888605
 20
-0.7063272579
 10
0.8095632373
 20
-0.7163999274
 10
0.7987553365
 20
-0.725443273
 10
0.7872122043
 20
-0.7332367253
 10
0.7749338408
 20
-0.7398538074
 10
0.7619202459
 20
-0.7452209962
 10
0.7482449428
 20
-0.7493382918
 10
0.7338344084
 20
-0.7523527403
 10
0.7186151195
 20
-0.7541172955
 10
0.7027341224
 20
-0.7547054806
 10
0.7027341224
 20
-0.7547054806
 10
0.6893529119
 20
-0.7542643418
 10
0.6767804558
 20
-0.7529409254
 10
0.6649432311
 20
-0.7507352313
 10
0.6539147609
 20
-0.7476472597
 10
0.643621522
 20
-0.7436770104
 10
0.6341370376
 20
-0.7388980066
 10
0.6254613077
 20
-0.7331632021
 10
0.6175208092
 20
-0.72654612
 10
0.6104625882
 20
-0.7194143759
 10
0.604360168
 20
-0.7121355856
 10
0.5991400255
 20
-0.704709749
 10
0.5949492068
 20
-0.6971368661
 10
0.5916406657
 20
-0.6894169369
 10
0.5892879254
 20
-0.6814764384
 10
0.5878174627
 20
-0.6734624167
 10
0.5873763239
 20
-0.6652278256
 10
0.5873763239
 20
-0.6652278256
 10
0.5884791709
 20
-0.6456706717
 10
0.5918612351
 20
-0.6264076104
 10
0.5918612351
 20
-0.6264076104
 10
0.629431557
 20
-0.4628921586
 10
0.629431557
 20
-0.4628921586
 10
0.6306079272
 20
-0.4564221227
 10
0.6314902048
 20
-0.4506873182
 10
0.6320048667
 20
-0.4459083145
 10
0.632151913
 20
-0.4418645421
 10
0.632151913
 20
-0.4418645421
 10
0.6313431585
 20
-0.4353209831
 10
0.6289168951
 20
-0.4295861785
 10
0.6252407383
 20
-0.4251012673
 10
0.620682304
 20
-0.4224544345
 10
0.6175208092
 20
-0.42164568
 10
0.613035898
 20
-0.4210574949
 10
0.6071540472
 20
-0.4207634024
 10
0.5998752568
 20
-0.4206163561
 10
0.5998752568
 20
-0.4206163561
 10
0.5922288508
 20
-0.4206163561
 10
0.5922288508
 20
-0.4206163561
 10
0.5964196695
 20
-0.4017944336
  0
LWPOLYLINE
  5
7E
330
1F
100
AcDbEntity
  8
0
  6
Continuous
 62
     7
100
AcDbPolyline
 90
      198
 70
   128
 43
0.0
 10
1.0386608013
 20
-0.6004539438
 10
1.082701683
 20
-0.6150850476
 10
1.082701683
 20
-0.6150850476
 10
1.0868189786
 20
-0.6166290335
 10
1.0921861674
 20
-0.6189817738
 10
1.0988767727
 20
-0.6219962223
 10
1.1067437481
 20
-0.6257459022
 10
1.1146842467
 20
-0.6297161515
 10
1.1213748519
 20
-0.6335393545
 10
1.1267420408
 20
-0.6370684649
 10
1.1309328595
 20
-0.6404505292
 10
1.1309328595
 20
-0.6404505292
 10
1.1351972013
 20
-0.644714871
 10
1.1390204043
 20
-0.6493468285
 10
1.1423289454
 20
-0.6544199248
 10
1.1451963476
 20
-0.6598606367
 10
1.1475490879
 20
-0.6655219181
 10
1.1491665969
 20
-0.6712567226
 10
1.1501959208
 20
-0.6769915271
 10
1.1504900133
 20
-0.6827998548
 10
1.1504900133
 20
-0.6827998548
 10
1.149754782
 20
-0.6916961541
 10
1.1474755648
 20
-0.7005189303
 10
1.1436523618
 20
-0.7091946602
 10
1.138285173
 20
-0.717796867
 10
1.1314475214
 20
-0.7258844118
 10
1.1232129303
 20
-0.7330161559
 10
1.1135813997
 20
-0.7393391455
 10
1.1024794063
 20
-0.7447798574
 10
1.0899804734
 20
-0.7491177224
 10
1.076158124
 20
-0.752205694
 10
1.0609388351
 20
-0.7541172955
 10
1.0443226067
 20
-0.7547054806
 10
1.0443226067
 20
-0.7547054806
 10
1.0260153461
 20
-0.7540437724
 10
1.0087374094
 20
-0.7519851246
 10
0.9923417504
 20
-0.7486030604
 10
0.9769018921
 20
-0.7438240567
 10
0.9630060196
 20
-0.7380892522
 10
0.9510952718
 20
-0.7317662626
 10
0.9412431717
 20
-0.724928611
 10
0.9334497194
 20
-0.7175027744
 10
0.9275678686
 20
-0.7100034147
 10
0.9233035268
 20
-0.7028716706
 10
0.9208037402
 20
-0.6960340191
 10
0.9199214626
 20
-0.6896375063
 10
0.9199214626
 20
-0.6896375063
 10
0.9202890783
 20
-0.6856672571
 10
0.9213919253
 20
-0.6819911003
 10
0.9231564805
 20
-0.6786825592
 10
0.9257297902
 20
-0.6756681107
 10
0.9288177619
 20
-0.6731683241
 10
0.9323468724
 20
-0.6714037689
 10
0.9361700754
 20
-0.670374445
 10
0.9404344172
 20
-0.6700068293
 10
0.9404344172
 20
-0.6700068293
 10
0.9456545598
 20
-0.6704479681
 10
0.9504335635
 20
-0.6719184308
 10
0.955065521
 20
-0.6745652637
 10
0.9597710017
 20
-0.6786090361
 10
0.9597710017
 20
-0.6786090361
 10
0.96160908
 20
-0.6808147302
 10
0.9639618203
 20
-0.6841232712
 10
0.9667556995
 20
-0.6885346593
 10
0.9701377637
 20
-0.6939753713
 10
0.9701377637
 20
-0.6939753713
 10
0.9730786891
 20
-0.698754375
 10
0.9754314294
 20
-0.7024305318
 10
0.9772695077
 20
-0.7050773646
 10
0.978519401
 20
-0.7066948736
 10
0.978519401
 20
-0.7066948736
 10
0.9852100063
 20
-0.7130178632
 10
0.9938857362
 20
-0.7191938065
 10
1.0041054519
 20
-0.7244139491
 10
1.0155015378
 20
-0.728163629
 10
1.0217510043
 20
-0.7294870454
 10
1.0285151327
 20
-0.7304428461
 10
1.035793923
 20
-0.7309575081
 10
1.0435873753
 20
-0.7311780775
 10
1.0435873753
 20
-0.7311780775
 10
1.0546893687
 20
-0.7308104618
 10
1.0649090844
 20
-0.7297076148
 10
1.0740259531
 20
-0.7279430596
 10
1.0822605442
 20
-0.725443273
 10
1.0895393346
 20
-0.7223553013
 10
1.095788801
 20
-0.7187526677
 10
1.1010089436
 20
-0.7147088953
 10
1.1052732854
 20
-0.7102239841
 10
1.1085818265
 20
-0.7054449803
 10
1.1109345668
 20
-0.7005924534
 10
1.1124050295
 20
-0.6957399265
 10
1.1128461683
 20
-0.6908873996
 10
1.1128461683
 20
-0.6908873996
 10
1.1119638907
 20
-0.6841967944
 10
1.1094641041
 20
-0.6778738048
 10
1.1051262392
 20
-0.6719184308
 10
1.0991708652
 20
-0.6662571495
 10
1.0991708652
 20
-0.6662571495
 10
1.0915244592
 20
-0.6610370069
 10
1.0822605442
 20
-0.6562580031
 10
1.0714526434
 20
-0.6517730919
 10
1.0589537105
 20
-0.6477293195
 10
1.0589537105
 20
-0.6477293195
 10
1.0566744933
 20
-0.646920565
 10
1.0542482299
 20
-0.6459647643
 10
1.0542482299
 20
-0.6459647643
 10
1.0194717871
 20
-0.6340540164
 10
1.0194717871
 20
-0.6340540164
 10
1.0118253811
 20
-0.6311866142
 10
1.0046201139
 20
-0.6282456888
 10
0.9980030318
 20
-0.625084194
 10
0.9919006116
 20
-0.6217021298
 10
0.9863128533
 20
-0.6182465424
 10
0.9813132802
 20
-0.6146439088
 10
0.9767548458
 20
-0.6108207058
 10
0.9727845965
 20
-0.6068504565
 10
0.9727845965
 20
-0.6068504565
 10
0.9660939913
 20
-0.5986893886
 10
0.9613885106
 20
-0.5900871818
 10
0.9585211084
 20
-0.5811173594
 10
0.9575653076
 20
-0.5717799212
 10
0.9575653076
 20
-0.5717799212
 10
0.958300539
 20
-0.563471807
 10
0.9604327099
 20
-0.5553107391
 10
0.9639618203
 20
-0.5472967174
 10
0.9689613935
 20
-0.5394297419
 10
0.9753579062
 20
-0.5320039053
 10
0.9831513585
 20
-0.5253133001
 10
0.9922682272
 20
-0.5195049724
 10
1.0027085124
 20
-0.5145053992
 10
1.0145457371
 20
-0.5104616268
 10
1.0276328551
 20
-0.5075942246
 10
1.0421169126
 20
-0.5059031925
 10
1.0578508635
 20
-0.5053150074
 10
1.0578508635
 20
-0.5053150074
 10
1.070129227
 20
-0.5056090999
 10
1.0818929286
 20
-0.5065649007
 10
1.0930684451
 20
-0.5081824096
 10
1.1036557765
 20
-0.5103881037
 10
1.1137284459
 20
-0.5132555059
 10
1.1232129303
 20
-0.5167110933
 10
1.1321092296
 20
-0.5208283888
 10
1.140490867
 20
-0.5256073926
 10
1.140490867
 20
-0.5256073926
 10
1.1461521484
 20
-0.5295041187
 10
1.1510781984
 20
-0.533474368
 10
1.155195494
 20
-0.5375916636
 10
1.1585775582
 20
-0.5418560054
 10
1.161224391
 20
-0.5461938703
 10
1.1631359925
 20
-0.5506787816
 10
1.1642388395
 20
-0.5553107391
 10
1.1646064552
 20
-0.5600897428
 10
1.1646064552
 20
-0.5600897428
 10
1.1642388395
 20
-0.5642070384
 10
1.1632095156
 20
-0.5679567182
 10
1.1613714373
 20
-0.5714858287
 10
1.1588716507
 20
-0.5746473235
 10
1.1558572022
 20
-0.5772206332
 10
1.152475138
 20
-0.5791322347
 10
1.1487254581
 20
-0.5802350817
 10
1.1446081625
 20
-0.5806026974
 10
1.1446081625
 20
-0.5806026974
 10
1.1406379133
 20
-0.5802350817
 10
1.1368147103
 20
-0.5791322347
 10
1.1330650304
 20
-0.5773676795
 10
1.1293888736
 20
-0.5748678929
 10
1.1293888736
 20
-0.5748678929
 10
1.1265949945
 20
-0.5722210601
 10
1.1232129303
 20
-0.568397857
 10
1.1191691579
 20
-0.5633247607
 10
1.1146107235
 20
-0.5570752943
 10
1.1146107235
 20
-0.5570752943
 10
1.1093170578
 20
-0.550384689
 10
1.1035087302
 20
-0.5446498845
 10
1.0971857406
 20
-0.5397973576
 10
1.0902745659
 20
-0.5358271083
 10
1.082701683
 20
-0.5327391367
 10
1.0742465225
 20
-0.5306069658
 10
1.0649826076
 20
-0.5292835493
 10
1.0549099381
 20
-0.5288424105
 10
1.0549099381
 20
-0.5288424105
 10
1.0414552044
 20
-0.5295041187
 10
1.0296915029
 20
-0.5315627665
 10
1.019398264
 20
-0.5349448307
 10
1.0107960572
 20
-0.5397238345
 10
1.0039584057
 20
-0.5453115927
 10
0.9991058788
 20
-0.5511934435
 10
0.9961649534
 20
-0.5575164331
 10
0.9952091526
 20
-0.5641335152
 10
0.9952091526
 20
-0.5641335152
 10
0.9957973377
 20
-0.5694271809
 10
0.9976354161
 20
-0.5745002772
 10
1.0006498646
 20
-0.579279281
 10
1.0048406833
 20
-0.5837641922
 10
1.0105754878
 20
-0.5881020572
 10
1.0181483707
 20
-0.5922928759
 10
1.0274858088
 20
-0.5964101714
 10
1.0386613253
 20
-0.6004539438
  0
LWPOLYLINE
  5
7F
330
1F
100
AcDbEntity
  8
0
  6
Continuous
 62
     7
100
AcDbPolyline
 90
      118
 70
   128
 43
0.0
 10
1.4017182072
 20
-0.4017944336
 10
1.5736156541
 20
-0.4017944336
 10
1.5736156541
 20
-0.4017944336
 10
1.5844235549
 20
-0.4019414799
 10
1.5945697475
 20
-0.4023826187
 10
1.6039807088
 20
-0.4030443269
 10
1.6126564387
 20
-0.4040736508
 10
1.6205969372
 20
-0.4053235441
 10
1.6278757276
 20
-0.406941053
 10
1.6344192866
 20
-0.4087791314
 10
1.6403011374
 20
-0.4109113023
 10
1.6506678994
 20
-0.4159843986
 10
1.6598582912
 20
-0.4223073882
 10
1.6677987898
 20
-0.4297332248
 10
1.6745629182
 20
-0.4383354316
 10
1.6800036301
 20
-0.4478934391
 10
1.6838268332
 20
-0.458186678
 10
1.6861795735
 20
-0.4692886713
 10
1.6869148048
 20
-0.481125896
 10
1.6869148048
 20
-0.481125896
 10
1.6858854809
 20
-0.4950952917
 10
1.682650463
 20
-0.5086235485
 10
1.6773567973
 20
-0.5217106665
 10
1.6699309607
 20
-0.5343566456
 10
1.660814092
 20
-0.5459733009
 10
1.6503002837
 20
-0.5559724473
 10
1.638463059
 20
-0.5644276078
 10
1.6252288947
 20
-0.5713387824
 10
1.6178030581
 20
-0.5742061847
 10
1.6094214207
 20
-0.5767794944
 10
1.6000104595
 20
-0.5790587116
 10
1.5897172206
 20
-0.58089679
 10
1.5783946579
 20
-0.5825142989
 10
1.5661898175
 20
-0.5837641922
 10
1.5529556532
 20
-0.584719993
 10
1.5387656882
 20
-0.5853081781
 10
1.5387656882
 20
-0.5853081781
 10
1.6064804953
 20
-0.700371884
 10
1.6064804953
 20
-0.700371884
 10
1.6128034849
 20
-0.7099298915
 10
1.6208910298
 20
-0.7197819916
 10
1.6208910298
 20
-0.7197819916
 10
1.623758432
 20
-0.722722917
 10
1.62699345
 20
-0.7252227036
 10
1.6305960836
 20
-0.7272813513
 10
1.6344928097
 20
-0.7288253372
 10
1.6391982903
 20
-0.7299281842
 10
1.6450801411
 20
-0.7307369387
 10
1.6521383621
 20
-0.7311045544
 10
1.6603729532
 20
-0.7311780775
 10
1.6603729532
 20
-0.7311780775
 10
1.6558880419
 20
-0.75
 10
1.6558880419
 20
-0.75
 10
1.5872909572
 20
-0.75
 10
1.5872909572
 20
-0.75
 10
1.4903874655
 20
-0.5853081781
 10
1.4903874655
 20
-0.5853081781
 10
1.4496556488
 20
-0.5853081781
 10
1.4496556488
 20
-0.5853081781
 10
1.4238490285
 20
-0.6974309586
 10
1.4238490285
 20
-0.6974309586
 10
1.4222315195
 20
-0.7055185034
 10
1.4216433345
 20
-0.7119150162
 10
1.4216433345
 20
-0.7119150162
 10
1.4226726584
 20
-0.7180909595
 10
1.4256135837
 20
-0.7236051946
 10
1.4299514487
 20
-0.7277960133
 10
1.435024545
 20
-0.7300017073
 10
1.435024545
 20
-0.7300017073
 10
1.4363479614
 20
-0.7302957999
 10
1.4382595629
 20
-0.7305163693
 10
1.4407593495
 20
-0.7307369387
 10
1.4439208443
 20
-0.730883985
 10
1.4476705242
 20
-0.7310310312
 10
1.4520083891
 20
-0.7311045544
 10
1.4570079623
 20
-0.7311780775
 10
1.4625957205
 20
-0.7311780775
 10
1.4625957205
 20
-0.7311780775
 10
1.4575961474
 20
-0.75
 10
1.4575961474
 20
-0.75
 10
1.3231223338
 20
-0.75
 10
1.3231223338
 20
-0.75
 10
1.328121907
 20
-0.7311780775
 10
1.328121907
 20
-0.7311780775
 10
1.3355477436
 20
-0.7311780775
 10
1.3355477436
 20
-0.7311780775
 10
1.3442234735
 20
-0.7309575081
 10
1.3515022639
 20
-0.730369323
 10
1.3573105915
 20
-0.7293399991
 10
1.3616484565
 20
-0.7279430596
 10
1.3651775669
 20
-0.7261049812
 10
1.3682655386
 20
-0.7237522409
 10
1.3710594177
 20
-0.721105408
 10
1.3734856812
 20
-0.7179439132
 10
1.3756913752
 20
-0.7137530945
 10
1.3778235461
 20
-0.7079447669
 10
1.379955717
 20
-0.7005189303
 10
1.3819408417
 20
-0.6914020616
 10
1.3819408417
 20
-0.6914020616
 10
1.4339952211
 20
-0.4648772833
 10
1.4339952211
 20
-0.4648772833
 10
1.4353921607
 20
-0.4578925854
 10
1.4364214846
 20
-0.4517166421
 10
1.4370096696
 20
-0.4464964996
 10
1.437230239
 20
-0.4420851115
 10
1.437230239
 20
-0.4420851115
 10
1.4367891002
 20
-0.4364973532
 10
1.4354656838
 20
-0.4317918726
 10
1.4331864666
 20
-0.4281157159
 10
1.4300249718
 20
-0.4253218367
 10
1.4258341531
 20
-0.423263189
 10
1.4203934412
 20
-0.4217927263
 10
1.413776359
 20
-0.4209104486
 10
1.4059093836
 20
-0.4206163561
 10
1.4059093836
 20
-0.4206163561
 10
1.3967189918
 20
-0.4206163561
 10
1.3967189918
 20
-0.4206163561
 10
1.4017185649
 20
-0.4017944336
  0
LWPOLYLINE
  5
80
330
1F
100
AcDbEntity
  8
0
  6
Continuous
 62
     7
100
AcDbPolyline
 90
       40
 70
   128
 43
0.0
 10
1.4853137215
 20
-0.4300273174
 10
1.4561992078
 20
-0.5570752943
 10
1.4561992078
 20
-0.5570752943
 10
1.5249433389
 20
-0.5570752943
 10
1.5249433389
 20
-0.5570752943
 10
1.5367070404
 20
-0.556928248
 10
1.5475884644
 20
-0.5565606323
 10
1.5575140876
 20
-0.5559724473
 10
1.5666309563
 20
-0.5550901696
 10
1.5747920243
 20
-0.5539873226
 10
1.5819972915
 20
-0.5526639062
 10
1.5883938042
 20
-0.5510463972
 10
1.5938345162
 20
-0.5492083189
 10
1.6033925237
 20
-0.5445763614
 10
1.6121417767
 20
-0.5386209875
 10
1.619935229
 20
-0.5313421971
 10
1.6268464037
 20
-0.5227399903
 10
1.6325076851
 20
-0.5131819828
 10
1.6366249806
 20
-0.5030357902
 10
1.6390512441
 20
-0.4923014125
 10
1.6398599985
 20
-0.4810523729
 10
1.6398599985
 20
-0.4810523729
 10
1.6393453366
 20
-0.4727442587
 10
1.6378013508
 20
-0.4652448989
 10
1.6351545179
 20
-0.4584072474
 10
1.6315518843
 20
-0.4523783503
 10
1.62699345
 20
-0.4470846846
 10
1.621552738
 20
-0.4424527271
 10
1.6151562253
 20
-0.4386295241
 10
1.607950958
 20
-0.4355415525
 10
1.6037601394
 20
-0.434218136
 10
1.5989811356
 20
-0.433115289
 10
1.5936139468
 20
-0.4321594883
 10
1.5875115266
 20
-0.4314242569
 10
1.5808209213
 20
-0.4308360718
 10
1.573542131
 20
-0.430394933
 10
1.5656016324
 20
-0.4301008405
 10
1.5569994256
 20
-0.4300273174
 10
1.5569994256
 20
-0.4300273174
 10
1.4853143692
 20
-0.4300273174
  0
LWPOLYLINE
  5
81
330
1F
100
AcDbEntity
  8
0
  6
Continuous
 62
     7
100
AcDbPolyline
 90
      122
 70
   128
 43
0.0
 10
1.9221887814
 20
-0.6794177906
 10
1.9363052781
 20
-0.6935342325
 10
1.9363052781
 20
-0.6935342325
 10
1.9202772347
 20
-0.7077977206
 10
1.9040286219
 20
-0.7202231304
 10
1.8873388703
 20
-0.7307369387
 10
1.8704285493
 20
-0.7393391455
 10
1.8534447051
 20
-0.7460297507
 10
1.8366079073
 20
-0.7508822776
 10
1.8199916788
 20
-0.7537496799
 10
1.8035224966
 20
-0.7547054806
 10
1.8035224966
 20
-0.7547054806
 10
1.7927881189
 20
-0.7542643418
 10
1.7826419263
 20
-0.7530144485
 10
1.7729368725
 20
-0.7509558008
 10
1.7638200038
 20
-0.7480883985
 10
1.755217797
 20
-0.7443387186
 10
1.7472037754
 20
-0.7397802843
 10
1.7396308925
 20
-0.7344130954
 10
1.7326461947
 20
-0.7282371521
 10
1.7263232051
 20
-0.7213259774
 10
1.7208824931
 20
-0.7139001408
 10
1.7162505356
 20
-0.7059596423
 10
1.7125008557
 20
-0.6974309586
 10
1.7094864072
 20
-0.688387613
 10
1.7074277594
 20
-0.6787560824
 10
1.7061778661
 20
-0.6686098898
 10
1.7057367273
 20
-0.6579490352
 10
1.7057367273
 20
-0.6579490352
 10
1.706104343
 20
-0.6482439814
 10
1.7071336669
 20
-0.6386124508
 10
1.708824699
 20
-0.6291279664
 10
1.7112509624
 20
-0.6197905283
 10
1.7143389341
 20
-0.6105266133
 10
1.7181621371
 20
-0.6014097446
 10
1.7226470483
 20
-0.5924399221
 10
1.7277936678
 20
-0.5835436228
 10
1.7336019954
 20
-0.574941416
 10
1.739924985
 20
-0.5667068249
 10
1.7467626365
 20
-0.5589868958
 10
1.7542619963
 20
-0.5516345823
 10
1.7622024949
 20
-0.5447969308
 10
1.7707311785
 20
-0.5383268949
 10
1.7797745241
 20
-0.532371521
 10
1.7894060547
 20
-0.5267837628
 10
1.7994052011
 20
-0.5217841896
 10
1.8095513937
 20
-0.5173728015
 10
1.8198446325
 20
-0.5136966448
 10
1.8303584408
 20
-0.5106821962
 10
1.8410192954
 20
-0.5083294559
 10
1.8519007193
 20
-0.5066384238
 10
1.8629291895
 20
-0.5056826231
 10
1.874104706
 20
-0.5053150074
 10
1.874104706
 20
-0.5053150074
 10
1.8828539591
 20
-0.5055355768
 10
1.8910885502
 20
-0.5063443313
 10
1.8988084793
 20
-0.5075942246
 10
1.9060872697
 20
-0.5094323029
 10
1.9128513981
 20
-0.5117115201
 10
1.9191008645
 20
-0.5145053992
 10
1.9249091922
 20
-0.5178874634
 10
1.9302028579
 20
-0.5217106665
 10
1.9349083385
 20
-0.5259014851
 10
1.939025634
 20
-0.5302393501
 10
1.9425547445
 20
-0.5347977844
 10
1.9453486236
 20
-0.5395032651
 10
1.9475543177
 20
-0.5444293151
 10
1.9491718266
 20
-0.5495759345
 10
1.9501276274
 20
-0.5548696002
 10
1.9504217199
 20
-0.5603103122
 10
1.9504217199
 20
-0.5603103122
 10
1.9498335349
 20
-0.5669273944
 10
1.9481425028
 20
-0.5737650459
 10
1.9453486236
 20
-0.5807497437
 10
1.9413783744
 20
-0.5878814878
 10
1.9360847087
 20
-0.5950132318
 10
1.9292470571
 20
-0.6018508834
 10
1.9208654197
 20
-0.6084679655
 10
1.9109397966
 20
-0.6147909551
 10
1.9052785152
 20
-0.6178054036
 10
1.8990290487
 20
-0.6206728059
 10
1.8921913972
 20
-0.623466685
 10
1.8847655606
 20
-0.6261135179
 10
1.8767515389
 20
-0.6286133044
 10
1.868075809
 20
-0.6309660448
 10
1.8588854171
 20
-0.6332452619
 10
1.8490333171
 20
-0.6353774328
 10
1.8385930319
 20
-0.6373625575
 10
1.8276380848
 20
-0.6391271127
 10
1.8160214295
 20
-0.6407446217
 10
1.8038901123
 20
-0.6422150844
 10
1.7910970868
 20
-0.6435385008
 10
1.7777893994
 20
-0.644714871
 10
1.763893527
 20
-0.6456706717
 10
1.7494094694
 20
-0.6464794262
 10
1.7494094694
 20
-0.6464794262
 10
1.7488212843
 20
-0.6508908143
 10
1.7484536686
 20
-0.6546404942
 10
1.7481595761
 20
-0.6579490352
 10
1.748086053
 20
-0.6605958681
 10
1.748086053
 20
-0.6605958681
 10
1.7486007149
 20
-0.6697862599
 10
1.7502182239
 20
-0.6783884667
 10
1.7529385799
 20
-0.6866230578
 10
1.7566882597
 20
-0.6942694638
 10
1.7614672635
 20
-0.7012541616
 10
1.767202068
 20
-0.7075036281
 10
1.773745627
 20
-0.7130178632
 10
1.7812449868
 20
-0.717796867
 10
1.7893325316
 20
-0.72162007
 10
1.7975671227
 20
-0.7242669028
 10
1.8059487601
 20
-0.7259579349
 10
1.8144774437
 20
-0.7264725969
 10
1.8144774437
 20
-0.7264725969
 10
1.8259470527
 20
-0.7257373655
 10
1.8382989394
 20
-0.7234581483
 10
1.8515331036
 20
-0.7197084685
 10
1.8657230686
 20
-0.7144883259
 10
1.8802806493
 20
-0.7077977206
 10
1.8945441375
 20
-0.6997101758
 10
1.9085135331
 20
-0.6902256914
 10
1.9221888362
 20
-0.6794177906
  0
LWPOLYLINE
  5
82
330
1F
100
AcDbEntity
  8
0
  6
Continuous
 62
     7
100
AcDbPolyline
 90
       44
 70
   128
 43
0.0
 10
1.7524974083
 20
-0.6229520231
 10
1.7668344523
 20
-0.6214815604
 10
1.7801421397
 20
-0.6200110977
 10
1.7924205033
 20
-0.618540635
 10
1.8036695429
 20
-0.6170701723
 10
1.8138892586
 20
-0.6155997096
 10
1.8231531736
 20
-0.61420277
 10
1.8313142416
 20
-0.6127323073
 10
1.8385195088
 20
-0.6113353678
 10
1.8385195088
 20
-0.6113353678
 10
1.8488127476
 20
-0.6089826275
 10
1.8582237089
 20
-0.6064828409
 10
1.8668259157
 20
-0.603836008
 10
1.874619368
 20
-0.601115652
 10
1.8814570195
 20
-0.5982482498
 10
1.8874859166
 20
-0.5952338012
 10
1.8927060591
 20
-0.5921458296
 10
1.8970439241
 20
-0.5889108117
 10
1.9039550987
 20
-0.5821466833
 10
1.9088811488
 20
-0.5751619854
 10
1.9118220742
 20
-0.567809672
 10
1.9127778749
 20
-0.5601632659
 10
1.9127778749
 20
-0.5601632659
 10
1.9120426436
 20
-0.5537667532
 10
1.9098369495
 20
-0.5479584256
 10
1.9062343159
 20
-0.5426647599
 10
1.9010876965
 20
-0.5378857561
 10
1.8946911838
 20
-0.5339155068
 10
1.8870447777
 20
-0.5311216277
 10
1.8781484784
 20
-0.5294305956
 10
1.868075809
 20
-0.5288424105
 10
1.868075809
 20
-0.5288424105
 10
1.8566797231
 20
-0.5295776419
 10
1.8449160215
 20
-0.5318568591
 10
1.8328582274
 20
-0.5356800621
 10
1.8204328176
 20
-0.5409737278
 10
1.8083750235
 20
-0.5475172868
 10
1.7972730302
 20
-0.5552372159
 10
1.7870533144
 20
-0.563986469
 10
1.7778629226
 20
-0.5739120922
 10
1.7697018546
 20
-0.5847935161
 10
1.7627906799
 20
-0.5965572177
 10
1.7570558754
 20
-0.60927672
 10
1.7524974411
 20
-0.6229520231
  0
LWPOLYLINE
  5
83
330
1F
100
AcDbEntity
  8
0
  6
Continuous
 62
     7
100
AcDbPolyline
 90
      127
 70
   128
 43
0.0
 10
2.2051055131
 20
-0.5053150074
 10
2.2350297747
 20
-0.5053150074
 10
2.2350297747
 20
-0.5053150074
 10
2.1967977446
 20
-0.6972839123
 10
2.1967977446
 20
-0.6972839123
 10
2.1952537588
 20
-0.7065478273
 10
2.1947390969
 20
-0.7144883259
 10
2.1947390969
 20
-0.7144883259
 10
2.1949596663
 20
-0.7181644826
 10
2.1956948976
 20
-0.7214730237
 10
2.1968712678
 20
-0.724340426
 10
2.1985622999
 20
-0.7267666894
 10
2.2006209477
 20
-0.7286782909
 10
2.2029001648
 20
-0.7300752305
 10
2.2054734746
 20
-0.730883985
 10
2.2081938305
 20
-0.7311780775
 10
2.2081938305
 20
-0.7311780775
 10
2.211722941
 20
-0.7308104618
 10
2.2152520515
 20
-0.7297811379
 10
2.218781162
 20
-0.7280165827
 10
2.2223102724
 20
-0.7255903192
 10
2.2223102724
 20
-0.7255903192
 10
2.2278245075
 20
-0.7208113155
 10
2.2337798815
 20
-0.7146353722
 10
2.240102871
 20
-0.7071360124
 10
2.2468669994
 20
-0.6982397131
 10
2.2468669994
 20
-0.6982397131
 10
2.2609834413
 20
-0.7122826318
 10
2.2609834413
 20
-0.7122826318
 10
2.2557632988
 20
-0.7183115289
 10
2.250984295
 20
-0.7237522409
 10
2.2465729069
 20
-0.7285312446
 10
2.2426026576
 20
-0.7327220633
 10
2.239000024
 20
-0.7363246969
 10
2.2357650061
 20
-0.7392656223
 10
2.232971127
 20
-0.7416183626
 10
2.2306183867
 20
-0.7433829179
 10
2.2306183867
 20
-0.7433829179
 10
2.2223102724
 20
-0.7483089679
 10
2.2137815888
 20
-0.7518380784
 10
2.2050323357
 20
-0.7539702493
 10
2.1960625133
 20
-0.7547054806
 10
2.1960625133
 20
-0.7547054806
 10
2.1901806625
 20
-0.7544113881
 10
2.1847399505
 20
-0.7534555873
 10
2.1797403774
 20
-0.7519116015
 10
2.175181943
 20
-0.7497059075
 10
2.1711381706
 20
-0.7468385052
 10
2.167535537
 20
-0.743456441
 10
2.1643005191
 20
-0.7394126686
 10
2.1615801631
 20
-0.7348542342
 10
2.159374469
 20
-0.7299281842
 10
2.1578304832
 20
-0.7248550879
 10
2.1568746825
 20
-0.7197084685
 10
2.1565805899
 20
-0.7144883259
 10
2.1565805899
 20
-0.7144883259
 10
2.1568746825
 20
-0.7092681833
 10
2.1576834369
 20
-0.7020629161
 10
2.1590803765
 20
-0.6929460474
 10
2.1610655011
 20
-0.681844054
 10
2.1610655011
 20
-0.681844054
 10
2.1514339705
 20
-0.6952252646
 10
2.1421700555
 20
-0.7069889661
 10
2.1330531868
 20
-0.7170616356
 10
2.1243039337
 20
-0.725443273
 10
2.1156282038
 20
-0.7325014939
 10
2.1068789508
 20
-0.738530391
 10
2.0979826515
 20
-0.7436034873
 10
2.089012829
 20
-0.7476472597
 10
2.0799694835
 20
-0.7507352313
 10
2.0708526147
 20
-0.7529409254
 10
2.061735746
 20
-0.7542643418
 10
2.052471831
 20
-0.7547054806
 10
2.052471831
 20
-0.7547054806
 10
2.0446048556
 20
-0.754337865
 10
2.0371054959
 20
-0.7533085411
 10
2.0300472749
 20
-0.751617509
 10
2.0233566697
 20
-0.7491912455
 10
2.0170336801
 20
-0.7460297507
 10
2.0111518293
 20
-0.7422800708
 10
2.0057111173
 20
-0.7377951596
 10
2.000638021
 20
-0.7325750171
 10
2.000638021
 20
-0.7325750171
 10
1.9954914016
 20
-0.7261785043
 10
1.9910064903
 20
-0.7193408528
 10
1.9872568105
 20
-0.7119885393
 10
1.9841688388
 20
-0.704195087
 10
1.9817425754
 20
-0.6959604959
 10
1.9800515433
 20
-0.6872112429
 10
1.9790222194
 20
-0.678020851
 10
1.9786546037
 20
-0.6683157972
 10
1.9786546037
 20
-0.6683157972
 10
1.9789486962
 20
-0.6575078964
 10
1.979904497
 20
-0.646920565
 10
1.981522006
 20
-0.6364067567
 10
1.9837277
 20
-0.6261135179
 10
1.9865951023
 20
-0.6158938021
 10
1.9900506896
 20
-0.6058211327
 10
1.9941679851
 20
-0.5959690326
 10
1.9989469889
 20
-0.5861904557
 10
2.0042406546
 20
-0.5767794944
 10
2.009901936
 20
-0.5679567182
 10
2.0160043562
 20
-0.559648604
 10
2.022474392
 20
-0.5518551517
 10
2.0293120436
 20
-0.5446498845
 10
2.0365908339
 20
-0.5380328024
 10
2.0442372399
 20
-0.5319303822
 10
2.0522512616
 20
-0.5264161471
 10
2.0605593759
 20
-0.521490097
 10
2.0688674901
 20
-0.5171522321
 10
2.0773226506
 20
-0.5135495985
 10
2.0857778111
 20
-0.5106086731
 10
2.0943800179
 20
-0.5082559328
 10
2.1029822246
 20
-0.5066384238
 10
2.1117314777
 20
-0.5056090999
 10
2.1204807307
 20
-0.5053150074
 10
2.1204807307
 20
-0.5053150074
 10
2.1315827241
 20
-0.5057561462
 10
2.1420965324
 20
-0.5071530858
 10
2.1521692018
 20
-0.5095058261
 10
2.1617272093
 20
-0.512740844
 10
2.1707705549
 20
-0.5169316627
 10
2.1793727617
 20
-0.5220782821
 10
2.1873867834
 20
-0.5281807023
 10
2.1949596663
 20
-0.5352389233
 10
2.1949596663
 20
-0.5352389233
 10
2.2051058589
 20
-0.5053150074
  0
LWPOLYLINE
  5
84
330
1F
100
AcDbEntity
  8
0
  6
Continuous
 62
     7
100
AcDbPolyline
 90
       57
 70
   128
 43
0.0
 10
2.1873121187
 20
-0.5552372159
 10
2.180622655
 20
-0.549281842
 10
2.1735644341
 20
-0.5440616994
 10
2.1659915512
 20
-0.5395767882
 10
2.1579775295
 20
-0.5357535852
 10
2.1498164615
 20
-0.5327391367
 10
2.1418024398
 20
-0.5305334426
 10
2.1338619413
 20
-0.5292835493
 10
2.1259949658
 20
-0.5288424105
 10
2.1259949658
 20
-0.5288424105
 10
2.1138636486
 20
-0.5298717344
 10
2.1018793776
 20
-0.5329597061
 10
2.0899686298
 20
-0.5381798486
 10
2.0782049282
 20
-0.545458639
 10
2.0724701237
 20
-0.5499435502
 10
2.0669558886
 20
-0.5550166465
 10
2.0615886998
 20
-0.560751451
 10
2.0564420803
 20
-0.5670744406
 10
2.0515160303
 20
-0.5741326616
 10
2.0468105497
 20
-0.5817055444
 10
2.0422521153
 20
-0.5899401355
 10
2.0379142503
 20
-0.5988364349
 10
2.0304884137
 20
-0.6172172186
 10
2.0252682712
 20
-0.6357450485
 10
2.0220332532
 20
-0.6543464016
 10
2.0210039293
 20
-0.6730212779
 10
2.0210039293
 20
-0.6730212779
 10
2.021371545
 20
-0.6811088227
 10
2.0224008689
 20
-0.6886081824
 10
2.024091901
 20
-0.6955928802
 10
2.0264446413
 20
-0.701989393
 10
2.0293855667
 20
-0.7076506744
 10
2.032841154
 20
-0.7126502475
 10
2.0368114033
 20
-0.7168410662
 10
2.0412227914
 20
-0.7202966535
 10
2.0460017952
 20
-0.7230170095
 10
2.0510013683
 20
-0.724928611
 10
2.0561479878
 20
-0.7261049812
 10
2.0615151766
 20
-0.7264725969
 10
2.0615151766
 20
-0.7264725969
 10
2.0718084155
 20
-0.725443273
 10
2.0823957469
 20
-0.7224288245
 10
2.0932036477
 20
-0.7173557281
 10
2.1043056411
 20
-0.7102239841
 10
2.1043056411
 20
-0.7102239841
 10
2.1112903389
 20
-0.7048567952
 10
2.1181279904
 20
-0.6988278982
 10
2.1247450725
 20
-0.6921372929
 10
2.1312151084
 20
-0.6847849794
 10
2.1374645749
 20
-0.6768444809
 10
2.1435669951
 20
-0.668168751
 10
2.1494488458
 20
-0.658904836
 10
2.1551836504
 20
-0.6489792128
 10
2.1656239355
 20
-0.6277310268
 10
2.1744467117
 20
-0.6050123782
 10
2.181725502
 20
-0.58089679
 10
2.1873132603
 20
-0.5552372159
  0
LWPOLYLINE
  5
85
330
1F
100
AcDbEntity
  8
0
  6
Continuous
 62
     7
100
AcDbPolyline
 90
      139
 70
   128
 43
0.0
 10
2.4868442318
 20
-0.6794177906
 10
2.5009629533
 20
-0.6935342325
 10
2.5009629533
 20
-0.6935342325
 10
2.4845672942
 20
-0.7078712438
 10
2.4683922046
 20
-0.7202966535
 10
2.4524376843
 20
-0.7308104618
 10
2.4366302104
 20
-0.7394126686
 10
2.4209697826
 20
-0.7461032739
 10
2.4054564012
 20
-0.7508822776
 10
2.3901635892
 20
-0.7537496799
 10
2.3750913465
 20
-0.7547054806
 10
2.3750913465
 20
-0.7547054806
 10
2.3614160435
 20
-0.7539702493
 10
2.3485494949
 20
-0.7517645552
 10
2.3365652239
 20
-0.7481619216
 10
2.3254632305
 20
-0.7430153022
 10
2.3153170379
 20
-0.7365452663
 10
2.3064207386
 20
-0.728751814
 10
2.2985537632
 20
-0.7197084685
 10
2.2919366811
 20
-0.7093417065
 10
2.2866430154
 20
-0.6979456206
 10
2.2828198124
 20
-0.6859613496
 10
2.2805405952
 20
-0.6732418473
 10
2.2798053638
 20
-0.6599341599
 10
2.2798053638
 20
-0.6599341599
 10
2.2801729795
 20
-0.6500820598
 10
2.2811287803
 20
-0.6403034829
 10
2.2828198124
 20
-0.6305984291
 10
2.2851725527
 20
-0.6209668984
 10
2.2881870012
 20
-0.6114088909
 10
2.2918631579
 20
-0.6019244065
 10
2.2962010229
 20
-0.5925869684
 10
2.3012005961
 20
-0.5832495303
 10
2.3067883543
 20
-0.5742797078
 10
2.3127437282
 20
-0.5657510242
 10
2.319140241
 20
-0.5578105256
 10
2.3259778925
 20
-0.5503111659
 10
2.3331831597
 20
-0.5433999912
 10
2.3408295657
 20
-0.5370034785
 10
2.3489171105
 20
-0.5311216277
 10
2.3574457942
 20
-0.5257544389
 10
2.3662685704
 20
-0.5209754351
 10
2.3751648697
 20
-0.5167846164
 10
2.3842817384
 20
-0.5133290291
 10
2.3934721302
 20
-0.5103881037
 10
2.4028095684
 20
-0.5081824096
 10
2.4122940527
 20
-0.5065649007
 10
2.4218520603
 20
-0.5056090999
 10
2.4316306372
 20
-0.5053150074
 10
2.4316306372
 20
-0.5053150074
 10
2.4400122746
 20
-0.5056090999
 10
2.4480262963
 20
-0.5064178544
 10
2.4555991791
 20
-0.507814794
 10
2.4628779695
 20
-0.5097999186
 10
2.469715621
 20
-0.5122997052
 10
2.47625918
 20
-0.5153876769
 10
2.4823616002
 20
-0.5190638336
 10
2.4880964047
 20
-0.5232546523
 10
2.4933165473
 20
-0.5278130866
 10
2.4978749816
 20
-0.5325185673
 10
2.5016981847
 20
-0.5374446173
 10
2.5047861563
 20
-0.5424441905
 10
2.5072124198
 20
-0.547664333
 10
2.508976975
 20
-0.5529579987
 10
2.5100062989
 20
-0.5584722338
 10
2.5103739146
 20
-0.5641335152
 10
2.5103739146
 20
-0.5641335152
 10
2.5100062989
 20
-0.571118213
 10
2.5087564056
 20
-0.5772206332
 10
2.506771281
 20
-0.5824407758
 10
2.5039774018
 20
-0.5868521639
 10
2.5005218145
 20
-0.5903077512
 10
2.4965515652
 20
-0.5927340147
 10
2.4921401771
 20
-0.5942044774
 10
2.487140604
 20
-0.5947191393
 10
2.487140604
 20
-0.5947191393
 10
2.483317401
 20
-0.5943515236
 10
2.4797882905
 20
-0.5931751535
 10
2.4765532726
 20
-0.5911900288
 10
2.4736123472
 20
-0.5884696728
 10
2.4711860837
 20
-0.5851611318
 10
2.4694215285
 20
-0.5815584982
 10
2.4683922046
 20
-0.577661772
 10
2.4680245889
 20
-0.5734709533
 10
2.4680245889
 20
-0.5734709533
 10
2.4683186815
 20
-0.5657510242
 10
2.4683186815
 20
-0.5657510242
 10
2.4685392509
 20
-0.5575899562
 10
2.4685392509
 20
-0.5575899562
 10
2.4678775427
 20
-0.5519286749
 10
2.465892418
 20
-0.5467085323
 10
2.4626574001
 20
-0.5417824823
 10
2.4580254426
 20
-0.537297571
 10
2.4580254426
 20
-0.537297571
 10
2.4523641612
 20
-0.5336214143
 10
2.4460411716
 20
-0.5309745814
 10
2.4389094275
 20
-0.5293570725
 10
2.4311159753
 20
-0.5288424105
 10
2.4311159753
 20
-0.5288424105
 10
2.4188376117
 20
-0.5298717344
 10
2.4064857251
 20
-0.5329597061
 10
2.3941338384
 20
-0.5381798486
 10
2.3817819518
 20
-0.545458639
 10
2.3756795316
 20
-0.5498700271
 10
2.369871204
 20
-0.5547960771
 10
2.3642099226
 20
-0.5602367891
 10
2.3588427337
 20
-0.566192163
 10
2.3536961143
 20
-0.5726621989
 10
2.3487700643
 20
-0.5795733735
 10
2.3440645836
 20
-0.5870727333
 10
2.3395796724
 20
-0.595086755
 10
2.3319332664
 20
-0.6116294603
 10
2.3264925544
 20
-0.6282456888
 10
2.3232575365
 20
-0.6450824866
 10
2.3221546895
 20
-0.6619928076
 10
2.3221546895
 20
-0.6619928076
 10
2.3226693514
 20
-0.6709626301
 10
2.3241398141
 20
-0.6794913137
 10
2.3266396007
 20
-0.6875788586
 10
2.3301687112
 20
-0.6952252646
 10
2.3345800993
 20
-0.7022099624
 10
2.3397267187
 20
-0.7083859057
 10
2.3456820926
 20
-0.7136795714
 10
2.3523726979
 20
-0.7182380058
 10
2.3595779651
 20
-0.7218406394
 10
2.3669302786
 20
-0.7244139491
 10
2.3745031615
 20
-0.7259579349
 10
2.3821495675
 20
-0.7264725969
 10
2.3821495675
 20
-0.7264725969
 10
2.3890607421
 20
-0.7261785043
 10
2.3963395325
 20
-0.7253697498
 10
2.4039859385
 20
-0.7239728103
 10
2.4119999602
 20
-0.7219876856
 10
2.428248573
 20
-0.7164734505
 10
2.4441295701
 20
-0.7089005676
 10
2.4527317769
 20
-0.7038274713
 10
2.4627309232
 20
-0.6972103892
 10
2.474053486
 20
-0.6891228444
 10
2.4868465114
 20
-0.6794177906
  0
LWPOLYLINE
  5
86
330
1F
100
AcDbEntity
  8
0
  6
Continuous
 62
     7
100
AcDbPolyline
 90
      129
 70
   128
 43
0.0
 10
2.6574191146
 20
-0.3876779917
 10
2.6125710719
 20
-0.5817790676
 10
2.6125710719
 20
-0.5817790676
 10
2.6219085101
 20
-0.5688389959
 10
2.6314665176
 20
-0.5572223406
 10
2.6411715714
 20
-0.5468555786
 10
2.6511707177
 20
-0.537812233
 10
2.6612433872
 20
-0.5299452575
 10
2.6713160566
 20
-0.5232546523
 10
2.6813887261
 20
-0.517666894
 10
2.6914613956
 20
-0.5131819828
 10
2.701534065
 20
-0.5097263955
 10
2.7116067345
 20
-0.507300132
 10
2.7215323577
 20
-0.5058296693
 10
2.7314579809
 20
-0.5053150074
 10
2.7314579809
 20
-0.5053150074
 10
2.7435892981
 20
-0.506197285
 10
2.7546177684
 20
-0.508917641
 10
2.7646169147
 20
-0.5134025522
 10
2.7735867371
 20
-0.5197255418
 10
2.7810125738
 20
-0.5271513784
 10
2.7863062395
 20
-0.535091877
 10
2.7894677343
 20
-0.5435470375
 10
2.7904970581
 20
-0.5524433368
 10
2.7904970581
 20
-0.5524433368
 10
2.7902764887
 20
-0.5583251876
 10
2.7896147805
 20
-0.5647217003
 10
2.7885854566
 20
-0.5715593518
 10
2.7870414708
 20
-0.5789116653
 10
2.7870414708
 20
-0.5789116653
 10
2.760940758
 20
-0.692210816
 10
2.760940758
 20
-0.692210816
 10
2.7596908647
 20
-0.6985338056
 10
2.7587350639
 20
-0.7041215639
 10
2.758220402
 20
-0.7090476139
 10
2.7579998326
 20
-0.7132384326
 10
2.7579998326
 20
-0.7132384326
 10
2.7582939251
 20
-0.7170616356
 10
2.7591762027
 20
-0.7205172229
 10
2.7606466654
 20
-0.7236051946
 10
2.7627053132
 20
-0.7262520275
 10
2.7652050998
 20
-0.7283841984
 10
2.7679989789
 20
-0.7299281842
 10
2.7710869506
 20
-0.730883985
 10
2.7744690148
 20
-0.7311780775
 10
2.7744690148
 20
-0.7311780775
 10
2.7790274491
 20
-0.7308104618
 10
2.7836594066
 20
-0.7296340917
 10
2.7882913641
 20
-0.7277224902
 10
2.7929968447
 20
-0.7250756573
 10
2.7929968447
 20
-0.7250756573
 10
2.8003491582
 20
-0.7197084685
 10
2.8074073792
 20
-0.713459002
 10
2.8143185538
 20
-0.7062537348
 10
2.820935636
 20
-0.6982397131
 10
2.820935636
 20
-0.6982397131
 10
2.8350520778
 20
-0.711841493
 10
2.8350520778
 20
-0.711841493
 10
2.8267439636
 20
-0.7219141625
 10
2.81821528
 20
-0.7305898924
 10
2.8094660269
 20
-0.7379422059
 10
2.8004962045
 20
-0.7439711029
 10
2.7913058126
 20
-0.7486765836
 10
2.7819683745
 20
-0.7520586478
 10
2.7723368439
 20
-0.7540437724
 10
2.7625582669
 20
-0.7547054806
 10
2.7625582669
 20
-0.7547054806
 10
2.7536619676
 20
-0.7539702493
 10
2.7455744228
 20
-0.7517645552
 10
2.7382956324
 20
-0.7481619216
 10
2.7317520734
 20
-0.7430888253
 10
2.7263848846
 20
-0.7369864051
 10
2.7226352047
 20
-0.7304428461
 10
2.7202824644
 20
-0.7233846252
 10
2.7195472331
 20
-0.7158117423
 10
2.7195472331
 20
-0.7158117423
 10
2.7197678025
 20
-0.7102975072
 10
2.7203559875
 20
-0.7042686102
 10
2.7213853114
 20
-0.6977250512
 10
2.7228557741
 20
-0.6906668302
 10
2.7228557741
 20
-0.6906668302
 10
2.7499122877
 20
-0.5735444765
 10
2.7499122877
 20
-0.5735444765
 10
2.7516033198
 20
-0.5636188533
 10
2.7521915049
 20
-0.5553107391
 10
2.7521915049
 20
-0.5553107391
 10
2.751676843
 20
-0.550899351
 10
2.7502063803
 20
-0.5468555786
 10
2.7476330706
 20
-0.5431794218
 10
2.7441039601
 20
-0.5398708807
 10
2.7398396183
 20
-0.5370770016
 10
2.7350606145
 20
-0.535091877
 10
2.7298404719
 20
-0.5339155068
 10
2.7241056674
 20
-0.5335478912
 10
2.7241056674
 20
-0.5335478912
 10
2.7152093681
 20
-0.5341360762
 10
2.7061660225
 20
-0.5359741546
 10
2.697122677
 20
-0.5390621263
 10
2.6880058082
 20
-0.5433999912
 10
2.6880058082
 20
-0.5433999912
 10
2.6749922134
 20
-0.5515610592
 10
2.6624932805
 20
-0.5613396361
 10
2.6503619632
 20
-0.5728827683
 10
2.6387453079
 20
-0.5861169325
 10
2.6279374071
 20
-0.600527467
 10
2.6184529227
 20
-0.6154526633
 10
2.6100712854
 20
-0.631113091
 10
2.6030130644
 20
-0.6472881807
 10
2.5969841674
 20
-0.6633897472
 10
2.5916905017
 20
-0.6787560824
 10
2.5872791136
 20
-0.6933136631
 10
2.5836029568
 20
-0.7071360124
 10
2.5836029568
 20
-0.7071360124
 10
2.5736773336
 20
-0.75
 10
2.5736773336
 20
-0.75
 10
2.535151211
 20
-0.75
 10
2.535151211
 20
-0.75
 10
2.6091154846
 20
-0.4300273174
 10
2.6091154846
 20
-0.4300273174
 10
2.5633840948
 20
-0.4300273174
 10
2.5633840948
 20
-0.4300273174
 10
2.5680160522
 20
-0.4064999142
 10
2.5680160522
 20
-0.4064999142
 10
2.5865438822
 20
-0.4040001276
 10
2.6045570502
 20
-0.3999563552
 10
2.6220555563
 20
-0.3945891664
 10
2.6390394005
 20
-0.3876779917
 10
2.6390394005
 20
-0.3876779917
 10
2.6574201842
 20
-0.3876779917
  0
LWPOLYLINE
  5
87
330
1F
100
AcDbEntity
  8
0
  6
Continuous
 62
     7
100
AcDbPolyline
 90
      112
 70
   128
 43
0.0
 10
-1.179531334
 20
-0.8923834723
 10
-1.1693119358
 20
-1.0003889574
 10
-1.1693119358
 20
-1.0003889574
 10
-1.1881338583
 20
-1.0053150074
 10
-1.1881338583
 20
-1.0053150074
 10
-1.19122183
 20
-0.9906839036
 10
-1.1951185562
 20
-0.977817355
 10
-1.1996769905
 20
-0.9666418385
 10
-1.2049706562
 20
-0.9573044004
 10
-1.210852507
 20
-0.9494374249
 10
-1.217396066
 20
-0.9426732965
 10
-1.2244542869
 20
-0.9371590614
 10
-1.232100693
 20
-0.9328211965
 10
-1.2363650348
 20
-0.9310566412
 10
-1.2410705154
 20
-0.9295126554
 10
-1.2463641811
 20
-0.9282627621
 10
-1.2521725088
 20
-0.9271599151
 10
-1.2585690215
 20
-0.9263511606
 10
-1.265406673
 20
-0.9257629755
 10
-1.2728325096
 20
-0.925468883
 10
-1.2807730082
 20
-0.9253218367
 10
-1.2807730082
 20
-0.9253218367
 10
-1.2844491649
 20
-0.925468883
 10
-1.2873900903
 20
-0.9259835449
 10
-1.2898163538
 20
-0.9267922994
 10
-1.2915073859
 20
-0.9278951464
 10
-1.2928308023
 20
-0.9295861785
 10
-1.2940806956
 20
-0.9321594883
 10
-1.2951835426
 20
-0.9356150756
 10
-1.2962128665
 20
-0.9399529406
 10
-1.2962128665
 20
-0.9399529406
 10
-1.3553254669
 20
-1.1972103892
 10
-1.3553254669
 20
-1.1972103892
 10
-1.3567959296
 20
-1.2057390729
 10
-1.3573105915
 20
-1.2126502475
 10
-1.3573105915
 20
-1.2126502475
 10
-1.3564283139
 20
-1.2185320983
 10
-1.3537079579
 20
-1.2236051946
 10
-1.3494436161
 20
-1.2275019208
 10
-1.3437823347
 20
-1.2297811379
 10
-1.3397385623
 20
-1.230369323
 10
-1.3338567115
 20
-1.2308104618
 10
-1.3262838286
 20
-1.2311045544
 10
-1.3168728674
 20
-1.2311780775
 10
-1.3168728674
 20
-1.2311780775
 10
-1.3213577786
 20
-1.25
 10
-1.3213577786
 20
-1.25
 10
-1.4564197772
 20
-1.25
 10
-1.4564197772
 20
-1.25
 10
-1.4514937272
 20
-1.2311780775
 10
-1.4514937272
 20
-1.2311780775
 10
-1.4432591361
 20
-1.2309575081
 10
-1.436127392
 20
-1.2305898924
 10
-1.4302455412
 20
-1.2301487536
 10
-1.4254665375
 20
-1.2295605685
 10
-1.4214962882
 20
-1.228751814
 10
-1.4179671777
 20
-1.227648967
 10
-1.4149527292
 20
-1.2263255506
 10
-1.4124529426
 20
-1.2247080416
 10
-1.4081886008
 20
-1.2203701767
 10
-1.4048065366
 20
-1.214561849
 10
-1.4048065366
 20
-1.214561849
 10
-1.4026008426
 20
-1.2093417065
 10
-1.4007627642
 20
-1.204709749
 10
-1.3995128709
 20
-1.2007394997
 10
-1.3986305933
 20
-1.1973574355
 10
-1.3986305933
 20
-1.1973574355
 10
-1.3403267474
 20
-0.9437761436
 10
-1.3403267474
 20
-0.9437761436
 10
-1.3395179929
 20
-0.9400264637
 10
-1.339003331
 20
-0.9367179226
 10
-1.3386357153
 20
-0.9339975666
 10
-1.3385621921
 20
-0.9317918726
 10
-1.3385621921
 20
-0.9317918726
 10
-1.3392974235
 20
-0.9288509472
 10
-1.3414295944
 20
-0.9268658226
 10
-1.3433411959
 20
-0.9262041143
 10
-1.346135075
 20
-0.9256894524
 10
-1.3498112318
 20
-0.9253953599
 10
-1.3544431893
 20
-0.9253218367
 10
-1.3544431893
 20
-0.9253218367
 10
-1.3660598446
 20
-0.9258364987
 10
-1.3767942222
 20
-0.9273069614
 10
-1.3866463223
 20
-0.9298802711
 10
-1.3956161447
 20
-0.9334093816
 10
-1.4041448284
 20
-0.9381883853
 10
-1.4128940814
 20
-0.9445113749
 10
-1.4217168576
 20
-0.9523783503
 10
-1.43068668
 20
-0.9617157885
 10
-1.43068668
 20
-0.9617157885
 10
-1.4337011286
 20
-0.9652448989
 10
-1.4369361465
 20
-0.9692886713
 10
-1.4403917338
 20
-0.9738471057
 10
-1.4440678906
 20
-0.9790672483
 10
-1.4479646167
 20
-0.9848020528
 10
-1.4520819123
 20
-0.9910515192
 10
-1.4564933004
 20
-0.9978891708
 10
-1.4610517347
 20
-1.0053150074
 10
-1.4610517347
 20
-1.0053150074
 10
-1.4798736572
 20
-0.9934042596
 10
-1.4798736572
 20
-0.9934042596
 10
-1.4232608434
 20
-0.8923834723
 10
-1.4232608434
 20
-0.8923834723
 10
-1.4091444016
 20
-0.8923834723
 10
-1.4091444016
 20
-0.8923834723
 10
-1.4091444016
 20
-0.9017944336
 10
-1.4091444016
 20
-0.9017944336
 10
-1.2090879518
 20
-0.9017944336
 10
-1.2090879518
 20
-0.9017944336
 10
-1.1936480935
 20
-0.8923834723
 10
-1.1936480935
 20
-0.8923834723
 10
-1.1795316516
 20
-0.8923834723
  0
LWPOLYLINE
  5
88
330
1F
100
AcDbEntity
  8
0
  6
Continuous
 62
     7
100
AcDbPolyline
 90
      129
 70
   128
 43
0.0
 10
-1.0552040235
 20
-0.8876779917
 10
-1.1000531429
 20
-1.0817790676
 10
-1.1000531429
 20
-1.0817790676
 10
-1.0907157047
 20
-1.0688389959
 10
-1.0811576972
 20
-1.0572223406
 10
-1.0714526434
 20
-1.0468555786
 10
-1.0614534971
 20
-1.037812233
 10
-1.0513808276
 20
-1.0299452575
 10
-1.0413081582
 20
-1.0232546523
 10
-1.0312354887
 20
-1.017666894
 10
-1.0211628192
 20
-1.0131819828
 10
-1.0110901498
 20
-1.0097263955
 10
-1.0010174803
 20
-1.007300132
 10
-0.9910918571
 20
-1.0058296693
 10
-0.9811662339
 20
-1.0053150074
 10
-0.9811662339
 20
-1.0053150074
 10
-0.9690349166
 20
-1.006197285
 10
-0.9580064464
 20
-1.008917641
 10
-0.9480073001
 20
-1.0134025522
 10
-0.9390374776
 20
-1.0197255418
 10
-0.931611641
 20
-1.0271513784
 10
-0.9263179753
 20
-1.035091877
 10
-0.9231564805
 20
-1.0435470375
 10
-0.9221271566
 20
-1.0524433368
 10
-0.9221271566
 20
-1.0524433368
 10
-0.922347726
 20
-1.0583251876
 10
-0.9230094343
 20
-1.0647217003
 10
-0.9240387581
 20
-1.0715593518
 10
-0.925582744
 20
-1.0789116653
 10
-0.925582744
 20
-1.0789116653
 10
-0.9516834568
 20
-1.192210816
 10
-0.9516834568
 20
-1.192210816
 10
-0.9529333501
 20
-1.1985338056
 10
-0.9538891509
 20
-1.2041215639
 10
-0.9544038128
 20
-1.2090476139
 10
-0.9546243822
 20
-1.2132384326
 10
-0.9546243822
 20
-1.2132384326
 10
-0.9543302897
 20
-1.2170616356
 10
-0.9534480121
 20
-1.2205172229
 10
-0.9519775494
 20
-1.2236051946
 10
-0.9499189016
 20
-1.2262520275
 10
-0.947419115
 20
-1.2283841984
 10
-0.9446252359
 20
-1.2299281842
 10
-0.9415372642
 20
-1.230883985
 10
-0.9381552
 20
-1.2311780775
 10
-0.9381552
 20
-1.2311780775
 10
-0.9335967657
 20
-1.2308104618
 10
-0.9289648082
 20
-1.2296340917
 10
-0.9243328507
 20
-1.2277224902
 10
-0.9196273701
 20
-1.2250756573
 10
-0.9196273701
 20
-1.2250756573
 10
-0.9122750566
 20
-1.2197084685
 10
-0.9052168356
 20
-1.213459002
 10
-0.898305661
 20
-1.2062537348
 10
-0.8916885788
 20
-1.1982397131
 10
-0.8916885788
 20
-1.1982397131
 10
-0.877572137
 20
-1.211841493
 10
-0.877572137
 20
-1.211841493
 10
-0.8858802512
 20
-1.2219141625
 10
-0.8944089348
 20
-1.2305898924
 10
-0.9031581879
 20
-1.2379422059
 10
-0.9121280103
 20
-1.2439711029
 10
-0.9213184022
 20
-1.2486765836
 10
-0.9306558403
 20
-1.2520586478
 10
-0.9402873709
 20
-1.2540437724
 10
-0.9500659479
 20
-1.2547054806
 10
-0.9500659479
 20
-1.2547054806
 10
-0.9589622472
 20
-1.2539702493
 10
-0.967049792
 20
-1.2517645552
 10
-0.9743285824
 20
-1.2481619216
 10
-0.9808721413
 20
-1.2430888253
 10
-0.9862393302
 20
-1.2369864051
 10
-0.9899890101
 20
-1.2304428461
 10
-0.9923417504
 20
-1.2233846252
 10
-0.9930769817
 20
-1.2158117423
 10
-0.9930769817
 20
-1.2158117423
 10
-0.9928564123
 20
-1.2102975072
 10
-0.9922682272
 20
-1.2042686102
 10
-0.9912389034
 20
-1.1977250512
 10
-0.9897684407
 20
-1.1906668302
 10
-0.9897684407
 20
-1.1906668302
 10
-0.9627119271
 20
-1.0735444765
 10
-0.9627119271
 20
-1.0735444765
 10
-0.961020895
 20
-1.0636188533
 10
-0.9604327099
 20
-1.0553107391
 10
-0.9604327099
 20
-1.0553107391
 10
-0.9609473718
 20
-1.050899351
 10
-0.9624178345
 20
-1.0468555786
 10
-0.9649911442
 20
-1.0431794218
 10
-0.9685202547
 20
-1.0398708807
 10
-0.9727845965
 20
-1.0370770016
 10
-0.9775636003
 20
-1.035091877
 10
-0.9827837429
 20
-1.0339155068
 10
-0.9885185474
 20
-1.0335478912
 10
-0.9885185474
 20
-1.0335478912
 10
-0.9974148467
 20
-1.0341360762
 10
-1.0064581923
 20
-1.0359741546
 10
-1.0155015378
 20
-1.0390621263
 10
-1.0246184066
 20
-1.0433999912
 10
-1.0246184066
 20
-1.0433999912
 10
-1.0376320014
 20
-1.0515610592
 10
-1.0501309343
 20
-1.0613396361
 10
-1.0622622516
 20
-1.0728827683
 10
-1.0738789069
 20
-1.0861169325
 10
-1.0846868077
 20
-1.100527467
 10
-1.0941712921
 20
-1.1154526633
 10
-1.1025529294
 20
-1.131113091
 10
-1.1096111504
 20
-1.1472881807
 10
-1.1156400474
 20
-1.1633897472
 10
-1.1209337131
 20
-1.1787560824
 10
-1.1253451012
 20
-1.1933136631
 10
-1.129021258
 20
-1.2071360124
 10
-1.129021258
 20
-1.2071360124
 10
-1.1389468812
 20
-1.25
 10
-1.1389468812
 20
-1.25
 10
-1.1774730038
 20
-1.25
 10
-1.1774730038
 20
-1.25
 10
-1.1035087302
 20
-0.9300273174
 10
-1.1035087302
 20
-0.9300273174
 10
-1.14924012
 20
-0.9300273174
 10
-1.14924012
 20
-0.9300273174
 10
-1.1446081625
 20
-0.9064999142
 10
-1.1446081625
 20
-0.9064999142
 10
-1.1260803326
 20
-0.9040001276
 10
-1.1080671645
 20
-0.8999563552
 10
-1.0905686585
 20
-0.8945891664
 10
-1.0735848143
 20
-0.8876779917
 10
-1.0735848143
 20
-0.8876779917
 10
-1.0552040306
 20
-0.8876779917
  0
LWPOLYLINE
  5
89
330
1F
100
AcDbEntity
  8
0
  6
Continuous
 62
     7
100
AcDbPolyline
 90
      122
 70
   128
 43
0.0
 10
-0.656414337
 20
-1.1794177906
 10
-0.6422981056
 20
-1.1935342325
 10
-0.6422981056
 20
-1.1935342325
 10
-0.658326149
 20
-1.2077977206
 10
-0.6745747618
 20
-1.2202231304
 10
-0.6912645134
 20
-1.2307369387
 10
-0.7081748344
 20
-1.2393391455
 10
-0.7251586785
 20
-1.2460297507
 10
-0.7419954764
 20
-1.2508822776
 10
-0.7586117049
 20
-1.2537496799
 10
-0.775080887
 20
-1.2547054806
 10
-0.775080887
 20
-1.2547054806
 10
-0.7858152647
 20
-1.2542643418
 10
-0.7959614573
 20
-1.2530144485
 10
-0.8056665111
 20
-1.2509558008
 10
-0.8147833798
 20
-1.2480883985
 10
-0.8233855866
 20
-1.2443387186
 10
-0.8313996083
 20
-1.2397802843
 10
-0.8389724912
 20
-1.2344130954
 10
-0.845957189
 20
-1.2282371521
 10
-0.8522801786
 20
-1.2213259774
 10
-0.8577208906
 20
-1.2139001408
 10
-0.8623528481
 20
-1.2059596423
 10
-0.8661025279
 20
-1.1974309586
 10
-0.8691169765
 20
-1.188387613
 10
-0.8711756242
 20
-1.1787560824
 10
-0.8724255175
 20
-1.1686098898
 10
-0.8728666563
 20
-1.1579490352
 10
-0.8728666563
 20
-1.1579490352
 10
-0.8724990407
 20
-1.1482439814
 10
-0.8714697168
 20
-1.1386124508
 10
-0.8697786847
 20
-1.1291279664
 10
-0.8673524212
 20
-1.1197905283
 10
-0.8642644496
 20
-1.1105266133
 10
-0.8604412465
 20
-1.1014097446
 10
-0.8559563353
 20
-1.0924399221
 10
-0.8508097159
 20
-1.0835436228
 10
-0.8450013882
 20
-1.074941416
 10
-0.8386783986
 20
-1.0667068249
 10
-0.8318407471
 20
-1.0589868958
 10
-0.8243413874
 20
-1.0516345823
 10
-0.8164008888
 20
-1.0447969308
 10
-0.8078722052
 20
-1.0383268949
 10
-0.7988288596
 20
-1.032371521
 10
-0.7891973289
 20
-1.0267837628
 10
-0.7791981826
 20
-1.0217841896
 10
-0.76905199
 20
-1.0173728015
 10
-0.7587587511
 20
-1.0136966448
 10
-0.7482449428
 20
-1.0106821962
 10
-0.7375840883
 20
-1.0083294559
 10
-0.7267026643
 20
-1.0066384238
 10
-0.7156741941
 20
-1.0056826231
 10
-0.7044986776
 20
-1.0053150074
 10
-0.7044986776
 20
-1.0053150074
 10
-0.6957494246
 20
-1.0055355768
 10
-0.6875148335
 20
-1.0063443313
 10
-0.6797949043
 20
-1.0075942246
 10
-0.672516114
 20
-1.0094323029
 10
-0.6657519856
 20
-1.0117115201
 10
-0.6595025191
 20
-1.0145053992
 10
-0.6536941915
 20
-1.0178874634
 10
-0.6484005258
 20
-1.0217106665
 10
-0.6436950452
 20
-1.0259014851
 10
-0.6395777496
 20
-1.0302393501
 10
-0.6360486391
 20
-1.0347977844
 10
-0.63325476
 20
-1.0395032651
 10
-0.631049066
 20
-1.0444293151
 10
-0.629431557
 20
-1.0495759345
 10
-0.6284757563
 20
-1.0548696002
 10
-0.6281816637
 20
-1.0603103122
 10
-0.6281816637
 20
-1.0603103122
 10
-0.6287698488
 20
-1.0669273944
 10
-0.6304608809
 20
-1.0737650459
 10
-0.63325476
 20
-1.0807497437
 10
-0.6372250093
 20
-1.0878814878
 10
-0.642518675
 20
-1.0950132318
 10
-0.6493563265
 20
-1.1018508834
 10
-0.6577379639
 20
-1.1084679655
 10
-0.6676635871
 20
-1.1147909551
 10
-0.6733248685
 20
-1.1178054036
 10
-0.6795743349
 20
-1.1206728059
 10
-0.6864119865
 20
-1.123466685
 10
-0.6938378231
 20
-1.1261135179
 10
-0.7018518448
 20
-1.1286133044
 10
-0.7105275747
 20
-1.1309660448
 10
-0.7197179665
 20
-1.1332452619
 10
-0.7295700666
 20
-1.1353774328
 10
-0.7400103517
 20
-1.1373625575
 10
-0.7509652988
 20
-1.1391271127
 10
-0.7625819541
 20
-1.1407446217
 10
-0.7747132714
 20
-1.1422150844
 10
-0.7875062968
 20
-1.1435385008
 10
-0.8008139842
 20
-1.144714871
 10
-0.8147098567
 20
-1.1456706717
 10
-0.8291939143
 20
-1.1464794262
 10
-0.8291939143
 20
-1.1464794262
 10
-0.8297820993
 20
-1.1508908143
 10
-0.830149715
 20
-1.1546404942
 10
-0.8304438076
 20
-1.1579490352
 10
-0.8305173307
 20
-1.1605958681
 10
-0.8305173307
 20
-1.1605958681
 10
-0.8300026687
 20
-1.1697862599
 10
-0.8283851598
 20
-1.1783884667
 10
-0.8256648038
 20
-1.1866230578
 10
-0.8219151239
 20
-1.1942694638
 10
-0.8171361202
 20
-1.2012541616
 10
-0.8114013156
 20
-1.2075036281
 10
-0.8048577566
 20
-1.2130178632
 10
-0.7973583969
 20
-1.217796867
 10
-0.7892708521
 20
-1.22162007
 10
-0.781036261
 20
-1.2242669028
 10
-0.7726546236
 20
-1.2259579349
 10
-0.76412594
 20
-1.2264725969
 10
-0.76412594
 20
-1.2264725969
 10
-0.7526563309
 20
-1.2257373655
 10
-0.7403044443
 20
-1.2234581483
 10
-0.72707028
 20
-1.2197084685
 10
-0.712880315
 20
-1.2144883259
 10
-0.6983227343
 20
-1.2077977206
 10
-0.6840592462
 20
-1.1997101758
 10
-0.6700898506
 20
-1.1902256914
 10
-0.6564145475
 20
-1.1794177906
  0
LWPOLYLINE
  5
8A
330
1F
100
AcDbEntity
  8
0
  6
Continuous
 62
     7
100
AcDbPolyline
 90
       44
 70
   128
 43
0.0
 10
-0.8261057101
 20
-1.1229520231
 10
-0.8117689313
 20
-1.1214815604
 10
-0.7984612439
 20
-1.1200110977
 10
-0.7861828804
 20
-1.118540635
 10
-0.7749338408
 20
-1.1170701723
 10
-0.764714125
 20
-1.1155997096
 10
-0.7554502101
 20
-1.11420277
 10
-0.7472891421
 20
-1.1127323073
 10
-0.7400838749
 20
-1.1113353678
 10
-0.7400838749
 20
-1.1113353678
 10
-0.729790636
 20
-1.1089826275
 10
-0.7203796748
 20
-1.1064828409
 10
-0.711777468
 20
-1.103836008
 10
-0.7039840157
 20
-1.101115652
 10
-0.6971463642
 20
-1.0982482498
 10
-0.6911174671
 20
-1.0952338012
 10
-0.6858973245
 20
-1.0921458296
 10
-0.6815594596
 20
-1.0889108117
 10
-0.6746482849
 20
-1.0821466833
 10
-0.6697222349
 20
-1.0751619854
 10
-0.6667813095
 20
-1.067809672
 10
-0.6658255087
 20
-1.0601632659
 10
-0.6658255087
 20
-1.0601632659
 10
-0.6665607401
 20
-1.0537667532
 10
-0.6687664341
 20
-1.0479584256
 10
-0.6723690677
 20
-1.0426647599
 10
-0.6775156872
 20
-1.0378857561
 10
-0.6839121999
 20
-1.0339155068
 10
-0.6915586059
 20
-1.0311216277
 10
-0.7004549052
 20
-1.0294305956
 10
-0.7105275747
 20
-1.0288424105
 10
-0.7105275747
 20
-1.0288424105
 10
-0.7219236606
 20
-1.0295776419
 10
-0.7336873622
 20
-1.0318568591
 10
-0.7457451563
 20
-1.0356800621
 10
-0.758170566
 20
-1.0409737278
 10
-0.7702283602
 20
-1.0475172868
 10
-0.7813303535
 20
-1.0552372159
 10
-0.7915500692
 20
-1.063986469
 10
-0.8007404611
 20
-1.0739120922
 10
-0.8089015291
 20
-1.0847935161
 10
-0.8158127037
 20
-1.0965572177
 10
-0.8215475082
 20
-1.10927672
 10
-0.8261059426
 20
-1.1229520231
  0
LWPOLYLINE
  5
8B
330
1F
100
AcDbEntity
  8
0
  6
Continuous
 62
     7
100
AcDbPolyline
 90
      171
 70
   128
 43
0.0
 10
-0.392392747
 20
-0.9017944336
 10
-0.2567427867
 20
-0.9017944336
 10
-0.2567427867
 20
-0.9017944336
 10
-0.2619629293
 20
-0.9206163561
 10
-0.2619629293
 20
-0.9206163561
 10
-0.2726237838
 20
-0.9206163561
 10
-0.2726237838
 20
-0.9206163561
 10
-0.2808583749
 20
-0.9208369255
 10
-0.2876960265
 20
-0.9214986337
 10
-0.2931367384
 20
-0.9225279576
 10
-0.2971805109
 20
-0.9240719434
 10
-0.3003420057
 20
-0.9260570681
 10
-0.303282931
 20
-0.9286303778
 10
-0.3058562408
 20
-0.9317183495
 10
-0.3081354579
 20
-0.9354680293
 10
-0.3081354579
 20
-0.9354680293
 10
-0.3107822908
 20
-0.9413498801
 10
-0.3132085542
 20
-0.9485551473
 10
-0.3154877714
 20
-0.9571573541
 10
-0.3175464192
 20
-0.9671565004
 10
-0.3175464192
 20
-0.9671565004
 10
-0.3382064201
 20
-1.0570752943
 10
-0.3382064201
 20
-1.0570752943
 10
-0.1509429957
 20
-1.0570752943
 10
-0.1509429957
 20
-1.0570752943
 10
-0.1288860553
 20
-0.960907034
 10
-0.1288860553
 20
-0.960907034
 10
-0.1273420695
 20
-0.953260628
 10
-0.1263127456
 20
-0.9472317309
 10
-0.1256510374
 20
-0.9429673891
 10
-0.125430468
 20
-0.9403205562
 10
-0.125430468
 20
-0.9403205562
 10
-0.1263862687
 20
-0.9343651823
 10
-0.1294007172
 20
-0.9287039009
 10
-0.1315328882
 20
-0.9261305912
 10
-0.1338856285
 20
-0.9240719434
 10
-0.1364589382
 20
-0.9225279576
 10
-0.1393263404
 20
-0.9214251106
 10
-0.1393263404
 20
-0.9214251106
 10
-0.1405762337
 20
-0.9212045412
 10
-0.1424143121
 20
-0.9210574949
 10
-0.1449140987
 20
-0.9209104486
 10
-0.1480020703
 20
-0.9208369255
 10
-0.1518252734
 20
-0.9207634024
 10
-0.1561631383
 20
-0.9206898792
 10
-0.1611627115
 20
-0.9206163561
 10
-0.1668239929
 20
-0.9206163561
 10
-0.1668239929
 20
-0.9206163561
 10
-0.1613832809
 20
-0.9017944336
 10
-0.1613832809
 20
-0.9017944336
 10
-0.0259536666
 20
-0.9017944336
 10
-0.0259536666
 20
-0.9017944336
 10
-0.0308797166
 20
-0.9206163561
 10
-0.0308797166
 20
-0.9206163561
 10
-0.0427904645
 20
-0.9206163561
 10
-0.0427904645
 20
-0.9206163561
 10
-0.0502163011
 20
-0.9208369255
 10
-0.0565392907
 20
-0.9215721569
 10
-0.0618329564
 20
-0.922748527
 10
-0.066023775
 20
-0.924366036
 10
-0.0694793624
 20
-0.9264246838
 10
-0.072567334
 20
-0.9288509472
 10
-0.07528769
 20
-0.9317183495
 10
-0.0775669072
 20
-0.9350268905
 10
-0.0796990781
 20
-0.9394382786
 10
-0.081831249
 20
-0.9456877451
 10
-0.0840369431
 20
-0.9537017668
 10
-0.0862426371
 20
-0.96362739
 10
-0.0862426371
 20
-0.96362739
 10
-0.1391792942
 20
-1.1941224176
 10
-0.1391792942
 20
-1.1941224176
 10
-0.1401350949
 20
-1.1991219907
 10
-0.1407968031
 20
-1.2035333788
 10
-0.1412379419
 20
-1.2073565818
 10
-0.1413849882
 20
-1.2106651229
 10
-0.1413849882
 20
-1.2106651229
 10
-0.1408703263
 20
-1.2157382192
 10
-0.1393998636
 20
-1.2202231304
 10
-0.136900077
 20
-1.2240463334
 10
-0.1334444897
 20
-1.2272078282
 10
-0.1334444897
 20
-1.2272078282
 10
-0.1300624255
 20
-1.2289723834
 10
-0.1252098986
 20
-1.2301487536
 10
-0.1188133858
 20
-1.2309575081
 10
-0.1108728873
 20
-1.2311780775
 10
-0.1108728873
 20
-1.2311780775
 10
-0.1002120327
 20
-1.2311780775
 10
-0.1002120327
 20
-1.2311780775
 10
-0.1049175134
 20
-1.25
 10
-0.1049175134
 20
-1.25
 10
-0.2410088359
 20
-1.25
 10
-0.2410088359
 20
-1.25
 10
-0.2363033552
 20
-1.2311780775
 10
-0.2363033552
 20
-1.2311780775
 10
-0.2271129634
 20
-1.2311780775
 10
-0.2271129634
 20
-1.2311780775
 10
-0.220348835
 20
-1.2311045544
 10
-0.2146140305
 20
-1.2307369387
 10
-0.2100555961
 20
-1.2302222767
 10
-0.2065264856
 20
-1.2294870454
 10
-0.2009387274
 20
-1.2272813513
 10
-0.1960126774
 20
-1.2239728103
 10
-0.1917483356
 20
-1.2195614222
 10
-0.1882927482
 20
-1.2139001408
 10
-0.1867487624
 20
-1.2102975072
 10
-0.1852782997
 20
-1.205812596
 10
-0.1838813601
 20
-1.2004454071
 10
-0.1824844206
 20
-1.1941959407
 10
-0.1824844206
 20
-1.1941959407
 10
-0.1574130316
 20
-1.0853081781
 10
-0.1574130316
 20
-1.0853081781
 10
-0.3446764559
 20
-1.0853081781
 10
-0.3446764559
 20
-1.0853081781
 10
-0.3696007986
 20
-1.1936077556
 10
-0.3696007986
 20
-1.1936077556
 10
-0.3708506919
 20
-1.1994896064
 10
-0.3718064927
 20
-1.2046362258
 10
-0.3723211546
 20
-1.2091211371
 10
-0.372541724
 20
-1.2128708169
 10
-0.372541724
 20
-1.2128708169
 10
-0.3715859233
 20
-1.218385052
 10
-0.368718521
 20
-1.2233846252
 10
-0.3641600867
 20
-1.2272813513
 10
-0.3582047127
 20
-1.2297076148
 10
-0.3582047127
 20
-1.2297076148
 10
-0.3547491254
 20
-1.230369323
 10
-0.3492348903
 20
-1.2308104618
 10
-0.3415149611
 20
-1.2311045544
 10
-0.3316628611
 20
-1.2311780775
 10
-0.3316628611
 20
-1.2311780775
 10
-0.3363683417
 20
-1.25
 10
-0.3363683417
 20
-1.25
 10
-0.4719450023
 20
-1.25
 10
-0.4719450023
 20
-1.25
 10
-0.4667248597
 20
-1.2311780775
 10
-0.4667248597
 20
-1.2311780775
 10
-0.4587843611
 20
-1.2311780775
 10
-0.4587843611
 20
-1.2311780775
 10
-0.4517261402
 20
-1.2310310312
 10
-0.4458442894
 20
-1.2307369387
 10
-0.4409917625
 20
-1.2301487536
 10
-0.4373156058
 20
-1.2293399991
 10
-0.431433755
 20
-1.2269872588
 10
-0.4264341818
 20
-1.2236051946
 10
-0.4224639326
 20
-1.2194143759
 10
-0.4195965303
 20
-1.2147088953
 10
-0.4195965303
 20
-1.2147088953
 10
-0.4175378825
 20
-1.2097828453
 10
-0.415626281
 20
-1.2040480408
 10
-0.4138617258
 20
-1.197651528
 10
-0.4121706937
 20
-1.1904462608
 10
-0.4121706937
 20
-1.1904462608
 10
-0.3601163142
 20
-0.9639214825
 10
-0.3601163142
 20
-0.9639214825
 10
-0.3587193747
 20
-0.9564956459
 10
-0.3576900508
 20
-0.9502461794
 10
-0.3571018657
 20
-0.9451730831
 10
-0.3568812963
 20
-0.941276357
 10
-0.3568812963
 20
-0.941276357
 10
-0.3576900508
 20
-0.9351739368
 10
-0.3600427911
 20
-0.9295861785
 10
-0.3634983784
 20
-0.9251012673
 10
-0.3676891971
 20
-0.9224544345
 10
-0.3705565994
 20
-0.92164568
 10
-0.3746738949
 20
-0.9210574949
 10
-0.3800410838
 20
-0.9207634024
 10
-0.3866581659
 20
-0.9206163561
 10
-0.3866581659
 20
-0.9206163561
 10
-0.3978336824
 20
-0.9206163561
 10
-0.3978336824
 20
-0.9206163561
 10
-0.3923929704
 20
-0.9017944336
  0
LWPOLYLINE
  5
8C
330
1F
100
AcDbEntity
  8
0
  6
Continuous
 62
     7
100
AcDbPolyline
 90
      122
 70
   128
 43
0.0
 10
0.1717499626
 20
-1.1794177906
 10
0.1858664848
 20
-1.1935342325
 10
0.1858664848
 20
-1.1935342325
 10
0.1698384414
 20
-1.2077977206
 10
0.1535898286
 20
-1.2202231304
 10
0.136900077
 20
-1.2307369387
 10
0.119989756
 20
-1.2393391455
 10
0.1030059119
 20
-1.2460297507
 10
0.086169114
 20
-1.2508822776
 10
0.0695528855
 20
-1.2537496799
 10
0.0530837033
 20
-1.2547054806
 10
0.0530837033
 20
-1.2547054806
 10
0.0423493256
 20
-1.2542643418
 10
0.032203133
 20
-1.2530144485
 10
0.0224980792
 20
-1.2509558008
 10
0.0133812105
 20
-1.2480883985
 10
0.0047790038
 20
-1.2443387186
 10
-0.0032350179
 20
-1.2397802843
 10
-0.0108079008
 20
-1.2344130954
 10
-0.0177925986
 20
-1.2282371521
 10
-0.0241155882
 20
-1.2213259774
 10
-0.0295563002
 20
-1.2139001408
 10
-0.0341882577
 20
-1.2059596423
 10
-0.0379379376
 20
-1.1974309586
 10
-0.0409523861
 20
-1.188387613
 10
-0.0430110339
 20
-1.1787560824
 10
-0.0442609271
 20
-1.1686098898
 10
-0.044702066
 20
-1.1579490352
 10
-0.044702066
 20
-1.1579490352
 10
-0.0443344503
 20
-1.1482439814
 10
-0.0433051264
 20
-1.1386124508
 10
-0.0416140943
 20
-1.1291279664
 10
-0.0391878308
 20
-1.1197905283
 10
-0.0360998592
 20
-1.1105266133
 10
-0.0322766562
 20
-1.1014097446
 10
-0.027791745
 20
-1.0924399221
 10
-0.0226451255
 20
-1.0835436228
 10
-0.0168367979
 20
-1.074941416
 10
-0.0105138083
 20
-1.0667068249
 10
-0.0036761567
 20
-1.0589868958
 10
0.003823203
 20
-1.0516345823
 10
0.0117637016
 20
-1.0447969308
 10
0.0202923852
 20
-1.0383268949
 10
0.0293357308
 20
-1.032371521
 10
0.0389672614
 20
-1.0267837628
 10
0.0489664078
 20
-1.0217841896
 10
0.0591126004
 20
-1.0173728015
 10
0.0694058392
 20
-1.0136966448
 10
0.0799196475
 20
-1.0106821962
 10
0.0905805021
 20
-1.0083294559
 10
0.101461926
 20
-1.0066384238
 10
0.1124903962
 20
-1.0056826231
 10
0.1236659127
 20
-1.0053150074
 10
0.1236659127
 20
-1.0053150074
 10
0.1324151658
 20
-1.0055355768
 10
0.1406497569
 20
-1.0063443313
 10
0.148369686
 20
-1.0075942246
 10
0.1556484764
 20
-1.0094323029
 10
0.1624126048
 20
-1.0117115201
 10
0.1686620712
 20
-1.0145053992
 10
0.1744703989
 20
-1.0178874634
 10
0.1797640646
 20
-1.0217106665
 10
0.1844695452
 20
-1.0259014851
 10
0.1885868408
 20
-1.0302393501
 10
0.1921159512
 20
-1.0347977844
 10
0.1949098304
 20
-1.0395032651
 10
0.1971155244
 20
-1.0444293151
 10
0.1987330334
 20
-1.0495759345
 10
0.1996888341
 20
-1.0548696002
 10
0.1999829267
 20
-1.0603103122
 10
0.1999829267
 20
-1.0603103122
 10
0.1993947416
 20
-1.0669273944
 10
0.1977037095
 20
-1.0737650459
 10
0.1949098304
 20
-1.0807497437
 10
0.1909395811
 20
-1.0878814878
 10
0.1856459154
 20
-1.0950132318
 10
0.1788082638
 20
-1.1018508834
 10
0.1704266265
 20
-1.1084679655
 10
0.1605010033
 20
-1.1147909551
 10
0.1548397219
 20
-1.1178054036
 10
0.1485902554
 20
-1.1206728059
 10
0.1417526039
 20
-1.123466685
 10
0.1343267673
 20
-1.1261135179
 10
0.1263127456
 20
-1.1286133044
 10
0.1176370157
 20
-1.1309660448
 10
0.1084466238
 20
-1.1332452619
 10
0.0985945238
 20
-1.1353774328
 10
0.0881542386
 20
-1.1373625575
 10
0.0771992915
 20
-1.1391271127
 10
0.0655826362
 20
-1.1407446217
 10
0.053451319
 20
-1.1422150844
 10
0.0406582935
 20
-1.1435385008
 10
0.0273506061
 20
-1.144714871
 10
0.0134547337
 20
-1.1456706717
 10
-0.0010293239
 20
-1.1464794262
 10
-0.0010293239
 20
-1.1464794262
 10
-0.001617509
 20
-1.1508908143
 10
-0.0019851246
 20
-1.1546404942
 10
-0.0022792172
 20
-1.1579490352
 10
-0.0023527403
 20
-1.1605958681
 10
-0.0023527403
 20
-1.1605958681
 10
-0.0018380784
 20
-1.1697862599
 10
-0.0002205694
 20
-1.1783884667
 10
0.0024997866
 20
-1.1866230578
 10
0.0062494665
 20
-1.1942694638
 10
0.0110284702
 20
-1.2012541616
 10
0.0167632747
 20
-1.2075036281
 10
0.0233068337
 20
-1.2130178632
 10
0.0308061935
 20
-1.217796867
 10
0.0388937383
 20
-1.22162007
 10
0.0471283294
 20
-1.2242669028
 10
0.0555099668
 20
-1.2259579349
 10
0.0640386504
 20
-1.2264725969
 10
0.0640386504
 20
-1.2264725969
 10
0.0755082594
 20
-1.2257373655
 10
0.0878601461
 20
-1.2234581483
 10
0.1010943103
 20
-1.2197084685
 10
0.1152842754
 20
-1.2144883259
 10
0.1298418561
 20
-1.2077977206
 10
0.1441053442
 20
-1.1997101758
 10
0.1580747398
 20
-1.1902256914
 10
0.1717500429
 20
-1.1794177906
  0
LWPOLYLINE
  5
8D
330
1F
100
AcDbEntity
  8
0
  6
Continuous
 62
     7
100
AcDbPolyline
 90
       44
 70
   128
 43
0.0
 10
0.0020586468
 20
-1.1229520231
 10
0.0163956591
 20
-1.1214815604
 10
0.0297033465
 20
-1.1200110977
 10
0.04198171
 20
-1.118540635
 10
0.0532307496
 20
-1.1170701723
 10
0.0634504653
 20
-1.1155997096
 10
0.0727143803
 20
-1.11420277
 10
0.0808754483
 20
-1.1127323073
 10
0.0880807155
 20
-1.1113353678
 10
0.0880807155
 20
-1.1113353678
 10
0.0983739544
 20
-1.1089826275
 10
0.1077849156
 20
-1.1064828409
 10
0.1163871224
 20
-1.103836008
 10
0.1241805747
 20
-1.101115652
 10
0.1310182262
 20
-1.0982482498
 10
0.1370471233
 20
-1.0952338012
 10
0.1422672658
 20
-1.0921458296
 10
0.1466051308
 20
-1.0889108117
 10
0.1535163055
 20
-1.0821466833
 10
0.1584423555
 20
-1.0751619854
 10
0.1613832809
 20
-1.067809672
 10
0.1623390816
 20
-1.0601632659
 10
0.1623390816
 20
-1.0601632659
 10
0.1616038503
 20
-1.0537667532
 10
0.1593981562
 20
-1.0479584256
 10
0.1557955226
 20
-1.0426647599
 10
0.1506489032
 20
-1.0378857561
 10
0.1442523905
 20
-1.0339155068
 10
0.1366059845
 20
-1.0311216277
 10
0.1277096851
 20
-1.0294305956
 10
0.1176370157
 20
-1.0288424105
 10
0.1176370157
 20
-1.0288424105
 10
0.1062409298
 20
-1.0295776419
 10
0.0944772282
 20
-1.0318568591
 10
0.0824194341
 20
-1.0356800621
 10
0.0699940243
 20
-1.0409737278
 10
0.0579362302
 20
-1.0475172868
 10
0.0468342369
 20
-1.0552372159
 10
0.0366145211
 20
-1.063986469
 10
0.0274241293
 20
-1.0739120922
 10
0.0192630613
 20
-1.0847935161
 10
0.0123518866
 20
-1.0965572177
 10
0.0066170821
 20
-1.10927672
 10
0.0020586478
 20
-1.1229520231
  0
LWPOLYLINE
  5
8E
330
1F
100
AcDbEntity
  8
0
  6
Continuous
 62
     7
100
AcDbPolyline
 90
       36
 70
   128
 43
0.0
 10
0.3277660003
 20
-0.8876779917
 10
0.3324716156
 20
-0.8881191305
 10
0.3367359574
 20
-0.8894425469
 10
0.3405591604
 20
-0.8915747179
 10
0.3440147477
 20
-0.8946626895
 10
0.34688215
 20
-0.8984123694
 10
0.3489407978
 20
-0.9027502343
 10
0.3501171679
 20
-0.9076027612
 10
0.3505583067
 20
-0.9129699501
 10
0.3505583067
 20
-0.9129699501
 10
0.3500436448
 20
-0.9191458934
 10
0.3484996589
 20
-0.9248806979
 10
0.3458528261
 20
-0.9301008405
 10
0.3422501925
 20
-0.9349533674
 10
0.3379123275
 20
-0.9389971398
 10
0.33328037
 20
-0.9418645421
 10
0.3282807969
 20
-0.9435555742
 10
0.3229871312
 20
-0.9441437592
 10
0.3229871312
 20
-0.9441437592
 10
0.3181346043
 20
-0.9437026204
 10
0.3136496931
 20
-0.9422321577
 10
0.3096059206
 20
-0.9399529406
 10
0.3058562408
 20
-0.9366443995
 10
0.3027682691
 20
-0.9326741502
 10
0.3005625751
 20
-0.9284098084
 10
0.2992391586
 20
-0.9237043278
 10
0.2987980198
 20
-0.9186312315
 10
0.2987980198
 20
-0.9186312315
 10
0.2993126818
 20
-0.9125288113
 10
0.3010037139
 20
-0.9068675299
 10
0.3036505467
 20
-0.9016473873
 10
0.3074737497
 20
-0.8968683836
 10
0.3120321841
 20
-0.8928246111
 10
0.316884711
 20
-0.8899572089
 10
0.3221783767
 20
-0.8882661768
 10
0.3277661349
 20
-0.8876779917
  0
LWPOLYLINE
  5
8F
330
1F
100
AcDbEntity
  8
0
  6
Continuous
 62
     7
100
AcDbPolyline
 90
       68
 70
   128
 43
0.0
 10
0.3284277526
 20
-1.0053150074
 10
0.2835787309
 20
-1.1968427735
 10
0.2835787309
 20
-1.1968427735
 10
0.2823288376
 20
-1.2021364392
 10
0.2813730369
 20
-1.206915443
 10
0.2808583749
 20
-1.2110327386
 10
0.2806378055
 20
-1.2146353722
 10
0.2806378055
 20
-1.2146353722
 10
0.2808583749
 20
-1.2182380058
 10
0.2815936063
 20
-1.2214730237
 10
0.2827699764
 20
-1.224340426
 10
0.2843874854
 20
-1.2267666894
 10
0.28637261
 20
-1.2286782909
 10
0.2886518272
 20
-1.2300752305
 10
0.2911516138
 20
-1.230883985
 10
0.2939454929
 20
-1.2311780775
 10
0.2939454929
 20
-1.2311780775
 10
0.2973275571
 20
-1.230883985
 10
0.3006360982
 20
-1.2299281842
 10
0.3038711161
 20
-1.2283106752
 10
0.3070326109
 20
-1.2261049812
 10
0.3070326109
 20
-1.2261049812
 10
0.3122527535
 20
-1.2214730237
 10
0.3181346043
 20
-1.2152970804
 10
0.3246046401
 20
-1.2075036281
 10
0.3317363842
 20
-1.1982397131
 10
0.3317363842
 20
-1.1982397131
 10
0.3458528261
 20
-1.2122826318
 10
0.3458528261
 20
-1.2122826318
 10
0.3389416514
 20
-1.2217671162
 10
0.3315893379
 20
-1.2301487536
 10
0.3236488394
 20
-1.2373540208
 10
0.315267202
 20
-1.2435299641
 10
0.3067385184
 20
-1.248382491
 10
0.2984304041
 20
-1.2519116015
 10
0.2904163825
 20
-1.2539702493
 10
0.282549407
 20
-1.2547054806
 10
0.282549407
 20
-1.2547054806
 10
0.2745353853
 20
-1.2539702493
 10
0.2671095487
 20
-1.2517645552
 10
0.2604189435
 20
-1.2480148754
 10
0.2543900464
 20
-1.2428682559
 10
0.2494639964
 20
-1.2366923126
 10
0.2459348859
 20
-1.2300017073
 10
0.243802715
 20
-1.2228699633
 10
0.2430674836
 20
-1.2152235572
 10
0.2430674836
 20
-1.2152235572
 10
0.2433615762
 20
-1.2093417065
 10
0.2440968075
 20
-1.2027246243
 10
0.245420224
 20
-1.195445834
 10
0.2472583023
 20
-1.1874318123
 10
0.2472583023
 20
-1.1874318123
 10
0.2799760973
 20
-1.047664333
 10
0.2799760973
 20
-1.047664333
 10
0.2235103298
 20
-1.047664333
 10
0.2235103298
 20
-1.047664333
 10
0.2283628567
 20
-1.0241369299
 10
0.2283628567
 20
-1.0241369299
 10
0.238362003
 20
-1.0234752217
 10
0.2479935337
 20
-1.0224458978
 10
0.2571104024
 20
-1.0209754351
 10
0.2658596554
 20
-1.0192108799
 10
0.274903001
 20
-1.0168581396
 10
0.2848286242
 20
-1.0136966448
 10
0.2957100482
 20
-1.0098734417
 10
0.3074737497
 20
-1.0053150074
 10
0.3074737497
 20
-1.0053150074
 10
0.3284278431
 20
-1.0053150074
  0
LWPOLYLINE
  5
90
330
1F
100
AcDbEntity
  8
0
  6
Continuous
 62
     7
100
AcDbPolyline
 90
      155
 70
   128
 43
0.0
 10
0.6236229825
 20
-1.0053150074
 10
0.5701719104
 20
-1.2397067611
 10
0.5701719104
 20
-1.2397067611
 10
0.5676721238
 20
-1.2508822776
 10
0.5649517678
 20
-1.261469609
 10
0.5618637961
 20
-1.2713952322
 10
0.5585552551
 20
-1.2807326703
 10
0.5549526215
 20
-1.2894084003
 10
0.5510558953
 20
-1.2974959451
 10
0.5469385998
 20
-1.3049953048
 10
0.5424536885
 20
-1.3118329564
 10
0.5326015885
 20
-1.324184843
 10
0.521426072
 20
-1.3351397901
 10
0.5090006622
 20
-1.3446242745
 10
0.4951783129
 20
-1.3527853424
 10
0.4802531165
 20
-1.3592553783
 10
0.4644456425
 20
-1.3638873358
 10
0.4476823678
 20
-1.3666812149
 10
0.4300368154
 20
-1.3676370157
 10
0.4300368154
 20
-1.3676370157
 10
0.4206258542
 20
-1.3673429231
 10
0.4117295549
 20
-1.3665341687
 10
0.4032743944
 20
-1.3652107522
 10
0.3954074189
 20
-1.3633726739
 10
0.3879815823
 20
-1.3609464104
 10
0.3809968845
 20
-1.358005485
 10
0.3746003718
 20
-1.3545498977
 10
0.3686449979
 20
-1.3505796484
 10
0.363277809
 20
-1.3463153066
 10
0.3586458515
 20
-1.3419774416
 10
0.3547491254
 20
-1.3376395767
 10
0.3515876306
 20
-1.3332281886
 10
0.349087844
 20
-1.3288903236
 10
0.3472497657
 20
-1.3244054124
 10
0.3462204418
 20
-1.3199205012
 10
0.3458528261
 20
-1.31543559
 10
0.3458528261
 20
-1.31543559
 10
0.3462204418
 20
-1.3108771556
 10
0.3473232888
 20
-1.3066863369
 10
0.349087844
 20
-1.3027896108
 10
0.3516611537
 20
-1.2991869772
 10
0.3546756023
 20
-1.2961725287
 10
0.3579106202
 20
-1.2940403577
 10
0.3612926844
 20
-1.2927904645
 10
0.364895318
 20
-1.2923493256
 10
0.364895318
 20
-1.2923493256
 10
0.3696743218
 20
-1.2928639876
 10
0.374159233
 20
-1.2945550197
 10
0.3787911905
 20
-1.2974224219
 10
0.3837172405
 20
-1.3017602869
 10
0.3837172405
 20
-1.3017602869
 10
0.3858494114
 20
-1.3041865503
 10
0.3884962443
 20
-1.3077156608
 10
0.3917312622
 20
-1.3122740952
 10
0.3955544652
 20
-1.3179353766
 10
0.3955544652
 20
-1.3179353766
 10
0.399230622
 20
-1.3235231348
 10
0.4024656399
 20
-1.328008046
 10
0.4050389496
 20
-1.331243064
 10
0.4071711205
 20
-1.3333017117
 10
0.4071711205
 20
-1.3333017117
 10
0.4137146795
 20
-1.3378601461
 10
0.4213610855
 20
-1.3413157334
 10
0.4298897692
 20
-1.3433743812
 10
0.4390066379
 20
-1.3441096125
 10
0.4390066379
 20
-1.3441096125
 10
0.4491528305
 20
-1.3433743812
 10
0.4591519768
 20
-1.3411686872
 10
0.4688570306
 20
-1.3375660535
 10
0.4784150381
 20
-1.3324929572
 10
0.4875319068
 20
-1.3260229214
 10
0.4959870674
 20
-1.318155946
 10
0.5037069965
 20
-1.3089655541
 10
0.5107652174
 20
-1.2984517458
 10
0.5140737585
 20
-1.2924963719
 10
0.5172352533
 20
-1.2859528129
 10
0.5202497018
 20
-1.2788210688
 10
0.5231171041
 20
-1.2710276166
 10
0.5258374601
 20
-1.2625724561
 10
0.5284107698
 20
-1.2535291105
 10
0.5308370332
 20
-1.2438975798
 10
0.5331162504
 20
-1.2336043409
 10
0.5331162504
 20
-1.2336043409
 10
0.54436529
 20
-1.1811823458
 10
0.54436529
 20
-1.1811823458
 10
0.5389245781
 20
-1.1902256914
 10
0.5334838661
 20
-1.1983132362
 10
0.5281166773
 20
-1.2055185034
 10
0.5227494884
 20
-1.2117679699
 10
0.5227494884
 20
-1.2117679699
 10
0.5125297727
 20
-1.2217671162
 10
0.5020159644
 20
-1.2304428461
 10
0.4912080636
 20
-1.2378686828
 10
0.4801795934
 20
-1.2438975798
 10
0.4690776
 20
-1.2486030604
 10
0.4582696992
 20
-1.2519851246
 10
0.4476088447
 20
-1.2540437724
 10
0.4371685595
 20
-1.2547054806
 10
0.4371685595
 20
-1.2547054806
 10
0.4294486304
 20
-1.254337865
 10
0.42216984
 20
-1.2533085411
 10
0.4152586653
 20
-1.251617509
 10
0.4087151063
 20
-1.2491912455
 10
0.4026126862
 20
-1.246176797
 10
0.3968778816
 20
-1.242353594
 10
0.3915106928
 20
-1.2379422059
 10
0.3865846428
 20
-1.2327955865
 10
0.3865846428
 20
-1.2327955865
 10
0.3814380233
 20
-1.2263255506
 10
0.3770266352
 20
-1.2193408528
 10
0.3732034322
 20
-1.2119885393
 10
0.3701889837
 20
-1.2041215639
 10
0.3677627203
 20
-1.1958869728
 10
0.3660716882
 20
-1.1872112429
 10
0.3650423643
 20
-1.1780943742
 10
0.3646747486
 20
-1.1685363666
 10
0.3646747486
 20
-1.1685363666
 10
0.3649688411
 20
-1.1580225584
 10
0.3659246419
 20
-1.1475087501
 10
0.3675421509
 20
-1.1371419881
 10
0.369821368
 20
-1.1269222723
 10
0.3726887703
 20
-1.1167025566
 10
0.3762178808
 20
-1.1066298871
 10
0.3804086994
 20
-1.0966307408
 10
0.3851877032
 20
-1.0867051176
 10
0.3904813689
 20
-1.077073587
 10
0.3962161734
 20
-1.0681037645
 10
0.4023185936
 20
-1.059648604
 10
0.4087886295
 20
-1.0517816286
 10
0.415626281
 20
-1.0445763614
 10
0.4228315482
 20
-1.0378857561
 10
0.4304044311
 20
-1.0317833359
 10
0.4384184528
 20
-1.0262691008
 10
0.4466530439
 20
-1.0213430508
 10
0.4549611581
 20
-1.017078709
 10
0.4633427955
 20
-1.0134760754
 10
0.471797956
 20
-1.01053515
 10
0.4803266396
 20
-1.0082559328
 10
0.4890023695
 20
-1.0066384238
 10
0.4976780995
 20
-1.0056090999
 10
0.5065008756
 20
-1.0053150074
 10
0.5065008756
 20
-1.0053150074
 10
0.5215731183
 20
-1.0062708081
 10
0.5364247915
 20
-1.0092117335
 10
0.5504677102
 20
-1.0139172142
 10
0.5629666432
 20
-1.0201666806
 10
0.5629666432
 20
-1.0201666806
 10
0.5674515544
 20
-1.023107606
 10
0.5719364656
 20
-1.0267102396
 10
0.5763478537
 20
-1.0310481046
 10
0.5807592418
 20
-1.0359741546
 10
0.5807592418
 20
-1.0359741546
 10
0.5925964665
 20
-1.0053150074
 10
0.5925964665
 20
-1.0053150074
 10
0.6236232294
 20
-1.0053150074
  0
LWPOLYLINE
  5
91
330
1F
100
AcDbEntity
  8
0
  6
Continuous
 62
     7
100
AcDbPolyline
 90
       57
 70
   128
 43
0.0
 10
0.5738478242
 20
-1.0551636928
 10
0.5666427999
 20
-1.0489142263
 10
0.5593640095
 20
-1.0435470375
 10
0.5520116961
 20
-1.0390621263
 10
0.5445858595
 20
-1.0353859695
 10
0.5371600228
 20
-1.0325185673
 10
0.52958714
 20
-1.0304599195
 10
0.5220142571
 20
-1.0292835493
 10
0.5143678511
 20
-1.0288424105
 10
0.5143678511
 20
-1.0288424105
 10
0.5021630107
 20
-1.0299452575
 10
0.4900316934
 20
-1.0331802755
 10
0.4778268531
 20
-1.0386209875
 10
0.4656220127
 20
-1.0461938703
 10
0.4596666388
 20
-1.0508258278
 10
0.4538583111
 20
-1.0560459704
 10
0.448344076
 20
-1.0618542981
 10
0.4430504103
 20
-1.0682508108
 10
0.437977314
 20
-1.0752355086
 10
0.4331247871
 20
-1.0828083915
 10
0.4284928296
 20
-1.0909694594
 10
0.4240814415
 20
-1.0997187125
 10
0.4166556049
 20
-1.1178789268
 10
0.4112884161
 20
-1.1363332336
 10
0.4081269213
 20
-1.1549345867
 10
0.4070240742
 20
-1.1738300323
 10
0.4070240742
 20
-1.1738300323
 10
0.4077593056
 20
-1.1854466876
 10
0.4098914765
 20
-1.1957399265
 10
0.4134941101
 20
-1.2047832721
 10
0.4184936833
 20
-1.2124296781
 10
0.4245225803
 20
-1.2186056214
 10
0.4311396625
 20
-1.2229434864
 10
0.4383449297
 20
-1.2255903192
 10
0.4460648588
 20
-1.2264725969
 10
0.4460648588
 20
-1.2264725969
 10
0.4563580977
 20
-1.2255903192
 10
0.4666513366
 20
-1.2229434864
 10
0.4767975292
 20
-1.2186056214
 10
0.4868701986
 20
-1.2124296781
 10
0.4868701986
 20
-1.2124296781
 10
0.4942960353
 20
-1.2067683967
 10
0.5014277793
 20
-1.2006659766
 10
0.5082654309
 20
-1.1940488944
 10
0.5148089899
 20
-1.1869171503
 10
0.5211319795
 20
-1.1793442675
 10
0.5271608765
 20
-1.1712567226
 10
0.532895681
 20
-1.162728039
 10
0.538336393
 20
-1.1536846934
 10
0.5435565356
 20
-1.1439796396
 10
0.5485561087
 20
-1.1335393545
 10
0.5533351125
 20
-1.122363838
 10
0.5578935469
 20
-1.1104530902
 10
0.5622314118
 20
-1.0977335878
 10
0.5663487074
 20
-1.0842788542
 10
0.5701719104
 20
-1.0700888891
 10
0.5738480671
 20
-1.0551636928
  0
LWPOLYLINE
  5
92
330
1F
100
AcDbEntity
  8
0
  6
Continuous
 62
     7
100
AcDbPolyline
 90
      129
 70
   128
 43
0.0
 10
0.7799332301
 20
-0.8876779917
 10
0.7350843017
 20
-1.0817790676
 10
0.7350843017
 20
-1.0817790676
 10
0.7444217398
 20
-1.0688389959
 10
0.7539797474
 20
-1.0572223406
 10
0.7636848012
 20
-1.0468555786
 10
0.7736839475
 20
-1.037812233
 10
0.783756617
 20
-1.0299452575
 10
0.7938292864
 20
-1.0232546523
 10
0.8039019559
 20
-1.017666894
 10
0.8139746254
 20
-1.0131819828
 10
0.8240472948
 20
-1.0097263955
 10
0.8341199643
 20
-1.007300132
 10
0.8440455875
 20
-1.0058296693
 10
0.8539712107
 20
-1.0053150074
 10
0.8539712107
 20
-1.0053150074
 10
0.8661025279
 20
-1.006197285
 10
0.8771309981
 20
-1.008917641
 10
0.8871301445
 20
-1.0134025522
 10
0.8960999669
 20
-1.0197255418
 10
0.9035258035
 20
-1.0271513784
 10
0.9088194692
 20
-1.035091877
 10
0.911980964
 20
-1.0435470375
 10
0.9130102879
 20
-1.0524433368
 10
0.9130102879
 20
-1.0524433368
 10
0.9127897185
 20
-1.0583251876
 10
0.9121280103
 20
-1.0647217003
 10
0.9110986864
 20
-1.0715593518
 10
0.9095547006
 20
-1.0789116653
 10
0.9095547006
 20
-1.0789116653
 10
0.8834539877
 20
-1.192210816
 10
0.8834539877
 20
-1.192210816
 10
0.8822040944
 20
-1.1985338056
 10
0.8812482937
 20
-1.2041215639
 10
0.8807336318
 20
-1.2090476139
 10
0.8805130623
 20
-1.2132384326
 10
0.8805130623
 20
-1.2132384326
 10
0.8808071549
 20
-1.2170616356
 10
0.8816894325
 20
-1.2205172229
 10
0.8831598952
 20
-1.2236051946
 10
0.885218543
 20
-1.2262520275
 10
0.8877183296
 20
-1.2283841984
 10
0.8905122087
 20
-1.2299281842
 10
0.8936001803
 20
-1.230883985
 10
0.8969822445
 20
-1.2311780775
 10
0.8969822445
 20
-1.2311780775
 10
0.9015406789
 20
-1.2308104618
 10
0.9061726364
 20
-1.2296340917
 10
0.9108045939
 20
-1.2277224902
 10
0.9155100745
 20
-1.2250756573
 10
0.9155100745
 20
-1.2250756573
 10
0.922862388
 20
-1.2197084685
 10
0.9299206089
 20
-1.213459002
 10
0.9368317836
 20
-1.2062537348
 10
0.9434488657
 20
-1.1982397131
 10
0.9434488657
 20
-1.1982397131
 10
0.9575653076
 20
-1.211841493
 10
0.9575653076
 20
-1.211841493
 10
0.9492571934
 20
-1.2219141625
 10
0.9407285097
 20
-1.2305898924
 10
0.9319792567
 20
-1.2379422059
 10
0.9230094343
 20
-1.2439711029
 10
0.9138190424
 20
-1.2486765836
 10
0.9044816043
 20
-1.2520586478
 10
0.8948500736
 20
-1.2540437724
 10
0.8850714967
 20
-1.2547054806
 10
0.8850714967
 20
-1.2547054806
 10
0.8761751974
 20
-1.2539702493
 10
0.8680876526
 20
-1.2517645552
 10
0.8608088622
 20
-1.2481619216
 10
0.8542653032
 20
-1.2430888253
 10
0.8488981144
 20
-1.2369864051
 10
0.8451484345
 20
-1.2304428461
 10
0.8427956942
 20
-1.2233846252
 10
0.8420604628
 20
-1.2158117423
 10
0.8420604628
 20
-1.2158117423
 10
0.8422810323
 20
-1.2102975072
 10
0.8428692173
 20
-1.2042686102
 10
0.8438985412
 20
-1.1977250512
 10
0.8453690039
 20
-1.1906668302
 10
0.8453690039
 20
-1.1906668302
 10
0.8724255175
 20
-1.0735444765
 10
0.8724255175
 20
-1.0735444765
 10
0.8741165496
 20
-1.0636188533
 10
0.8747047347
 20
-1.0553107391
 10
0.8747047347
 20
-1.0553107391
 10
0.8741900728
 20
-1.050899351
 10
0.8727196101
 20
-1.0468555786
 10
0.8701463003
 20
-1.0431794218
 10
0.8666171899
 20
-1.0398708807
 10
0.8623528481
 20
-1.0370770016
 10
0.8575738443
 20
-1.035091877
 10
0.8523537017
 20
-1.0339155068
 10
0.8466188972
 20
-1.0335478912
 10
0.8466188972
 20
-1.0335478912
 10
0.8377225979
 20
-1.0341360762
 10
0.8286792523
 20
-1.0359741546
 10
0.8196359067
 20
-1.0390621263
 10
0.810519038
 20
-1.0433999912
 10
0.810519038
 20
-1.0433999912
 10
0.7975054432
 20
-1.0515610592
 10
0.7850065102
 20
-1.0613396361
 10
0.772875193
 20
-1.0728827683
 10
0.7612585377
 20
-1.0861169325
 10
0.7504506369
 20
-1.100527467
 10
0.7409661525
 20
-1.1154526633
 10
0.7325845151
 20
-1.131113091
 10
0.7255262942
 20
-1.1472881807
 10
0.7194973971
 20
-1.1633897472
 10
0.7142037314
 20
-1.1787560824
 10
0.7097923433
 20
-1.1933136631
 10
0.7061161866
 20
-1.2071360124
 10
0.7061161866
 20
-1.2071360124
 10
0.6961905634
 20
-1.25
 10
0.6961905634
 20
-1.25
 10
0.6576644408
 20
-1.25
 10
0.6576644408
 20
-1.25
 10
0.7316287144
 20
-0.9300273174
 10
0.7316287144
 20
-0.9300273174
 10
0.6858973245
 20
-0.9300273174
 10
0.6858973245
 20
-0.9300273174
 10
0.690529282
 20
-0.9064999142
 10
0.690529282
 20
-0.9064999142
 10
0.709057112
 20
-0.9040001276
 10
0.72707028
 20
-0.8999563552
 10
0.7445687861
 20
-0.8945891664
 10
0.7615526302
 20
-0.8876779917
 10
0.7615526302
 20
-0.8876779917
 10
0.7799334139
 20
-0.8876779917
  0
LWPOLYLINE
  5
93
330
1F
100
AcDbEntity
  8
0
  6
Continuous
 62
     7
100
AcDbPolyline
 90
       89
 70
   128
 43
0.0
 10
1.0785108476
 20
-0.9206163561
 10
1.0598359881
 20
-1.0053150074
 10
1.0598359881
 20
-1.0053150074
 10
1.1175516489
 20
-1.0053150074
 10
1.1175516489
 20
-1.0053150074
 10
1.1124050295
 20
-1.0288424105
 10
1.1124050295
 20
-1.0288424105
 10
1.0531453829
 20
-1.0288424105
 10
1.0531453829
 20
-1.0288424105
 10
1.0210157729
 20
-1.1813293921
 10
1.0210157729
 20
-1.1813293921
 10
1.0192512177
 20
-1.1897845526
 10
1.0180013244
 20
-1.1968427735
 10
1.0171925699
 20
-1.2026511012
 10
1.0169720005
 20
-1.2070624893
 10
1.0169720005
 20
-1.2070624893
 10
1.0173396162
 20
-1.2113268311
 10
1.0183689401
 20
-1.215076511
 10
1.0201334953
 20
-1.218385052
 10
1.0225597588
 20
-1.2212524543
 10
1.0255742073
 20
-1.2235316715
 10
1.0290297946
 20
-1.2251491804
 10
1.0328529977
 20
-1.2261785043
 10
1.0370438163
 20
-1.2264725969
 10
1.0370438163
 20
-1.2264725969
 10
1.0434403291
 20
-1.2258844118
 10
1.0499103649
 20
-1.2241933797
 10
1.0499103649
 20
-1.2241933797
 10
1.0585125717
 20
-1.2201496073
 10
1.0671147785
 20
-1.214561849
 10
1.0671147785
 20
-1.214561849
 10
1.0684381949
 20
-1.213459002
 10
1.0702027501
 20
-1.2119885393
 10
1.0724084442
 20
-1.2100034147
 10
1.0749817539
 20
-1.2075771512
 10
1.0779226793
 20
-1.2047832721
 10
1.0813047435
 20
-1.201474731
 10
1.0851279465
 20
-1.1977250512
 10
1.0893187652
 20
-1.1935342325
 10
1.0893187652
 20
-1.1935342325
 10
1.1034352071
 20
-1.2071360124
 10
1.1034352071
 20
-1.2071360124
 10
1.0978474488
 20
-1.2137530945
 10
1.0924067368
 20
-1.2198555147
 10
1.0871130711
 20
-1.2253697498
 10
1.0819664517
 20
-1.230369323
 10
1.0770404017
 20
-1.2347807111
 10
1.0722613979
 20
-1.2386774372
 10
1.0676294404
 20
-1.2419859783
 10
1.0631445292
 20
-1.2447798574
 10
1.054321753
 20
-1.2491177224
 10
1.0454254537
 20
-1.252205694
 10
1.036308585
 20
-1.2541172955
 10
1.0271181931
 20
-1.2547054806
 10
1.0271181931
 20
-1.2547054806
 10
1.0170455237
 20
-1.2538967261
 10
1.0078551318
 20
-1.2514704627
 10
0.9996205407
 20
-1.2474266903
 10
0.9922682272
 20
-1.2417654089
 10
0.9862393302
 20
-1.2349277574
 10
0.9819749884
 20
-1.2275754439
 10
0.9794016787
 20
-1.2195614222
 10
0.978519401
 20
-1.2110327386
 10
0.978519401
 20
-1.2110327386
 10
0.9787399704
 20
-1.2051508878
 10
0.9793281555
 20
-1.1988278982
 10
0.9803574794
 20
-1.192210816
 10
0.9818279421
 20
-1.1851525951
 10
0.9818279421
 20
-1.1851525951
 10
1.0161632461
 20
-1.0288424105
 10
1.0161632461
 20
-1.0288424105
 10
0.9575653076
 20
-1.0288424105
 10
0.9575653076
 20
-1.0288424105
 10
0.9626384039
 20
-1.010020488
 10
0.9626384039
 20
-1.010020488
 10
0.9745491518
 20
-1.0069325164
 10
0.9852835294
 20
-1.0034034059
 10
0.994841537
 20
-0.9994331566
 10
1.0032231743
 20
-0.9950217685
 10
1.0109431035
 20
-0.9898016259
 10
1.0184424632
 20
-0.9835521595
 10
1.0257947767
 20
-0.9763468923
 10
1.0329265208
 20
-0.968038778
 10
1.0399847417
 20
-0.9584807705
 10
1.0468959164
 20
-0.9473787772
 10
1.0536600448
 20
-0.934732798
 10
1.0603506501
 20
-0.9206163561
 10
1.0603506501
 20
-0.9206163561
 10
1.0785108644
 20
-0.9206163561
  0
LWPOLYLINE
  5
94
330
1F
100
AcDbEntity
  8
0
  6
Continuous
 62
     7
100
AcDbPolyline
 90
      198
 70
   128
 43
0.0
 10
1.2409968639
 20
-1.1004539438
 10
1.28503735
 20
-1.1150850476
 10
1.28503735
 20
-1.1150850476
 10
1.2891546456
 20
-1.1166290335
 10
1.2945218344
 20
-1.1189817738
 10
1.3012124397
 20
-1.1219962223
 10
1.3090794151
 20
-1.1257459022
 10
1.3170199136
 20
-1.1297161515
 10
1.3237105189
 20
-1.1335393545
 10
1.3290777078
 20
-1.1370684649
 10
1.3332685264
 20
-1.1404505292
 10
1.3332685264
 20
-1.1404505292
 10
1.3375328683
 20
-1.144714871
 10
1.3413560713
 20
-1.1493468285
 10
1.3446646123
 20
-1.1544199248
 10
1.3475320146
 20
-1.1598606367
 10
1.3498847549
 20
-1.1655219181
 10
1.3515022639
 20
-1.1712567226
 10
1.3525315878
 20
-1.1769915271
 10
1.3528256803
 20
-1.1827998548
 10
1.3528256803
 20
-1.1827998548
 10
1.3520904489
 20
-1.1916961541
 10
1.3498112318
 20
-1.2005189303
 10
1.3459880288
 20
-1.2091946602
 10
1.3406208399
 20
-1.217796867
 10
1.3337831884
 20
-1.2258844118
 10
1.3255485973
 20
-1.2330161559
 10
1.3159170666
 20
-1.2393391455
 10
1.3048150733
 20
-1.2447798574
 10
1.2923161404
 20
-1.2491177224
 10
1.278493791
 20
-1.252205694
 10
1.2632745021
 20
-1.2541172955
 10
1.2466582736
 20
-1.2547054806
 10
1.2466582736
 20
-1.2547054806
 10
1.2283510131
 20
-1.2540437724
 10
1.2110730764
 20
-1.2519851246
 10
1.1946774173
 20
-1.2486030604
 10
1.179237559
 20
-1.2438240567
 10
1.1653416866
 20
-1.2380892522
 10
1.1534309387
 20
-1.2317662626
 10
1.1435788387
 20
-1.224928611
 10
1.1357853864
 20
-1.2175027744
 10
1.1299035356
 20
-1.2100034147
 10
1.1256391938
 20
-1.2028716706
 10
1.1231394072
 20
-1.1960340191
 10
1.1222571296
 20
-1.1896375063
 10
1.1222571296
 20
-1.1896375063
 10
1.1226247452
 20
-1.1856672571
 10
1.1237275923
 20
-1.1819911003
 10
1.1254921475
 20
-1.1786825592
 10
1.1280654572
 20
-1.1756681107
 10
1.1311534289
 20
-1.1731683241
 10
1.1346825393
 20
-1.1714037689
 10
1.1385057424
 20
-1.170374445
 10
1.1427700842
 20
-1.1700068293
 10
1.1427700842
 20
-1.1700068293
 10
1.1479902267
 20
-1.1704479681
 10
1.1527692305
 20
-1.1719184308
 10
1.157401188
 20
-1.1745652637
 10
1.1621066686
 20
-1.1786090361
 10
1.1621066686
 20
-1.1786090361
 10
1.163944747
 20
-1.1808147302
 10
1.1662974873
 20
-1.1841232712
 10
1.1690913664
 20
-1.1885346593
 10
1.1724734306
 20
-1.1939753713
 10
1.1724734306
 20
-1.1939753713
 10
1.175414356
 20
-1.198754375
 10
1.1777670963
 20
-1.2024305318
 10
1.1796051747
 20
-1.2050773646
 10
1.180855068
 20
-1.2066948736
 10
1.180855068
 20
-1.2066948736
 10
1.1875456733
 20
-1.2130178632
 10
1.1962214032
 20
-1.2191938065
 10
1.2064411189
 20
-1.2244139491
 10
1.2178372048
 20
-1.228163629
 10
1.2240866713
 20
-1.2294870454
 10
1.2308507997
 20
-1.2304428461
 10
1.23812959
 20
-1.2309575081
 10
1.2459230423
 20
-1.2311780775
 10
1.2459230423
 20
-1.2311780775
 10
1.2570250357
 20
-1.2308104618
 10
1.2672447514
 20
-1.2297076148
 10
1.2763616201
 20
-1.2279430596
 10
1.2845962112
 20
-1.225443273
 10
1.2918750015
 20
-1.2223553013
 10
1.298124468
 20
-1.2187526677
 10
1.3033446106
 20
-1.2147088953
 10
1.3076089524
 20
-1.2102239841
 10
1.3109174935
 20
-1.2054449803
 10
1.3132702338
 20
-1.2005924534
 10
1.3147406965
 20
-1.1957399265
 10
1.3151818353
 20
-1.1908873996
 10
1.3151818353
 20
-1.1908873996
 10
1.3142995577
 20
-1.1841967944
 10
1.3117997711
 20
-1.1778738048
 10
1.3074619061
 20
-1.1719184308
 10
1.3015065322
 20
-1.1662571495
 10
1.3015065322
 20
-1.1662571495
 10
1.2938601262
 20
-1.1610370069
 10
1.2845962112
 20
-1.1562580031
 10
1.2737883104
 20
-1.1517730919
 10
1.2612893775
 20
-1.1477293195
 10
1.2612893775
 20
-1.1477293195
 10
1.2590101603
 20
-1.146920565
 10
1.2565838968
 20
-1.1459647643
 10
1.2565838968
 20
-1.1459647643
 10
1.2218074541
 20
-1.1340540164
 10
1.2218074541
 20
-1.1340540164
 10
1.2141610481
 20
-1.1311866142
 10
1.2069557809
 20
-1.1282456888
 10
1.2003386987
 20
-1.125084194
 10
1.1942362785
 20
-1.1217021298
 10
1.1886485203
 20
-1.1182465424
 10
1.1836489471
 20
-1.1146439088
 10
1.1790905128
 20
-1.1108207058
 10
1.1751202635
 20
-1.1068504565
 10
1.1751202635
 20
-1.1068504565
 10
1.1684296582
 20
-1.0986893886
 10
1.1637241776
 20
-1.0900871818
 10
1.1608567753
 20
-1.0811173594
 10
1.1599009746
 20
-1.0717799212
 10
1.1599009746
 20
-1.0717799212
 10
1.1606362059
 20
-1.063471807
 10
1.1627683768
 20
-1.0553107391
 10
1.1662974873
 20
-1.0472967174
 10
1.1712970605
 20
-1.0394297419
 10
1.1776935732
 20
-1.0320039053
 10
1.1854870255
 20
-1.0253133001
 10
1.1946038942
 20
-1.0195049724
 10
1.2050441793
 20
-1.0145053992
 10
1.2168814041
 20
-1.0104616268
 10
1.229968522
 20
-1.0075942246
 10
1.2444525796
 20
-1.0059031925
 10
1.2601865304
 20
-1.0053150074
 10
1.2601865304
 20
-1.0053150074
 10
1.272464894
 20
-1.0056090999
 10
1.2842285955
 20
-1.0065649007
 10
1.295404112
 20
-1.0081824096
 10
1.3059914434
 20
-1.0103881037
 10
1.3160641129
 20
-1.0132555059
 10
1.3255485973
 20
-1.0167110933
 10
1.3344448966
 20
-1.0208283888
 10
1.342826534
 20
-1.0256073926
 10
1.342826534
 20
-1.0256073926
 10
1.3484878153
 20
-1.0295041187
 10
1.3534138654
 20
-1.033474368
 10
1.3575311609
 20
-1.0375916636
 10
1.3609132251
 20
-1.0418560054
 10
1.363560058
 20
-1.0461938703
 10
1.3654716595
 20
-1.0506787816
 10
1.3665745065
 20
-1.0553107391
 10
1.3669421222
 20
-1.0600897428
 10
1.3669421222
 20
-1.0600897428
 10
1.3665745065
 20
-1.0642070384
 10
1.3655451826
 20
-1.0679567182
 10
1.3637071042
 20
-1.0714858287
 10
1.3612073177
 20
-1.0746473235
 10
1.3581928691
 20
-1.0772206332
 10
1.3548108049
 20
-1.0791322347
 10
1.3510611251
 20
-1.0802350817
 10
1.3469438295
 20
-1.0806026974
 10
1.3469438295
 20
-1.0806026974
 10
1.3429735802
 20
-1.0802350817
 10
1.3391503772
 20
-1.0791322347
 10
1.3354006973
 20
-1.0773676795
 10
1.3317245406
 20
-1.0748678929
 10
1.3317245406
 20
-1.0748678929
 10
1.3289306615
 20
-1.0722210601
 10
1.3255485973
 20
-1.068397857
 10
1.3215048249
 20
-1.0633247607
 10
1.3169463905
 20
-1.0570752943
 10
1.3169463905
 20
-1.0570752943
 10
1.3116527248
 20
-1.050384689
 10
1.3058443972
 20
-1.0446498845
 10
1.2995214076
 20
-1.0397973576
 10
1.2926102329
 20
-1.0358271083
 10
1.28503735
 20
-1.0327391367
 10
1.2765821895
 20
-1.0306069658
 10
1.2673182745
 20
-1.0292835493
 10
1.2572456051
 20
-1.0288424105
 10
1.2572456051
 20
-1.0288424105
 10
1.2437908714
 20
-1.0295041187
 10
1.2320271698
 20
-1.0315627665
 10
1.2217339309
 20
-1.0349448307
 10
1.2131317242
 20
-1.0397238345
 10
1.2062940726
 20
-1.0453115927
 10
1.2014415457
 20
-1.0511934435
 10
1.1985006204
 20
-1.0575164331
 10
1.1975448196
 20
-1.0641335152
 10
1.1975448196
 20
-1.0641335152
 10
1.1981330047
 20
-1.0694271809
 10
1.199971083
 20
-1.0745002772
 10
1.2029855316
 20
-1.079279281
 10
1.2071763503
 20
-1.0837641922
 10
1.2129111548
 20
-1.0881020572
 10
1.2204840377
 20
-1.0922928759
 10
1.2298214758
 20
-1.0964101714
 10
1.2409969923
 20
-1.1004539438
  0
LWPOLYLINE
  5
95
330
1F
100
AcDbEntity
  8
0
  6
Continuous
 62
     7
100
AcDbPolyline
 90
       29
 70
   128
 43
0.0
 10
1.5269278541
 20
-1.0241369299
 10
1.5347954389
 20
-0.9376002002
 10
1.5347954389
 20
-0.9376002002
 10
1.5360453322
 20
-0.9276010539
 10
1.5379569337
 20
-0.9191458934
 10
1.5406037666
 20
-0.9121611956
 10
1.5438387845
 20
-0.9066469605
 10
1.5475884644
 20
-0.9024561418
 10
1.5516322368
 20
-0.8994416933
 10
1.5558965786
 20
-0.897677138
 10
1.5605285361
 20
-0.897088953
 10
1.5605285361
 20
-0.897088953
 10
1.5635429846
 20
-0.8973095224
 10
1.5662633406
 20
-0.8980447537
 10
1.5685425578
 20
-0.8992211239
 10
1.5704541593
 20
-0.9008386328
 10
1.5719981451
 20
-0.9028972806
 10
1.5731009922
 20
-0.9054705903
 10
1.5737627004
 20
-0.9084850389
 10
1.5739832698
 20
-0.9119406262
 10
1.5739832698
 20
-0.9119406262
 10
1.5736156541
 20
-0.9166461068
 10
1.5725128071
 20
-0.9223809113
 10
1.5706747287
 20
-0.9290715166
 10
1.568101419
 20
-0.9368649689
 10
1.568101419
 20
-0.9368649689
 10
1.5363394248
 20
-1.0241369299
 10
1.5363394248
 20
-1.0241369299
 10
1.5269284635
 20
-1.0241369299
  0
LWPOLYLINE
  5
96
330
1F
100
AcDbEntity
  8
0
  6
Continuous
 62
     7
100
AcDbPolyline
 90
       29
 70
   128
 43
0.0
 10
1.4469344316
 20
-1.0241369299
 10
1.4548022683
 20
-0.9376002002
 10
1.4548022683
 20
-0.9376002002
 10
1.4560521616
 20
-0.9276010539
 10
1.4579637631
 20
-0.9191458934
 10
1.4606105959
 20
-0.9121611956
 10
1.4638456138
 20
-0.9066469605
 10
1.4675952937
 20
-0.9024561418
 10
1.4716390661
 20
-0.8994416933
 10
1.4759034079
 20
-0.897677138
 10
1.4805353654
 20
-0.897088953
 10
1.4805353654
 20
-0.897088953
 10
1.483549814
 20
-0.8973095224
 10
1.48627017
 20
-0.8980447537
 10
1.4885493871
 20
-0.8992211239
 10
1.4904609886
 20
-0.9008386328
 10
1.4920049745
 20
-0.9028972806
 10
1.4931078215
 20
-0.9054705903
 10
1.4937695297
 20
-0.9084850389
 10
1.4939900991
 20
-0.9119406262
 10
1.4939900991
 20
-0.9119406262
 10
1.4936224834
 20
-0.9166461068
 10
1.4925196364
 20
-0.9223809113
 10
1.4906080349
 20
-0.9290715166
 10
1.4879612021
 20
-0.9368649689
 10
1.4879612021
 20
-0.9368649689
 10
1.4563462541
 20
-1.0241369299
 10
1.4563462541
 20
-1.0241369299
 10
1.4469352928
 20
-1.0241369299
  0
LINE
  5
9F
330
1F
100
AcDbEntity
  8
0
  6
Continuous
 62
     7
370
    25
100
AcDbLine
 10
-2.5
 20
-2.25
 30
0.0
 11
2.5
 21
-2.25
 31
0.0
  0
LINE
  5
A0
330
1F
100
AcDbEntity
  8
0
  6
Continuous
 62
     7
370
    25
100
AcDbLine
 10
-3.0
 20
1.75
 30
0.0
 11
-3.0
 21
-1.75
 31
0.0
  0
LINE
  5
A1
330
1F
100
AcDbEntity
  8
0
  6
Continuous
 62
     7
370
    25
100
AcDbLine
 10
2.5
 20
2.25
 30
0.0
 11
-2.5
 21
2.25
 31
0.0
  0
LINE
  5
A2
330
1F
100
AcDbEntity
  8
0
  6
Continuous
 62
     7
370
    25
100
AcDbLine
 10
3.0
 20
-1.75
 30
0.0
 11
3.0
 21
1.75
 31
0.0
  0
ARC
  5
A3
330
1F
100
AcDbEntity
  8
0
  6
Continuous
 62
     7
370
    25
100
AcDbCircle
 10
-2.5
 20
-1.75
 30
0.0
 40
0.4999999999999998
100
AcDbArc
 50
180.0
 51
270.0
  0
ARC
  5
A4
330
1F
100
AcDbEntity
  8
0
  6
Continuous
 62
     7
370
    25
100
AcDbCircle
 10
-2.5
 20
1.75
 30
0.0
 40
0.5000000000000013
100
AcDbArc
 50
90.0
 51
180.0
  0
ARC
  5
A5
330
1F
100
AcDbEntity
  8
0
  6
Continuous
 62
     7
370
    25
100
AcDbCircle
 10
2.5
 20
1.75
 30
0.0
 40
0.4999999999999991
100
AcDbArc
 50
0.0
 51
90.0
  0
ARC
  5
A6
330
1F
100
AcDbEntity
  8
0
  6
Continuous
 62
     7
370
    25
100
AcDbCircle
 10
2.5
 20
-1.75
 30
0.0
 40
0.5000000000000004
100
AcDbArc
 50
270.0
 51
0.0
  0
ENDSEC
  0
SECTION
  2
OBJECTS
  0
DICTIONARY
  5
C
330
0
100
AcDbDictionary
281
     1
  3
ACAD_GROUP
350
D
  3
ACAD_LAYOUT
350
1A
  3
ACAD_MLINESTYLE
350
17
  3
ACAD_PLOTSETTINGS
350
19
  3
ACAD_PLOTSTYLENAME
350
E
  3
ACAD_SCALELIST
350
47
  3
DWGPROPS
350
A7
  0
DICTIONARY
  5
D
102
{ACAD_REACTORS
330
C
102
}
330
C
100
AcDbDictionary
281
     1
  0
DICTIONARY
  5
1A
102
{ACAD_REACTORS
330
C
102
}
330
C
100
AcDbDictionary
281
     1
  3
Layout1
350
1E
  3
Layout2
350
26
  3
Model
350
22
  0
DICTIONARY
  5
17
102
{ACAD_REACTORS
330
C
102
}
330
C
100
AcDbDictionary
281
     1
  3
Standard
350
18
  0
DICTIONARY
  5
19
102
{ACAD_REACTORS
330
C
102
}
330
C
100
AcDbDictionary
281
     1
  0
ACDBDICTIONARYWDFLT
  5
E
102
{ACAD_REACTORS
330
C
102
}
330
C
100
AcDbDictionary
281
     1
  3
Normal
350
F
100
AcDbDictionaryWithDefault
340
F
  0
DICTIONARY
  5
47
102
{ACAD_REACTORS
330
C
102
}
330
C
100
AcDbDictionary
281
     1
  3
A0
350
48
  3
A1
350
49
  3
A2
350
4A
  3
A3
350
4B
  3
A4
350
4C
  3
A5
350
4D
  3
A6
350
4E
  3
A7
350
4F
  3
A8
350
50
  3
A9
350
51
  3
B1
350
52
  3
B2
350
53
  3
B3
350
54
  3
B4
350
55
  3
B5
350
56
  3
B6
350
57
  3
B7
350
58
  0
XRECORD
  5
A7
102
{ACAD_REACTORS
330
C
102
}
330
C
100
AcDbXrecord
280
     1
  1
DWGPROPS COOKIE
  2

  3

  4

  6

  7

  8
coles
  9

300
=
301
=
302
=
303
=
304
=
305
=
306
=
307
=
308
=
309
=
 40
0.0
 41
2460195.761571424
 42
2460195.761723796
  1

 90
        0
  0
LAYOUT
  5
1E
102
{ACAD_REACTORS
330
1A
102
}
330
1A
100
AcDbPlotSettings
  1

  2
none_device
  4

  6

 40
0.0
 41
0.0
 42
0.0
 43
0.0
 44
0.0
 45
0.0
 46
0.0
 47
0.0
 48
0.0
 49
0.0
140
0.0
141
0.0
142
1.0
143
1.0
 70
   688
 72
     0
 73
     0
 74
     5
  7

 75
    16
147
1.0
148
0.0
149
0.0
100
AcDbLayout
  1
Layout1
 70
     1
 71
     1
 10
0.0
 20
0.0
 11
12.0
 21
9.0
 12
0.0
 22
0.0
 32
0.0
 14
1.0000000000E+20
 24
1.0000000000E+20
 34
1.0000000000E+20
 15
-1.0000000000E+20
 25
-1.0000000000E+20
 35
-1.0000000000E+20
146
0.0
 13
0.0
 23
0.0
 33
0.0
 16
1.0
 26
0.0
 36
0.0
 17
0.0
 27
1.0
 37
0.0
 76
     0
330
1B
  0
LAYOUT
  5
26
102
{ACAD_REACTORS
330
1A
102
}
330
1A
100
AcDbPlotSettings
  1

  2
none_device
  4

  6

 40
0.0
 41
0.0
 42
0.0
 43
0.0
 44
0.0
 45
0.0
 46
0.0
 47
0.0
 48
0.0
 49
0.0
140
0.0
141
0.0
142
1.0
143
1.0
 70
   688
 72
     0
 73
     0
 74
     5
  7

 75
    16
147
1.0
148
0.0
149
0.0
100
AcDbLayout
  1
Layout2
 70
     1
 71
     2
 10
0.0
 20
0.0
 11
0.0
 21
0.0
 12
0.0
 22
0.0
 32
0.0
 14
0.0
 24
0.0
 34
0.0
 15
0.0
 25
0.0
 35
0.0
146
0.0
 13
0.0
 23
0.0
 33
0.0
 16
1.0
 26
0.0
 36
0.0
 17
0.0
 27
1.0
 37
0.0
 76
     0
330
23
  0
LAYOUT
  5
22
102
{ACAD_REACTORS
330
1A
102
}
330
1A
100
AcDbPlotSettings
  1

  2
none_device
  4
ANSI_A_(11.00_x_8.50_Inches)
  6

 40
6.35
 41
19.05
 42
6.35000508
 43
19.05000254
 44
279.4
 45
215.9
 46
133.34999746
 47
88.89999873
 48
0.0
 49
0.0
140
0.0
141
0.0
142
1.815
143
1.0
 70
  1696
 72
     0
 73
     0
 74
     0
  7

 75
     0
147
0.5913241897
148
-39.4088153714
149
0.0
100
AcDbLayout
  1
Model
 70
     1
 71
     0
 10
0.0
 20
0.0
 11
12.0
 21
9.0
 12
0.0
 22
0.0
 32
0.0
 14
-3.0
 24
-2.25
 34
0.0
 15
3.0
 25
2.25
 35
0.0
146
0.0
 13
0.0
 23
0.0
 33
0.0
 16
1.0
 26
0.0
 36
0.0
 17
0.0
 27
1.0
 37
0.0
 76
     0
330
1F
331
29
  0
MLINESTYLE
  5
18
102
{ACAD_REACTORS
330
17
102
}
330
17
100
AcDbMlineStyle
  2
Standard
 70
     0
  3

 62
   256
 51
90.0
 52
90.0
 71
     2
 49
0.5
 62
   256
  6
BYLAYER
 49
-0.5
 62
   256
  6
BYLAYER
  0
ACDBPLACEHOLDER
  5
F
102
{ACAD_REACTORS
330
E
102
}
330
E
  0
SCALE
  5
48
102
{ACAD_REACTORS
330
47
102
}
330
47
100
AcDbScale
 70
     0
300
1:1
140
1.0
141
1.0
290
     1
  0
SCALE
  5
49
102
{ACAD_REACTORS
330
47
102
}
330
47
100
AcDbScale
 70
     0
300
1/128" = 1'-0"
140
0.0078125
141
12.0
290
     0
  0
SCALE
  5
4A
102
{ACAD_REACTORS
330
47
102
}
330
47
100
AcDbScale
 70
     0
300
1/64" = 1'-0"
140
0.015625
141
12.0
290
     0
  0
SCALE
  5
4B
102
{ACAD_REACTORS
330
47
102
}
330
47
100
AcDbScale
 70
     0
300
1/32" = 1'-0"
140
0.03125
141
12.0
290
     0
  0
SCALE
  5
4C
102
{ACAD_REACTORS
330
47
102
}
330
47
100
AcDbScale
 70
     0
300
1/16" = 1'-0"
140
0.0625
141
12.0
290
     0
  0
SCALE
  5
4D
102
{ACAD_REACTORS
330
47
102
}
330
47
100
AcDbScale
 70
     0
300
3/32" = 1'-0"
140
0.09375
141
12.0
290
     0
  0
SCALE
  5
4E
102
{ACAD_REACTORS
330
47
102
}
330
47
100
AcDbScale
 70
     0
300
1/8" = 1'-0"
140
0.125
141
12.0
290
     0
  0
SCALE
  5
4F
102
{ACAD_REACTORS
330
47
102
}
330
47
100
AcDbScale
 70
     0
300
3/16" = 1'-0"
140
0.1875
141
12.0
290
     0
  0
SCALE
  5
50
102
{ACAD_REACTORS
330
47
102
}
330
47
100
AcDbScale
 70
     0
300
1/4" = 1'-0"
140
0.25
141
12.0
290
     0
  0
SCALE
  5
51
102
{ACAD_REACTORS
330
47
102
}
330
47
100
AcDbScale
 70
     0
300
3/8" = 1'-0"
140
0.375
141
12.0
290
     0
  0
SCALE
  5
52
102
{ACAD_REACTORS
330
47
102
}
330
47
100
AcDbScale
 70
     0
300
1/2" = 1'-0"
140
0.5
141
12.0
290
     0
  0
SCALE
  5
53
102
{ACAD_REACTORS
330
47
102
}
330
47
100
AcDbScale
 70
     0
300
3/4" = 1'-0"
140
0.75
141
12.0
290
     0
  0
SCALE
  5
54
102
{ACAD_REACTORS
330
47
102
}
330
47
100
AcDbScale
 70
     0
300
1" = 1'-0"
140
1.0
141
12.0
290
     0
  0
SCALE
  5
55
102
{ACAD_REACTORS
330
47
102
}
330
47
100
AcDbScale
 70
     0
300
1-1/2" = 1'-0"
140
1.5
141
12.0
290
     0
  0
SCALE
  5
56
102
{ACAD_REACTORS
330
47
102
}
330
47
100
AcDbScale
 70
     0
300
3" = 1'-0"
140
3.0
141
12.0
290
     0
  0
SCALE
  5
57
102
{ACAD_REACTORS
330
47
102
}
330
47
100
AcDbScale
 70
     0
300
6" = 1'-0"
140
6.0
141
12.0
290
     0
  0
SCALE
  5
58
102
{ACAD_REACTORS
330
47
102
}
330
47
100
AcDbScale
 70
     0
300
1'-0" = 1'-0"
140
12.0
141
12.0
290
     0
  0
ENDSEC
  0
EOF
